<?xml version="1.0" encoding="UTF-8" standalone="no"?>
<svg width="1000px" height="474px" viewBox="0 0 1000 474" version="1.1" xmlns="http://www.w3.org/2000/svg" xmlns:xlink="http://www.w3.org/1999/xlink">
    <!-- Generator: Sketch 3.6.1 (26313) - http://www.bohemiancoding.com/sketch -->
    <title>Page 1</title>
    <desc>Created with Sketch.</desc>
    <defs></defs>
    <g id="Page-1" stroke="none" stroke-width="1" fill="none" fill-rule="evenodd">
        <g>
            <path d="M118.030435,15.8097826 C118.030435,15.8097826 101.030652,38.6108696 105.178696,42.3423913 C109.319565,46.0782609 158.23913,19.9565217 193.063043,12.0836957 C227.88913,4.20978261 250.684783,4.20978261 268.929348,6.69021739 C287.167391,9.17826087 316.192391,18.7152174 314.115217,23.6869565 C312.03913,28.6695652 274.318478,31.5641304 256.494565,36.9543478 C238.663043,42.3423913 209.228261,53.1195652 190.994565,68.8793478 C172.753261,84.6315217 166.95,94.9902174 169.020652,97.4815217 C171.08913,99.9706522 205.501087,84.6315217 229.126087,80.898913 C252.758696,77.1684783 289.66087,77.1684783 317.43587,91.2597826 C345.204348,105.361957 363.447826,124.833696 368.005435,134.790217 C372.565217,144.736957 372.154348,146.808696 369.246739,147.645652 C366.354348,148.465217 356.81413,141.425 339.403261,134.790217 C321.995652,128.161957 307.477174,121.93587 283.854348,124.833696 C260.226087,127.745652 226.228261,145.152174 232.856522,151.784783 C239.494565,158.418478 264.781522,148.053261 286.340217,158.418478 C307.897826,168.788043 324.482609,181.21413 326.143478,203.196739 C327.786957,225.165217 322.822826,234.696739 318.258696,238.022826 C313.703261,241.332609 308.733696,241.332609 308.733696,241.332609 C308.733696,241.332609 310.383696,230.556522 306.238043,222.677174 C302.095652,214.801087 296.286957,206.506522 297.118478,203.196739 C297.951087,199.880435 302.505435,194.081522 296.286957,186.198913 C290.067391,178.319565 274.732609,165.877174 253.590217,172.094565 C232.446739,178.319565 214.625,190.756522 206.746739,216.042391 C198.86413,241.332609 200.941304,254.194565 196.797826,254.594565 C192.647826,255.019565 175.242391,232.628261 176.483696,206.102174 C177.725,179.557609 192.23587,152.2 199.282609,143.075 C206.330435,133.958696 217.525,121.93587 213.378261,119.45 C209.228261,116.961957 164.875,135.622826 148.708696,165.057609 C132.53587,194.486957 125.072826,223.918478 126.321739,255.43587 C127.566304,286.933696 138.756522,309.328261 132.53587,310.56413 C126.321739,311.804348 103.930109,287.763043 96.4726087,259.166304 C89.0076087,230.556522 85.2769565,220.188043 85.2769565,199.880435 C85.2769565,179.557609 89.4231522,156.754348 82.7892391,155.932609 C76.1554348,155.101087 60.4055435,186.198913 55.0182609,213.556522 C49.6234783,240.913043 51.6994565,280.31087 56.6748913,305.595652 C61.6408696,330.879348 75.3242391,363.215217 68.6979348,365.697717 C62.0640217,368.183587 49.2154348,355.759783 37.1961957,340.828261 C25.1694565,325.902174 9.41586957,299.780435 3.6073913,304.343478 C-2.19347826,308.901087 -0.529347826,343.31413 5.26586957,369.840217 C11.0742391,396.375761 12.7271739,400.935652 12.7271739,405.916739 C12.7271739,410.884674 11.0742391,415.457717 11.0742391,415.457717 C11.0742391,415.457717 19.7803261,412.964348 16.4558696,399.694674 C13.1483696,386.430543 8.58663043,353.266304 9.41586957,347.459783 C10.2431522,341.657609 11.8997826,337.106522 14.8068478,337.51087 C17.7044565,337.927174 39.2646739,360.726087 52.1131522,373.16087 C64.9691304,385.595652 89.0076087,403.84087 97.2981522,408.814348 C105.592391,413.793587 119.683696,419.188261 119.276087,413.793587 C118.861957,408.391304 89.8406522,367.354348 81.1345652,340.001087 C72.4304348,312.63587 66.6276087,276.98587 73.6752174,279.466304 C80.7190217,281.959783 86.9392391,300.204348 108.488152,326.73913 C130.052174,353.266304 169.020652,382.29 167.779348,386.0225 C166.531522,389.741848 161.147826,393.474457 173.582609,404.668152 C186.017391,415.865761 224.159783,444.052283 268.929348,446.965 C313.703261,449.851304 357.646739,446.124457 388.73913,433.277826 C419.822826,420.423696 435.578261,411.300217 438.483696,417.103043 C441.38913,422.909565 427.288043,444.052283 418.58913,454.420543 C409.877174,464.781413 404.904348,472.658152 411.122826,473.491196 C417.344565,474.314783 456.307609,465.614348 485.75,446.965 C515.183696,428.293043 529.690217,419.596304 534.25,417.939783 C538.809783,416.27 544.198913,411.300217 528.441304,417.939783 C512.693478,424.573696 486.571739,442.811304 469.994565,449.439565 C453.411957,456.07337 439.316304,461.88 440.969565,452.348478 C442.629348,442.811304 466.258696,412.545 472.892391,397.620543 C479.520652,382.694348 485.75,366.117065 480.357609,365.697717 C474.963043,365.282174 441.38913,395.132935 412.363043,409.639891 C383.35,424.146848 353.083696,434.103261 327.786957,435.759891 C302.505435,437.416522 290.48587,433.277826 291.317391,429.13163 C292.144565,424.981739 334.425,410.478478 358.056522,393.066413 C381.694565,375.658043 404.904348,350.777174 411.538043,335.854348 C418.173913,320.930435 419.415217,312.228261 416.925,311.804348 C414.441304,311.396739 378.371739,344.978261 343.553261,356.168478 C308.733696,367.354348 271.41413,367.781196 250.684783,357.820652 C229.96087,347.879348 218.769565,340.001087 224.159783,336.681522 C229.548913,333.365217 257.320652,339.167391 285.930435,330.879348 C314.530435,322.58913 339.817391,304.343478 347.280435,286.105435 C354.740217,267.856522 356.404348,256.672826 351.007609,255.840217 C345.620652,255.019565 336.507609,274.084783 311.211957,281.130435 C285.930435,288.186957 266.022826,281.959783 259.390217,275.733696 C252.758696,269.527174 249.440217,262.898913 253.173913,260.822826 C256.903261,258.741304 270.172826,259.98587 279.297826,255.019565 C288.411957,250.040217 297.531522,238.022826 300.017391,239.26413 C302.505435,240.513043 307.477174,242.161957 307.897826,247.143478 C308.306522,252.108696 317.845652,258.741304 325.718478,244.657609 C333.606522,230.556522 339.403261,211.903261 334.425,195.315217 C329.454348,178.731522 310.383696,154.68587 316.192391,152.607609 C321.995652,150.53587 357.221739,157.594565 369.246739,188.688043 C381.271739,219.780435 385.011957,226.826087 383.35,247.143478 C381.694565,267.453261 374.63587,290.255435 378.788043,291.493478 C382.928261,292.732609 401.177174,279.069565 408.632609,254.594565 C416.095652,230.144565 421.071739,172.509783 401.177174,137.691304 C381.271739,102.868478 375.468478,97.4815217 381.271739,97.0619565 C387.080435,96.6467391 411.953261,105.361957 429.367391,128.571739 C446.773913,151.784783 463.772826,189.092391 469.571739,211.903261 C475.373913,234.696739 477.86413,240.091304 481.184783,238.427174 C484.505435,236.778261 499.01087,209.834783 489.477174,160.484783 C479.938043,111.159783 460.867391,80.0695652 453.819565,66.8076087 C446.773913,53.5380435 441.798913,43.5945652 444.293478,41.523913 C446.773913,39.4445652 465.841304,48.15 465.841304,48.15 C465.841304,48.15 433.096739,27.0076087 431.847826,34.0608696 C430.61087,41.0967391 444.293478,58.098913 455.480435,80.898913 C466.670652,103.702174 477.454348,138.520652 479.116304,148.465217 C480.769565,158.418478 480.769565,168.788043 477.454348,170.016304 C474.133696,171.265217 454.654348,140.586957 443.875,125.661957 C433.096739,110.748913 404.486957,82.5663043 397.442391,77.1684783 C390.395652,71.7695652 383.765217,65.9706522 386.253261,62.6532609 C388.73913,59.3402174 388.73913,46.8945652 355.984783,28.25 C323.23587,9.59565217 302.919565,5.03695652 270.172826,1.30108696 C237.422826,-2.42608696 209.647826,2.54565217 190.994565,7.52934783 C172.338043,12.501087 143.728261,24.9293478 133.367391,28.6695652 C123.006522,32.3967391 115.126087,36.9543478 113.882609,33.2282609 C112.645652,29.4956522 118.030435,15.8097826 118.030435,15.8097826" id="Fill-1" fill="#FFCD0A"></path>
            <path d="M225.853261,320.826087 L559.005435,320.826087 L559.005435,188.493478 L225.853261,188.493478 L225.853261,320.826087 Z" id="Fill-2" fill="#FFCD0A"></path>
            <path d="M990.008696,188.493478 L568.406522,188.493478 L559.004348,188.493478 L559.004348,197.895652 L559.004348,311.421739 L559.004348,320.826087 L990.008696,320.826087 C995.179348,320.826087 999.41087,316.594565 999.41087,311.421739 L999.41087,197.895652 C999.41087,192.725 995.179348,188.493478 990.008696,188.493478" id="Fill-3" fill="#1A171B"></path>
            <path d="M254.5,260.46413 L254.5,285.036957 L270.61087,285.036957 C273.634783,285.036957 276.105435,284.653261 278.023913,283.88587 C279.93913,283.120652 281.442391,282.126087 282.525,280.907609 C283.608696,279.691304 284.351087,278.313043 284.758696,276.778261 C285.167391,275.243478 285.368478,273.686957 285.368478,272.107609 C285.368478,270.302174 285.129348,268.679348 284.655435,267.233696 C284.183696,265.78913 283.371739,264.570652 282.220652,263.578261 C281.071739,262.584783 279.546739,261.818478 277.653261,261.276087 C275.757609,260.734783 273.361957,260.46413 270.476087,260.46413 L254.5,260.46413 Z M254.5,245.165217 L266.41413,245.165217 C268.941304,245.165217 271.221739,244.986957 273.253261,244.623913 C275.283696,244.263043 277.009783,243.631522 278.431522,242.728261 C279.851087,241.826087 280.93587,240.584783 281.679348,239.005435 C282.423913,237.426087 282.797826,235.440217 282.797826,233.048913 C282.797826,230.702174 282.501087,228.75 281.916304,227.193478 C281.329348,225.63587 280.427174,224.383696 279.209783,223.43587 C277.990217,222.488043 276.444565,221.811957 274.571739,221.405435 C272.697826,220.998913 270.476087,220.795652 267.905435,220.795652 L254.5,220.795652 L254.5,245.165217 Z M231.619565,302.298913 L231.619565,203.669565 L267.905435,203.669565 C274.717391,203.669565 280.517391,204.302174 285.302174,205.565217 C290.083696,206.829348 293.988043,208.611957 297.009783,210.913043 C300.034783,213.21413 302.234783,216.013043 303.611957,219.306522 C304.988043,222.601087 305.678261,226.279348 305.678261,230.341304 C305.678261,232.552174 305.359783,234.684783 304.730435,236.738043 C304.094565,238.793478 303.103261,240.720652 301.752174,242.526087 C300.395652,244.330435 298.658696,245.968478 296.53587,247.433696 C294.418478,248.9 291.866304,250.175 288.888043,251.257609 C295.386957,252.836957 300.194565,255.398913 303.306522,258.941304 C306.420652,262.483696 307.976087,267.030435 307.976087,272.581522 C307.976087,276.778261 307.165217,280.681522 305.542391,284.292391 C303.916304,287.902174 301.53587,291.052174 298.398913,293.733696 C295.263043,296.420652 291.392391,298.518478 286.790217,300.030435 C282.188043,301.542391 276.929348,302.298913 271.017391,302.298913 L231.619565,302.298913 Z" id="Fill-4" fill="#1A171B"></path>
            <path d="M320.431522,302.298913 L320.431522,232.101087 L332.888043,232.101087 C333.925,232.101087 334.794565,232.191304 335.495652,232.371739 C336.193478,232.552174 336.779348,232.83587 337.253261,233.217391 C337.727174,233.601087 338.088043,234.108696 338.336957,234.741304 C338.582609,235.372826 338.801087,236.140217 338.979348,237.042391 L340.130435,243.608696 C342.704348,239.636957 345.591304,236.501087 348.795652,234.198913 C352,231.897826 355.494565,230.746739 359.288043,230.746739 C362.492391,230.746739 365.061957,231.51413 367.006522,233.048913 L364.295652,248.482609 C364.11413,249.430435 363.755435,250.095652 363.21413,250.479348 C362.672826,250.863043 361.95,251.055435 361.05,251.055435 C360.280435,251.055435 359.378261,250.953261 358.338043,250.75 C357.302174,250.546739 355.991304,250.445652 354.41413,250.445652 C348.908696,250.445652 344.576087,253.379348 341.415217,259.245652 L341.415217,302.298913 L320.431522,302.298913 Z" id="Fill-5" fill="#1A171B"></path>
            <path d="M396.61087,289.503261 C399.327174,289.503261 401.704348,289.029348 403.742391,288.081522 C405.779348,287.133696 407.840217,285.603261 409.921739,283.480435 L409.921739,273.732609 C405.71087,273.913043 402.247826,274.273913 399.530435,274.81413 C396.815217,275.357609 394.66413,276.033696 393.081522,276.846739 C391.493478,277.658696 390.395652,278.583696 389.786957,279.619565 C389.173913,280.659783 388.868478,281.78587 388.868478,283.006522 C388.868478,285.396739 389.525,287.079348 390.838043,288.05 C392.152174,289.019565 394.076087,289.503261 396.61087,289.503261 L396.61087,289.503261 Z M420.754348,302.298913 C418.766304,302.298913 417.266304,302.026087 416.251087,301.486957 C415.23587,300.943478 414.38913,299.815217 413.71413,298.1 L412.222826,294.243478 C410.463043,295.732609 408.770652,297.043478 407.147826,298.169565 C405.521739,299.297826 403.840217,300.256522 402.104348,301.046739 C400.367391,301.836957 398.517391,302.422826 396.552174,302.804348 C394.591304,303.188043 392.413043,303.382609 390.019565,303.382609 C386.815217,303.382609 383.903261,302.963043 381.28913,302.129348 C378.669565,301.294565 376.447826,300.065217 374.619565,298.440217 C372.790217,296.816304 371.379348,294.794565 370.38913,292.381522 C369.395652,289.967391 368.901087,287.180435 368.901087,284.019565 C368.901087,281.541304 369.533696,278.988043 370.794565,276.372826 C372.058696,273.755435 374.247826,271.375 377.363043,269.231522 C380.475,267.086957 384.671739,265.293478 389.952174,263.847826 C395.233696,262.405435 401.888043,261.593478 409.921739,261.411957 L409.921739,258.433696 C409.921739,254.327174 409.075,251.359783 407.382609,249.532609 C405.690217,247.704348 403.288043,246.791304 400.173913,246.791304 C397.691304,246.791304 395.66087,247.061957 394.081522,247.603261 C392.5,248.144565 391.090217,248.754348 389.85,249.429348 C388.607609,250.107609 387.404348,250.717391 386.229348,251.258696 C385.055435,251.8 383.656522,252.070652 382.033696,252.070652 C380.588043,252.070652 379.357609,251.720652 378.342391,251.021739 C377.327174,250.321739 376.523913,249.453261 375.941304,248.415217 L372.148913,241.848913 C376.38913,238.103261 381.093478,235.317391 386.265217,233.486957 C391.430435,231.661957 396.969565,230.747826 402.881522,230.747826 C407.123913,230.747826 410.947826,231.43587 414.357609,232.811957 C417.76087,234.18913 420.651087,236.106522 423.019565,238.566304 C425.38913,241.026087 427.205435,243.945652 428.469565,247.332609 C429.732609,250.717391 430.365217,254.417391 430.365217,258.433696 L430.365217,302.298913 L420.754348,302.298913 Z" id="Fill-6" fill="#1A171B"></path>
            <path d="M466.916304,302.298913 L445.933696,302.298913 L445.933696,232.102174 L466.916304,232.102174 L466.916304,302.298913 Z M469.353261,212.875 C469.353261,214.546739 469.015217,216.115217 468.340217,217.579348 C467.659783,219.048913 466.734783,220.334783 465.563043,221.440217 C464.388043,222.545652 463.026087,223.426087 461.467391,224.078261 C459.91087,224.734783 458.25,225.059783 456.492391,225.059783 C454.777174,225.059783 453.175,224.734783 451.68587,224.078261 C450.196739,223.426087 448.876087,222.545652 447.726087,221.440217 C446.577174,220.334783 445.672826,219.048913 445.018478,217.579348 C444.361957,216.115217 444.036957,214.546739 444.036957,212.875 C444.036957,211.161957 444.361957,209.559783 445.018478,208.070652 C445.672826,206.581522 446.577174,205.272826 447.726087,204.142391 C448.876087,203.016304 450.196739,202.136957 451.68587,201.504348 C453.175,200.872826 454.777174,200.556522 456.492391,200.556522 C458.25,200.556522 459.91087,200.872826 461.467391,201.504348 C463.026087,202.136957 464.388043,203.016304 465.563043,204.142391 C466.734783,205.272826 467.659783,206.581522 468.340217,208.070652 C469.015217,209.559783 469.353261,211.161957 469.353261,212.875 L469.353261,212.875 Z" id="Fill-7" fill="#1A171B"></path>
            <path d="M483.838043,302.298913 L483.838043,232.101087 L496.834783,232.101087 C498.145652,232.101087 499.238043,232.394565 500.118478,232.980435 C501,233.567391 501.618478,234.447826 501.979348,235.620652 L503.2,239.682609 C504.553261,238.418478 505.951087,237.245652 507.396739,236.161957 C508.841304,235.079348 510.384783,234.165217 512.031522,233.420652 C513.681522,232.676087 515.461957,232.091304 517.381522,231.66087 C519.3,231.232609 521.386957,231.017391 523.641304,231.017391 C527.479348,231.017391 530.875,231.683696 533.829348,233.015217 C536.784783,234.345652 539.278261,236.196739 541.308696,238.565217 C543.341304,240.934783 544.876087,243.755435 545.91413,247.027174 C546.95,250.298913 547.470652,253.853261 547.470652,257.68913 L547.470652,302.298913 L526.48587,302.298913 L526.48587,257.68913 C526.48587,254.258696 525.694565,251.584783 524.117391,249.667391 C522.53587,247.748913 520.211957,246.790217 517.144565,246.790217 C514.841304,246.790217 512.675,247.286957 510.645652,248.279348 C508.615217,249.272826 506.675,250.603261 504.822826,252.273913 L504.822826,302.298913 L483.838043,302.298913 Z" id="Fill-8" fill="#1A171B"></path>
            <path d="M633.572826,223.707609 C632.897826,224.790217 632.188043,225.602174 631.442391,226.144565 C630.697826,226.68587 629.738043,226.956522 628.563043,226.956522 C627.527174,226.956522 626.406522,226.629348 625.21413,225.975 C624.016304,225.320652 622.66413,224.586957 621.152174,223.775 C619.63913,222.963043 617.913043,222.229348 615.973913,221.575 C614.033696,220.920652 611.820652,220.593478 609.340217,220.593478 C605.051087,220.593478 601.859783,221.507609 599.76413,223.334783 C597.66087,225.163043 596.616304,227.633696 596.616304,230.746739 C596.616304,232.732609 597.243478,234.380435 598.51087,235.68913 C599.769565,236.997826 601.429348,238.126087 603.482609,239.073913 C605.53587,240.020652 607.882609,240.890217 610.522826,241.679348 C613.163043,242.469565 615.859783,243.348913 618.61413,244.319565 C621.365217,245.291304 624.063043,246.429348 626.705435,247.738043 C629.341304,249.046739 631.688043,250.716304 633.741304,252.747826 C635.794565,254.778261 637.453261,257.248913 638.717391,260.159783 C639.980435,263.070652 640.613043,266.579348 640.613043,270.68587 C640.613043,275.244565 639.822826,279.51087 638.243478,283.480435 C636.665217,287.448913 634.373913,290.915217 631.372826,293.868478 C628.371739,296.827174 624.675,299.151087 620.270652,300.843478 C615.870652,302.53587 610.872826,303.381522 605.278261,303.381522 C602.207609,303.381522 599.082609,303.066304 595.903261,302.433696 C592.721739,301.802174 589.641304,300.91087 586.663043,299.759783 C583.684783,298.609783 580.884783,297.244565 578.269565,295.666304 C575.652174,294.086957 573.370652,292.325 571.432609,290.384783 L578.201087,279.68913 C578.695652,278.877174 579.395652,278.222826 580.3,277.726087 C581.201087,277.229348 582.170652,276.981522 583.21087,276.981522 C584.56413,276.981522 585.928261,277.409783 587.306522,278.267391 C588.682609,279.125 590.23913,280.072826 591.977174,281.11087 C593.71413,282.148913 595.711957,283.097826 597.966304,283.954348 C600.222826,284.81087 602.884783,285.240217 605.953261,285.240217 C610.107609,285.240217 613.332609,284.323913 615.63587,282.5 C617.93913,280.670652 619.088043,277.771739 619.088043,273.8 C619.088043,271.497826 618.456522,269.625 617.192391,268.181522 C615.929348,266.736957 614.268478,265.541304 612.217391,264.593478 C610.16413,263.645652 607.828261,262.81087 605.208696,262.08913 C602.593478,261.367391 599.906522,260.566304 597.155435,259.68587 C594.401087,258.805435 591.715217,257.722826 589.1,256.436957 C586.482609,255.15 584.146739,253.458696 582.093478,251.359783 C580.036957,249.26087 578.380435,246.643478 577.118478,243.507609 C575.854348,240.370652 575.222826,236.501087 575.222826,231.897826 C575.222826,228.197826 575.967391,224.586957 577.455435,221.067391 C578.945652,217.546739 581.132609,214.41087 584.021739,211.657609 C586.91087,208.905435 590.452174,206.705435 594.651087,205.057609 C598.847826,203.41087 603.652174,202.586957 609.069565,202.586957 C612.091304,202.586957 615.038043,202.823913 617.901087,203.297826 C620.769565,203.771739 623.488043,204.472826 626.058696,205.396739 C628.632609,206.321739 631.033696,207.427174 633.267391,208.713043 C635.503261,209.998913 637.498913,211.454348 639.26087,213.079348 L633.572826,223.707609 Z" id="Fill-9" fill="#FFFFFF"></path>
            <path d="M682.445652,245.504348 C678.428261,245.504348 675.292391,246.643478 673.03587,248.922826 C670.779348,251.201087 669.288043,254.484783 668.568478,258.771739 L694.765217,258.771739 C694.765217,257.102174 694.551087,255.479348 694.123913,253.897826 C693.693478,252.320652 692.994565,250.909783 692.026087,249.667391 C691.053261,248.426087 689.778261,247.423913 688.201087,246.654348 C686.619565,245.888043 684.702174,245.504348 682.445652,245.504348 M682.03913,231.017391 C686.68587,231.017391 690.942391,231.740217 694.801087,233.183696 C698.657609,234.628261 701.976087,236.728261 704.75,239.479348 C707.527174,242.232609 709.691304,245.605435 711.248913,249.598913 C712.805435,253.593478 713.58587,258.117391 713.58587,263.171739 C713.58587,264.751087 713.516304,266.036957 713.380435,267.030435 C713.247826,268.022826 712.997826,268.813043 712.638043,269.4 C712.275,269.988043 711.790217,270.392391 711.180435,270.618478 C710.571739,270.845652 709.794565,270.956522 708.845652,270.956522 L668.367391,270.956522 C669.042391,276.822826 670.826087,281.076087 673.713043,283.716304 C676.603261,286.356522 680.323913,287.678261 684.883696,287.678261 C687.320652,287.678261 689.417391,287.383696 691.179348,286.796739 C692.938043,286.209783 694.505435,285.555435 695.882609,284.833696 C697.258696,284.111957 698.523913,283.458696 699.672826,282.870652 C700.823913,282.28587 702.031522,281.990217 703.296739,281.990217 C704.966304,281.990217 706.228261,282.6 707.08587,283.818478 L713.179348,291.331522 C711.011957,293.81413 708.676087,295.83587 706.171739,297.392391 C703.667391,298.947826 701.096739,300.166304 698.456522,301.045652 C695.81413,301.926087 693.175,302.534783 690.536957,302.875 C687.894565,303.211957 685.380435,303.381522 682.986957,303.381522 C678.066304,303.381522 673.453261,302.580435 669.145652,300.978261 C664.83587,299.376087 661.065217,296.995652 657.83913,293.836957 C654.611957,290.677174 652.061957,286.753261 650.191304,282.057609 C648.318478,277.365217 647.382609,271.904348 647.382609,265.676087 C647.382609,260.982609 648.181522,256.538043 649.784783,252.341304 C651.38587,248.143478 653.686957,244.466304 656.690217,241.306522 C659.68913,238.147826 663.321739,235.643478 667.588043,233.793478 C671.851087,231.942391 676.668478,231.017391 682.03913,231.017391" id="Fill-10" fill="#FFFFFF"></path>
            <path d="M726.309783,302.298913 L747.292717,302.298913 L747.292717,200.962609 L726.309783,200.962609 L726.309783,302.298913 Z" id="Fill-11" fill="#FFFFFF"></path>
            <path d="M764.893478,302.298913 L785.878261,302.298913 L785.878261,200.962609 L764.893478,200.962609 L764.893478,302.298913 Z" id="Fill-12" fill="#FFFFFF"></path>
            <path d="M833.26087,245.504348 C829.246739,245.504348 826.108696,246.643478 823.852174,248.922826 C821.595652,251.201087 820.106522,254.484783 819.383696,258.771739 L845.583696,258.771739 C845.583696,257.102174 845.367391,255.479348 844.940217,253.897826 C844.509783,252.320652 843.809783,250.909783 842.840217,249.667391 C841.869565,248.426087 840.594565,247.423913 839.017391,246.654348 C837.43587,245.888043 835.516304,245.504348 833.26087,245.504348 M832.855435,231.017391 C837.503261,231.017391 841.758696,231.740217 845.615217,233.183696 C849.473913,234.628261 852.792391,236.728261 855.566304,239.479348 C858.343478,242.232609 860.507609,245.605435 862.06413,249.598913 C863.621739,253.593478 864.402174,258.117391 864.402174,263.171739 C864.402174,264.751087 864.332609,266.036957 864.196739,267.030435 C864.063043,268.022826 863.813043,268.813043 863.454348,269.4 C863.093478,269.988043 862.606522,270.392391 861.994565,270.618478 C861.388043,270.845652 860.61087,270.956522 859.661957,270.956522 L819.182609,270.956522 C819.857609,276.822826 821.640217,281.076087 824.529348,283.716304 C827.418478,286.356522 831.140217,287.678261 835.7,287.678261 C838.136957,287.678261 840.233696,287.383696 841.995652,286.796739 C843.753261,286.209783 845.321739,285.555435 846.697826,284.833696 C848.072826,284.111957 849.340217,283.458696 850.48913,282.870652 C851.640217,282.28587 852.846739,281.990217 854.113043,281.990217 C855.782609,281.990217 857.044565,282.6 857.901087,283.818478 L863.995652,291.331522 C861.827174,293.81413 859.490217,295.83587 856.988043,297.392391 C854.482609,298.947826 851.913043,300.166304 849.270652,301.045652 C846.630435,301.926087 843.990217,302.534783 841.352174,302.875 C838.71087,303.211957 836.196739,303.381522 833.803261,303.381522 C828.883696,303.381522 824.269565,302.580435 819.961957,300.978261 C815.652174,299.376087 811.879348,296.995652 808.655435,293.836957 C805.430435,290.677174 802.878261,286.753261 801.005435,282.057609 C799.134783,277.365217 798.197826,271.904348 798.197826,265.676087 C798.197826,260.982609 798.997826,256.538043 800.601087,252.341304 C802.201087,248.143478 804.503261,244.466304 807.506522,241.306522 C810.505435,238.147826 814.138043,235.643478 818.402174,233.793478 C822.665217,231.942391 827.484783,231.017391 832.855435,231.017391" id="Fill-13" fill="#FFFFFF"></path>
            <path d="M876.448913,302.298913 L876.448913,232.101087 L888.904348,232.101087 C889.942391,232.101087 890.81087,232.191304 891.51087,232.371739 C892.209783,232.552174 892.794565,232.83587 893.267391,233.217391 C893.740217,233.601087 894.105435,234.108696 894.353261,234.741304 C894.6,235.372826 894.816304,236.140217 894.994565,237.042391 L896.147826,243.608696 C898.718478,239.636957 901.604348,236.501087 904.811957,234.198913 C908.01413,231.897826 911.511957,230.746739 915.304348,230.746739 C918.506522,230.746739 921.079348,231.51413 923.021739,233.048913 L920.31413,248.482609 C920.131522,249.430435 919.772826,250.095652 919.230435,250.479348 C918.68913,250.863043 917.965217,251.055435 917.065217,251.055435 C916.295652,251.055435 915.394565,250.953261 914.356522,250.75 C913.317391,250.546739 912.008696,250.445652 910.429348,250.445652 C904.925,250.445652 900.591304,253.379348 897.433696,259.245652 L897.433696,302.298913 L876.448913,302.298913 Z" id="Fill-14" fill="#FFFFFF"></path>
            <path d="M975.291304,247.467391 C974.747826,248.326087 974.176087,248.933696 973.568478,249.294565 C972.96087,249.657609 972.184783,249.83587 971.236957,249.83587 C970.245652,249.83587 969.256522,249.621739 968.265217,249.193478 C967.272826,248.76413 966.204348,248.302174 965.056522,247.805435 C963.905435,247.31087 962.613043,246.846739 961.170652,246.417391 C959.732609,245.98913 958.08913,245.775 956.241304,245.775 C953.58587,245.775 951.547826,246.282609 950.128261,247.297826 C948.707609,248.313043 947.998913,249.725 947.998913,251.528261 C947.998913,252.836957 948.459783,253.921739 949.384783,254.778261 C950.308696,255.634783 951.532609,256.393478 953.065217,257.045652 C954.597826,257.7 956.329348,258.320652 958.26413,258.907609 C960.204348,259.493478 962.186957,260.15 964.211957,260.870652 C966.240217,261.592391 968.220652,262.438043 970.157609,263.408696 C972.092391,264.380435 973.828261,265.575 975.358696,266.996739 C976.891304,268.418478 978.117391,270.144565 979.040217,272.175 C979.961957,274.205435 980.423913,276.642391 980.423913,279.48587 C980.423913,282.963043 979.794565,286.165217 978.530435,289.1 C977.267391,292.033696 975.382609,294.56087 972.878261,296.679348 C970.373913,298.802174 967.280435,300.447826 963.602174,301.622826 C959.925,302.794565 955.693478,303.381522 950.909783,303.381522 C948.519565,303.381522 946.126087,303.154348 943.736957,302.704348 C941.341304,302.255435 939.031522,301.645652 936.795652,300.877174 C934.56413,300.109783 932.497826,299.195652 930.602174,298.134783 C928.708696,297.076087 927.080435,295.934783 925.730435,294.716304 L930.602174,286.997826 C931.18913,286.098913 931.890217,285.38587 932.702174,284.869565 C933.51087,284.35 934.575,284.090217 935.883696,284.090217 C937.101087,284.090217 938.194565,284.359783 939.167391,284.901087 C940.136957,285.442391 941.182609,286.029348 942.315217,286.66087 C943.441304,287.294565 944.76087,287.879348 946.272826,288.421739 C947.786957,288.963043 949.693478,289.233696 951.993478,289.233696 C953.619565,289.233696 954.995652,289.06413 956.123913,288.726087 C957.251087,288.386957 958.155435,287.925 958.833696,287.338043 C959.506522,286.753261 960.003261,286.098913 960.321739,285.375 C960.636957,284.653261 960.794565,283.909783 960.794565,283.143478 C960.794565,281.744565 960.321739,280.593478 959.371739,279.690217 C958.421739,278.78587 957.182609,278.007609 955.65,277.353261 C954.11413,276.698913 952.367391,276.091304 950.402174,275.526087 C948.441304,274.963043 946.442391,274.318478 944.411957,273.596739 C942.380435,272.876087 940.38587,272.005435 938.422826,270.990217 C936.457609,269.975 934.708696,268.68913 933.176087,267.131522 C931.640217,265.575 930.401087,263.669565 929.453261,261.411957 C928.503261,259.155435 928.028261,256.427174 928.028261,253.220652 C928.028261,250.242391 928.607609,247.41087 929.756522,244.725 C930.906522,242.042391 932.632609,239.682609 934.93587,237.651087 C937.238043,235.620652 940.123913,234.007609 943.598913,232.811957 C947.073913,231.615217 951.13587,231.017391 955.78587,231.017391 C958.313043,231.017391 960.759783,231.245652 963.127174,231.694565 C965.5,232.147826 967.722826,232.777174 969.796739,233.590217 C971.871739,234.402174 973.767391,235.36087 975.484783,236.467391 C977.198913,237.573913 978.709783,238.779348 980.019565,240.088043 L975.291304,247.467391 Z" id="Fill-15" fill="#FFFFFF"></path>
            <path d="M534.203261,335.972826 L534.203261,340.398913 L520.945652,340.398913 L520.945652,349.253261 L532.134783,349.253261 L532.134783,353.7 L520.945652,353.7 L520.945652,365.881304 L515.340217,365.881304 L515.340217,335.972826 L534.203261,335.972826 Z" id="Fill-16" fill="#000000"></path>
            <path d="M537.036957,365.881848 L537.036957,344.659783 L540.03587,344.659783 C540.56087,344.659783 540.923913,344.757609 541.132609,344.95 C541.33913,345.143478 541.475,345.472826 541.544565,345.942391 L541.856522,348.507609 C542.61413,347.196739 543.501087,346.16413 544.522826,345.403261 C545.543478,344.646739 546.690217,344.267391 547.957609,344.267391 C549.003261,344.267391 549.873913,344.507609 550.56413,344.992391 L549.902174,348.817391 C549.858696,349.066304 549.770652,349.240217 549.631522,349.344565 C549.495652,349.448913 549.307609,349.5 549.072826,349.5 C548.868478,349.5 548.58587,349.451087 548.225,349.355435 C547.869565,349.259783 547.392391,349.21087 546.8,349.21087 C545.736957,349.21087 544.829348,349.504348 544.067391,350.090217 C543.311957,350.675 542.668478,351.532609 542.145652,352.665217 L542.145652,365.881848 L537.036957,365.881848 Z" id="Fill-17" fill="#000000"></path>
            <path d="M560.036957,362.697826 C560.56087,362.697826 561.042391,362.648913 561.484783,362.551087 C561.926087,362.455435 562.343478,362.309783 562.736957,362.116304 C563.129348,361.925 563.509783,361.688043 563.873913,361.404348 C564.236957,361.121739 564.609783,360.786957 564.980435,360.4 L564.980435,356.821739 C563.492391,356.891304 562.247826,357.018478 561.248913,357.205435 C560.246739,357.391304 559.445652,357.630435 558.836957,357.919565 C558.229348,358.207609 557.801087,358.545652 557.544565,358.933696 C557.28913,359.318478 557.161957,359.738043 557.161957,360.193478 C557.161957,361.090217 557.426087,361.731522 557.958696,362.116304 C558.491304,362.502174 559.180435,362.697826 560.036957,362.697826 L560.036957,362.697826 Z M569.965217,365.881087 L567.670652,365.881087 C567.188043,365.881087 566.809783,365.807717 566.533696,365.664891 C566.256522,365.52 566.047826,365.228587 565.913043,364.784783 L565.457609,363.275 C564.917391,363.758696 564.391304,364.181522 563.873913,364.547826 C563.357609,364.912717 562.821739,365.221087 562.270652,365.467391 C561.719565,365.715652 561.134783,365.903696 560.51413,366.027717 C559.893478,366.15 559.203261,366.212065 558.443478,366.212065 C557.548913,366.212065 556.719565,366.09163 555.96413,365.850978 C555.204348,365.610326 554.553261,365.245543 554.009783,364.766304 C553.463043,364.282609 553.040217,363.681522 552.734783,362.966304 C552.432609,362.25 552.280435,361.413043 552.280435,360.46413 C552.280435,359.66413 552.48913,358.875 552.911957,358.094565 C553.331522,357.316304 554.032609,356.613043 555.009783,355.984783 C555.990217,355.356522 557.293478,354.83587 558.919565,354.423913 C560.545652,354.008696 562.567391,353.775 564.980435,353.720652 L564.980435,352.478261 C564.980435,351.059783 564.679348,350.007609 564.079348,349.325 C563.481522,348.642391 562.606522,348.301087 561.465217,348.301087 C560.634783,348.301087 559.947826,348.397826 559.395652,348.591304 C558.844565,348.782609 558.365217,349.001087 557.958696,349.241304 C557.552174,349.484783 557.176087,349.701087 556.830435,349.892391 C556.484783,350.08587 556.106522,350.181522 555.692391,350.181522 C555.348913,350.181522 555.053261,350.093478 554.803261,349.913043 C554.557609,349.732609 554.355435,349.513043 554.203261,349.253261 L553.270652,347.617391 C555.713043,345.384783 558.659783,344.266304 562.106522,344.266304 C563.345652,344.266304 564.453261,344.471739 565.423913,344.877174 C566.397826,345.283696 567.219565,345.85 567.896739,346.573913 C568.571739,347.298913 569.086957,348.161957 569.438043,349.168478 C569.791304,350.176087 569.965217,351.280435 569.965217,352.478261 L569.965217,365.881087 Z" id="Fill-18" fill="#000000"></path>
            <path d="M574.991304,365.881848 L574.991304,344.659783 L578.11413,344.659783 C578.778261,344.659783 579.21087,344.970652 579.417391,345.591304 L579.769565,347.266304 C580.197826,346.823913 580.648913,346.423913 581.125,346.066304 C581.601087,345.707609 582.101087,345.396739 582.632609,345.13587 C583.167391,344.875 583.731522,344.672826 584.342391,344.53587 C584.947826,344.396739 585.607609,344.329348 586.326087,344.329348 C587.48587,344.329348 588.51087,344.526087 589.409783,344.919565 C590.306522,345.313043 591.053261,345.863043 591.653261,346.572826 C592.253261,347.283696 592.707609,348.132609 593.018478,349.116304 C593.328261,350.103261 593.482609,351.190217 593.482609,352.372826 L593.482609,365.881848 L588.373913,365.881848 L588.373913,352.372826 C588.373913,351.079348 588.075,350.075 587.475,349.366304 C586.875,348.655435 585.976087,348.3 584.775,348.3 C583.892391,348.3 583.065217,348.5 582.292391,348.9 C581.521739,349.301087 580.790217,349.844565 580.1,350.534783 L580.1,365.881848 L574.991304,365.881848 Z" id="Fill-19" fill="#000000"></path>
            <path d="M603.681522,335.145652 L603.681522,352.747826 L604.632609,352.747826 C604.975,352.747826 605.245652,352.698913 605.43913,352.601087 C605.631522,352.505435 605.83587,352.327174 606.057609,352.065217 L611.332609,345.55 C611.565217,345.276087 611.816304,345.057609 612.077174,344.897826 C612.338043,344.73913 612.684783,344.66087 613.113043,344.66087 L617.788043,344.66087 L611.188043,352.53913 C610.952174,352.829348 610.711957,353.095652 610.46413,353.336957 C610.215217,353.579348 609.946739,353.788043 609.657609,353.968478 C609.946739,354.173913 610.202174,354.416304 610.423913,354.692391 C610.644565,354.967391 610.86413,355.26413 611.08587,355.580435 L618.158696,365.882391 L613.545652,365.882391 C613.145652,365.882391 612.808696,365.812826 612.532609,365.675543 C612.257609,365.536413 612.009783,365.301413 611.78913,364.970435 L606.386957,356.923913 C606.182609,356.608696 605.977174,356.403261 605.766304,356.305435 C605.561957,356.207609 605.253261,356.16087 604.838043,356.16087 L603.681522,356.16087 L603.681522,365.882391 L598.570652,365.882391 L598.570652,335.145652 L603.681522,335.145652 Z" id="Fill-20" fill="#000000"></path>
            <path d="M648.46087,335.972826 L648.46087,340.398913 L635.202174,340.398913 L635.202174,349.253261 L646.392391,349.253261 L646.392391,353.7 L635.202174,353.7 L635.202174,365.881304 L629.596739,365.881304 L629.596739,335.972826 L648.46087,335.972826 Z" id="Fill-21" fill="#000000"></path>
            <path d="M655.967391,344.659783 L655.967391,358.147826 C655.967391,359.441304 656.268478,360.447826 656.868478,361.154348 C657.466304,361.865217 658.365217,362.220652 659.566304,362.220652 C660.448913,362.220652 661.273913,362.025 662.048913,361.630435 C662.821739,361.236957 663.551087,360.695652 664.241304,360.007609 L664.241304,344.659783 L669.35,344.659783 L669.35,365.88163 L666.225,365.88163 C665.565217,365.88163 665.130435,365.571413 664.926087,364.95087 L664.571739,363.256522 C664.132609,363.696739 663.677174,364.101087 663.207609,364.46413 C662.741304,364.832609 662.236957,365.140761 661.708696,365.396522 C661.176087,365.650326 660.603261,365.851522 659.990217,365.996304 C659.377174,366.141087 658.718478,366.212609 658.017391,366.212609 C656.857609,366.212609 655.832609,366.015109 654.942391,365.622174 C654.053261,365.22913 653.305435,364.676087 652.7,363.957609 C652.092391,363.241304 651.633696,362.390217 651.325,361.404348 C651.015217,360.417391 650.858696,359.332609 650.858696,358.147826 L650.858696,344.659783 L655.967391,344.659783 Z" id="Fill-22" fill="#000000"></path>
            <path d="M689.722826,349.15 C689.571739,349.341304 689.425,349.493478 689.278261,349.602174 C689.133696,349.715217 688.925,349.769565 688.646739,349.769565 C688.38587,349.769565 688.131522,349.68913 687.881522,349.531522 C687.636957,349.372826 687.338043,349.192391 686.993478,348.993478 C686.647826,348.794565 686.23587,348.613043 685.76413,348.455435 C685.286957,348.297826 684.697826,348.216304 683.993478,348.216304 C683.097826,348.216304 682.311957,348.380435 681.634783,348.704348 C680.959783,349.029348 680.397826,349.493478 679.95,350.101087 C679.501087,350.706522 679.168478,351.441304 678.947826,352.303261 C678.726087,353.16413 678.617391,354.140217 678.617391,355.228261 C678.617391,356.36087 678.736957,357.366304 678.980435,358.25 C679.218478,359.132609 679.568478,359.872826 680.023913,360.470652 C680.478261,361.072826 681.029348,361.528261 681.676087,361.838043 C682.325,362.148913 683.056522,362.304348 683.868478,362.304348 C684.682609,362.304348 685.341304,362.203261 685.843478,362.003261 C686.346739,361.802174 686.773913,361.582609 687.118478,361.341304 C687.46413,361.098913 687.76087,360.879348 688.018478,360.679348 C688.272826,360.478261 688.558696,360.380435 688.873913,360.380435 C689.290217,360.380435 689.602174,360.53913 689.806522,360.856522 L691.276087,362.716304 C690.709783,363.378261 690.096739,363.934783 689.432609,364.383696 C688.770652,364.831522 688.084783,365.187065 687.376087,365.457826 C686.666304,365.726739 685.931522,365.914783 685.171739,366.027609 C684.416304,366.13663 683.661957,366.191196 682.917391,366.191196 C681.61087,366.191196 680.375,365.948587 679.215217,365.457826 C678.058696,364.967065 677.048913,364.254348 676.18587,363.318478 C675.326087,362.378261 674.642391,361.232609 674.140217,359.872826 C673.63587,358.51413 673.383696,356.966304 673.383696,355.228261 C673.383696,353.669565 673.607609,352.227174 674.055435,350.896739 C674.503261,349.565217 675.16087,348.41413 676.031522,347.442391 C676.902174,346.468478 677.973913,345.708696 679.259783,345.157609 C680.540217,344.604348 682.013043,344.330435 683.684783,344.330435 C685.271739,344.330435 686.659783,344.583696 687.853261,345.095652 C689.043478,345.605435 690.115217,346.336957 691.067391,347.288043 L689.722826,349.15 Z" id="Fill-23" fill="#000000"></path>
            <path d="M694.544565,365.881848 L694.544565,335.145652 L699.653261,335.145652 L699.653261,346.957609 C700.479348,346.171739 701.391304,345.53587 702.381522,345.053261 C703.376087,344.569565 704.540217,344.329348 705.877174,344.329348 C707.03587,344.329348 708.061957,344.526087 708.959783,344.919565 C709.856522,345.313043 710.604348,345.863043 711.202174,346.572826 C711.806522,347.283696 712.257609,348.132609 712.569565,349.116304 C712.878261,350.103261 713.03587,351.190217 713.03587,352.372826 L713.03587,365.881848 L707.927174,365.881848 L707.927174,352.372826 C707.927174,351.079348 707.626087,350.075 707.028261,349.366304 C706.425,348.655435 705.526087,348.3 704.328261,348.3 C703.442391,348.3 702.617391,348.5 701.845652,348.9 C701.071739,349.301087 700.340217,349.844565 699.653261,350.534783 L699.653261,365.881848 L694.544565,365.881848 Z" id="Fill-24" fill="#000000"></path>
            <path d="M730.656522,348.796739 C730.517391,349.017391 730.375,349.170652 730.223913,349.263043 C730.068478,349.351087 729.878261,349.394565 729.643478,349.394565 C729.396739,349.394565 729.128261,349.327174 728.845652,349.190217 C728.56413,349.052174 728.236957,348.896739 727.866304,348.723913 C727.490217,348.551087 727.069565,348.396739 726.591304,348.258696 C726.117391,348.121739 725.555435,348.052174 724.904348,348.052174 C723.898913,348.052174 723.105435,348.266304 722.530435,348.693478 C721.948913,349.120652 721.659783,349.678261 721.659783,350.368478 C721.659783,350.823913 721.806522,351.205435 722.103261,351.516304 C722.4,351.826087 722.793478,352.098913 723.282609,352.333696 C723.770652,352.568478 724.329348,352.777174 724.95,352.965217 C725.570652,353.15 726.202174,353.354348 726.853261,353.575 C727.497826,353.794565 728.133696,354.046739 728.754348,354.329348 C729.375,354.613043 729.929348,354.970652 730.418478,355.406522 C730.91087,355.840217 731.303261,356.359783 731.596739,356.967391 C731.894565,357.573913 732.041304,358.305435 732.041304,359.159783 C732.041304,360.180435 731.858696,361.122826 731.482609,361.981522 C731.111957,362.844565 730.568478,363.590217 729.847826,364.216304 C729.131522,364.843478 728.247826,365.334674 727.193478,365.684348 C726.136957,366.035978 724.927174,366.212826 723.561957,366.212826 C722.830435,366.212826 722.118478,366.146957 721.420652,366.015326 C720.727174,365.885543 720.057609,365.701304 719.41413,365.466304 C718.772826,365.233152 718.180435,364.958587 717.636957,364.641304 C717.090217,364.325 716.611957,363.979348 716.198913,363.606522 L717.376087,361.661957 C717.531522,361.427174 717.706522,361.248913 717.917391,361.126087 C718.122826,361 718.383696,360.938043 718.703261,360.938043 C719.019565,360.938043 719.320652,361.028261 719.602174,361.207609 C719.884783,361.38587 720.211957,361.579348 720.583696,361.786957 C720.957609,361.993478 721.394565,362.186957 721.897826,362.365217 C722.4,362.545652 723.03913,362.634783 723.81087,362.634783 C724.417391,362.634783 724.93913,362.56087 725.370652,362.418478 C725.805435,362.271739 726.165217,362.083696 726.448913,361.848913 C726.730435,361.613043 726.93587,361.342391 727.069565,361.030435 C727.201087,360.721739 727.263043,360.401087 727.263043,360.069565 C727.263043,359.571739 727.116304,359.167391 726.819565,358.848913 C726.526087,358.533696 726.132609,358.256522 725.640217,358.021739 C725.151087,357.786957 724.592391,357.578261 723.965217,357.390217 C723.336957,357.205435 722.698913,357.001087 722.041304,356.780435 C721.386957,356.56087 720.745652,356.301087 720.119565,356.006522 C719.491304,355.708696 718.934783,355.334783 718.442391,354.878261 C717.953261,354.422826 717.559783,353.86413 717.263043,353.202174 C716.969565,352.53913 716.819565,351.741304 716.819565,350.801087 C716.819565,349.934783 716.990217,349.107609 717.33587,348.320652 C717.682609,347.534783 718.188043,346.851087 718.857609,346.261957 C719.525,345.677174 720.357609,345.208696 721.358696,344.855435 C722.36087,344.504348 723.513043,344.329348 724.823913,344.329348 C726.286957,344.329348 727.616304,344.569565 728.816304,345.053261 C730.01413,345.53587 731.016304,346.171739 731.813043,346.956522 L730.656522,348.796739 Z" id="Fill-25" fill="#000000"></path>
            <path d="M760.081522,354.845652 C760.279348,355.322826 760.478261,355.801087 760.670652,356.28587 C760.86413,355.788043 761.06087,355.296739 761.271739,354.815217 C761.477174,354.333696 761.696739,353.871739 761.931522,353.429348 L770.782609,336.861957 C770.893478,336.655435 771.008696,336.48913 771.125,336.365217 C771.243478,336.23913 771.375,336.153261 771.518478,336.096739 C771.66413,336.042391 771.826087,336.006522 772.006522,335.994565 C772.183696,335.980435 772.4,335.972826 772.646739,335.972826 L776.843478,335.972826 L776.843478,365.881413 L771.961957,365.881413 L771.961957,346.56413 C771.961957,346.203261 771.972826,345.81087 771.995652,345.38587 C772.01413,344.955435 772.046739,344.522826 772.088043,344.080435 L763.030435,361.041304 C762.825,361.427174 762.556522,361.728261 762.223913,361.940217 C761.892391,362.154348 761.506522,362.261957 761.06087,362.261957 L760.297826,362.261957 C759.854348,362.261957 759.468478,362.154348 759.138043,361.940217 C758.806522,361.728261 758.53587,361.427174 758.329348,361.041304 L749.148913,344.018478 C749.203261,344.473913 749.243478,344.919565 749.261957,345.352174 C749.284783,345.788043 749.295652,346.188043 749.295652,346.56413 L749.295652,365.881413 L744.41413,365.881413 L744.41413,335.972826 L748.611957,335.972826 C748.857609,335.972826 749.073913,335.980435 749.251087,335.994565 C749.431522,336.006522 749.593478,336.042391 749.740217,336.096739 C749.882609,336.153261 750.018478,336.23913 750.143478,336.365217 C750.26413,336.48913 750.382609,336.655435 750.491304,336.861957 L759.427174,353.472826 C759.661957,353.913043 759.880435,354.371739 760.081522,354.845652" id="Fill-26" fill="#000000"></path>
            <path d="M791.467391,347.98913 C789.976087,347.98913 788.811957,348.411957 787.971739,349.252174 C787.129348,350.093478 786.590217,351.286957 786.358696,352.829348 L795.955435,352.829348 C795.955435,352.169565 795.86413,351.544565 795.686957,350.958696 C795.506522,350.373913 795.231522,349.858696 794.857609,349.418478 C794.48587,348.976087 794.015217,348.628261 793.451087,348.372826 C792.884783,348.117391 792.223913,347.98913 791.467391,347.98913 M791.36413,344.330435 C792.701087,344.330435 793.932609,344.544565 795.055435,344.970652 C796.179348,345.397826 797.147826,346.021739 797.96087,346.843478 C798.776087,347.661957 799.408696,348.667391 799.863043,349.861957 C800.318478,351.055435 800.545652,352.415217 800.545652,353.945652 C800.545652,354.333696 800.527174,354.655435 800.494565,354.908696 C800.46087,355.16413 800.398913,355.36413 800.306522,355.508696 C800.218478,355.653261 800.097826,355.756522 799.947826,355.818478 C799.797826,355.880435 799.602174,355.913043 799.367391,355.913043 L786.256522,355.913043 C786.407609,358.092391 786.990217,359.690217 788.01087,360.711957 C789.032609,361.732609 790.384783,362.242391 792.065217,362.242391 C792.892391,362.242391 793.608696,362.144565 794.207609,361.952174 C794.805435,361.758696 795.331522,361.544565 795.779348,361.309783 C796.227174,361.076087 796.619565,360.861957 796.957609,360.670652 C797.296739,360.476087 797.621739,360.380435 797.941304,360.380435 C798.148913,360.380435 798.327174,360.420652 798.479348,360.504348 C798.629348,360.58587 798.76087,360.704348 798.872826,360.856522 L800.361957,362.716304 C799.797826,363.379348 799.161957,363.934783 798.456522,364.383696 C797.755435,364.831522 797.020652,365.186848 796.256522,365.457609 C795.48913,365.72837 794.71087,365.914565 793.917391,366.027391 C793.123913,366.136413 792.356522,366.192826 791.61087,366.192826 C790.134783,366.192826 788.763043,365.94837 787.494565,365.457609 C786.227174,364.966848 785.125,364.244565 784.184783,363.28587 C783.248913,362.327174 782.509783,361.142391 781.973913,359.728261 C781.433696,358.316304 781.165217,356.678261 781.165217,354.816304 C781.165217,353.368478 781.4,352.007609 781.870652,350.730435 C782.338043,349.454348 783.009783,348.344565 783.888043,347.4 C784.761957,346.458696 785.830435,345.708696 787.093478,345.157609 C788.353261,344.604348 789.779348,344.330435 791.36413,344.330435" id="Fill-27" fill="#000000"></path>
            <path d="M812.834783,362.138043 C813.894565,362.138043 814.8,361.917391 815.540217,361.476087 C816.286957,361.033696 816.992391,360.407609 817.654348,359.593478 L817.654348,350.079348 C817.072826,349.377174 816.441304,348.879348 815.758696,348.591304 C815.078261,348.302174 814.344565,348.155435 813.558696,348.155435 C812.783696,348.155435 812.08587,348.302174 811.457609,348.591304 C810.830435,348.879348 810.3,349.319565 809.86413,349.902174 C809.429348,350.490217 809.096739,351.23587 808.86087,352.138043 C808.626087,353.040217 808.507609,354.106522 808.507609,355.334783 C808.507609,356.573913 808.61087,357.627174 808.808696,358.488043 C809.011957,359.348913 809.293478,360.054348 809.668478,360.597826 C810.040217,361.143478 810.495652,361.53587 811.034783,361.777174 C811.570652,362.019565 812.168478,362.138043 812.834783,362.138043 L812.834783,362.138043 Z M819.63587,365.881413 C818.976087,365.881413 818.541304,365.571196 818.336957,364.950652 L817.920652,362.903261 C817.480435,363.398913 817.018478,363.846739 816.536957,364.247826 C816.052174,364.647826 815.534783,364.993913 814.972826,365.283478 C814.41413,365.571196 813.81413,365.795 813.172826,365.954783 C812.533696,366.112717 811.840217,366.191739 811.093478,366.191739 C809.936957,366.191739 808.876087,365.950978 807.909783,365.467826 C806.943478,364.986413 806.11413,364.286957 805.416304,363.369565 C804.722826,362.452174 804.181522,361.316304 803.803261,359.966304 C803.425,358.61413 803.23587,357.071739 803.23587,355.334783 C803.23587,353.763043 803.447826,352.301087 803.876087,350.95 C804.303261,349.597826 804.916304,348.423913 805.717391,347.431522 C806.518478,346.438043 807.475,345.66413 808.592391,345.105435 C809.709783,344.546739 810.965217,344.266304 812.356522,344.266304 C813.543478,344.266304 814.556522,344.456522 815.397826,344.836957 C816.240217,345.216304 816.992391,345.723913 817.654348,346.355435 L817.654348,335.146739 L822.76087,335.146739 L822.76087,365.881413 L819.63587,365.881413 Z" id="Fill-28" fill="#000000"></path>
            <path d="M833.723913,365.881848 L828.615217,365.881848 L828.615217,344.659783 L833.723913,344.659783 L833.723913,365.881848 Z M834.486957,338.476087 C834.486957,338.917391 834.401087,339.331522 834.220652,339.716304 C834.040217,340.104348 833.801087,340.442391 833.507609,340.730435 C833.21087,341.017391 832.86087,341.248913 832.459783,341.421739 C832.059783,341.595652 831.634783,341.681522 831.179348,341.681522 C830.738043,341.681522 830.320652,341.595652 829.927174,341.421739 C829.534783,341.248913 829.192391,341.017391 828.906522,340.730435 C828.615217,340.442391 828.383696,340.104348 828.21087,339.716304 C828.03913,339.331522 827.955435,338.917391 827.955435,338.476087 C827.955435,338.022826 828.03913,337.591304 828.21087,337.193478 C828.383696,336.792391 828.615217,336.45 828.906522,336.158696 C829.192391,335.869565 829.534783,335.638043 829.927174,335.465217 C830.320652,335.292391 830.738043,335.207609 831.179348,335.207609 C831.634783,335.207609 832.059783,335.292391 832.459783,335.465217 C832.86087,335.638043 833.21087,335.869565 833.507609,336.158696 C833.801087,336.45 834.040217,336.792391 834.220652,337.193478 C834.401087,337.591304 834.486957,338.022826 834.486957,338.476087 L834.486957,338.476087 Z" id="Fill-29" fill="#000000"></path>
            <path d="M848.366304,347.98913 C846.879348,347.98913 845.711957,348.411957 844.870652,349.252174 C844.028261,350.093478 843.492391,351.286957 843.257609,352.829348 L852.855435,352.829348 C852.855435,352.169565 852.766304,351.544565 852.58587,350.958696 C852.405435,350.373913 852.131522,349.858696 851.76087,349.418478 C851.388043,348.976087 850.918478,348.628261 850.354348,348.372826 C849.788043,348.117391 849.126087,347.98913 848.366304,347.98913 M848.263043,344.330435 C849.6,344.330435 850.831522,344.544565 851.954348,344.970652 C853.078261,345.397826 854.046739,346.021739 854.863043,346.843478 C855.675,347.661957 856.31087,348.667391 856.766304,349.861957 C857.220652,351.055435 857.448913,352.415217 857.448913,353.945652 C857.448913,354.333696 857.430435,354.655435 857.397826,354.908696 C857.359783,355.16413 857.297826,355.36413 857.209783,355.508696 C857.121739,355.653261 857.001087,355.756522 856.846739,355.818478 C856.696739,355.880435 856.504348,355.913043 856.269565,355.913043 L843.156522,355.913043 C843.306522,358.092391 843.893478,359.690217 844.91413,360.711957 C845.934783,361.732609 847.286957,362.242391 848.968478,362.242391 C849.795652,362.242391 850.508696,362.144565 851.109783,361.952174 C851.707609,361.758696 852.234783,361.544565 852.681522,361.309783 C853.129348,361.076087 853.522826,360.861957 853.86087,360.670652 C854.198913,360.476087 854.525,360.380435 854.840217,360.380435 C855.047826,360.380435 855.226087,360.420652 855.380435,360.504348 C855.532609,360.58587 855.66087,360.704348 855.772826,360.856522 L857.26087,362.716304 C856.696739,363.379348 856.06087,363.934783 855.359783,364.383696 C854.654348,364.831522 853.919565,365.186848 853.155435,365.457609 C852.392391,365.72837 851.61413,365.914565 850.820652,366.027391 C850.027174,366.136413 849.255435,366.192826 848.513043,366.192826 C847.036957,366.192826 845.663043,365.94837 844.396739,365.457609 C843.126087,364.966848 842.023913,364.244565 841.088043,363.28587 C840.147826,362.327174 839.411957,361.142391 838.872826,359.728261 C838.336957,358.316304 838.067391,356.678261 838.067391,354.816304 C838.067391,353.368478 838.298913,352.007609 838.769565,350.730435 C839.23913,349.454348 839.911957,348.344565 840.786957,347.4 C841.665217,346.458696 842.732609,345.708696 843.992391,345.157609 C845.256522,344.604348 846.678261,344.330435 848.263043,344.330435" id="Fill-30" fill="#000000"></path>
            <path d="M861.606522,365.881848 L861.606522,344.659783 L864.728261,344.659783 C865.38913,344.659783 865.826087,344.970652 866.032609,345.591304 L866.384783,347.266304 C866.81087,346.823913 867.261957,346.423913 867.740217,346.066304 C868.21413,345.707609 868.716304,345.396739 869.247826,345.13587 C869.778261,344.875 870.346739,344.672826 870.953261,344.53587 C871.563043,344.396739 872.222826,344.329348 872.93913,344.329348 C874.097826,344.329348 875.123913,344.526087 876.020652,344.919565 C876.918478,345.313043 877.666304,345.863043 878.26413,346.572826 C878.868478,347.283696 879.319565,348.132609 879.631522,349.116304 C879.940217,350.103261 880.097826,351.190217 880.097826,352.372826 L880.097826,365.881848 L874.98913,365.881848 L874.98913,352.372826 C874.98913,351.079348 874.688043,350.075 874.090217,349.366304 C873.486957,348.655435 872.588043,348.3 871.390217,348.3 C870.504348,348.3 869.678261,348.5 868.907609,348.9 C868.132609,349.301087 867.401087,349.844565 866.715217,350.534783 L866.715217,365.881848 L861.606522,365.881848 Z" id="Fill-31" fill="#000000"></path>
            <path d="M893.253261,362.138043 C894.313043,362.138043 895.217391,361.917391 895.958696,361.476087 C896.705435,361.033696 897.409783,360.407609 898.071739,359.593478 L898.071739,350.079348 C897.491304,349.377174 896.859783,348.879348 896.177174,348.591304 C895.495652,348.302174 894.763043,348.155435 893.977174,348.155435 C893.202174,348.155435 892.504348,348.302174 891.876087,348.591304 C891.247826,348.879348 890.718478,349.319565 890.281522,349.902174 C889.847826,350.490217 889.51413,351.23587 889.279348,352.138043 C889.044565,353.040217 888.926087,354.106522 888.926087,355.334783 C888.926087,356.573913 889.029348,357.627174 889.227174,358.488043 C889.430435,359.348913 889.711957,360.054348 890.08587,360.597826 C890.458696,361.143478 890.91413,361.53587 891.453261,361.777174 C891.98913,362.019565 892.586957,362.138043 893.253261,362.138043 L893.253261,362.138043 Z M900.054348,365.881413 C899.394565,365.881413 898.959783,365.571196 898.754348,364.950652 L898.33913,362.903261 C897.898913,363.398913 897.436957,363.846739 896.955435,364.247826 C896.469565,364.647826 895.953261,364.993913 895.391304,365.283478 C894.832609,365.571196 894.232609,365.795 893.591304,365.954783 C892.952174,366.112717 892.257609,366.191739 891.511957,366.191739 C890.355435,366.191739 889.294565,365.950978 888.328261,365.467826 C887.361957,364.986413 886.532609,364.286957 885.834783,363.369565 C885.141304,362.452174 884.598913,361.316304 884.221739,359.966304 C883.843478,358.61413 883.653261,357.071739 883.653261,355.334783 C883.653261,353.763043 883.866304,352.301087 884.294565,350.95 C884.721739,349.597826 885.334783,348.423913 886.13587,347.431522 C886.936957,346.438043 887.893478,345.66413 889.01087,345.105435 C890.127174,344.546739 891.383696,344.266304 892.775,344.266304 C893.961957,344.266304 894.975,344.456522 895.815217,344.836957 C896.657609,345.216304 897.409783,345.723913 898.071739,346.355435 L898.071739,335.146739 L903.179348,335.146739 L903.179348,365.881413 L900.054348,365.881413 Z" id="Fill-32" fill="#000000"></path>
            <path d="M917.576087,347.98913 C916.084783,347.98913 914.921739,348.411957 914.080435,349.252174 C913.238043,350.093478 912.698913,351.286957 912.467391,352.829348 L922.065217,352.829348 C922.065217,352.169565 921.972826,351.544565 921.795652,350.958696 C921.615217,350.373913 921.341304,349.858696 920.966304,349.418478 C920.594565,348.976087 920.123913,348.628261 919.559783,348.372826 C918.994565,348.117391 918.332609,347.98913 917.576087,347.98913 M917.472826,344.330435 C918.809783,344.330435 920.041304,344.544565 921.16413,344.970652 C922.288043,345.397826 923.256522,346.021739 924.069565,346.843478 C924.884783,347.661957 925.517391,348.667391 925.971739,349.861957 C926.427174,351.055435 926.654348,352.415217 926.654348,353.945652 C926.654348,354.333696 926.63587,354.655435 926.604348,354.908696 C926.570652,355.16413 926.507609,355.36413 926.416304,355.508696 C926.327174,355.653261 926.207609,355.756522 926.056522,355.818478 C925.906522,355.880435 925.71087,355.913043 925.476087,355.913043 L912.366304,355.913043 C912.516304,358.092391 913.098913,359.690217 914.120652,360.711957 C915.141304,361.732609 916.493478,362.242391 918.173913,362.242391 C919.002174,362.242391 919.718478,362.144565 920.316304,361.952174 C920.91413,361.758696 921.440217,361.544565 921.888043,361.309783 C922.33587,361.076087 922.728261,360.861957 923.067391,360.670652 C923.405435,360.476087 923.730435,360.380435 924.05,360.380435 C924.257609,360.380435 924.43587,360.420652 924.588043,360.504348 C924.73913,360.58587 924.870652,360.704348 924.981522,360.856522 L926.470652,362.716304 C925.906522,363.379348 925.270652,363.934783 924.565217,364.383696 C923.86413,364.831522 923.129348,365.186848 922.365217,365.457609 C921.598913,365.72837 920.819565,365.914565 920.026087,366.027391 C919.232609,366.136413 918.466304,366.192826 917.719565,366.192826 C916.243478,366.192826 914.872826,365.94837 913.603261,365.457609 C912.33587,364.966848 911.233696,364.244565 910.293478,363.28587 C909.357609,362.327174 908.618478,361.142391 908.082609,359.728261 C907.542391,358.316304 907.273913,356.678261 907.273913,354.816304 C907.273913,353.368478 907.508696,352.007609 907.979348,350.730435 C908.446739,349.454348 909.118478,348.344565 909.996739,347.4 C910.870652,346.458696 911.93913,345.708696 913.202174,345.157609 C914.461957,344.604348 915.888043,344.330435 917.472826,344.330435" id="Fill-33" fill="#000000"></path>
            <path d="M943.409783,348.796739 C943.270652,349.017391 943.127174,349.170652 942.977174,349.263043 C942.820652,349.351087 942.630435,349.394565 942.395652,349.394565 C942.148913,349.394565 941.880435,349.327174 941.598913,349.190217 C941.316304,349.052174 940.98913,348.896739 940.618478,348.723913 C940.242391,348.551087 939.821739,348.396739 939.343478,348.258696 C938.869565,348.121739 938.307609,348.052174 937.657609,348.052174 C936.651087,348.052174 935.857609,348.266304 935.282609,348.693478 C934.701087,349.120652 934.411957,349.678261 934.411957,350.368478 C934.411957,350.823913 934.558696,351.205435 934.855435,351.516304 C935.152174,351.826087 935.545652,352.098913 936.034783,352.333696 C936.523913,352.568478 937.081522,352.777174 937.702174,352.965217 C938.322826,353.15 938.954348,353.354348 939.605435,353.575 C940.25,353.794565 940.88587,354.046739 941.506522,354.329348 C942.127174,354.613043 942.681522,354.970652 943.170652,355.406522 C943.663043,355.840217 944.056522,356.359783 944.35,356.967391 C944.646739,357.573913 944.793478,358.305435 944.793478,359.159783 C944.793478,360.180435 944.61087,361.122826 944.234783,361.981522 C943.86413,362.844565 943.320652,363.590217 942.601087,364.216304 C941.884783,364.843478 941.001087,365.334674 939.945652,365.684348 C938.88913,366.035978 937.679348,366.212826 936.315217,366.212826 C935.583696,366.212826 934.870652,366.146957 934.172826,366.015326 C933.479348,365.885543 932.809783,365.701304 932.166304,365.466304 C931.525,365.233152 930.932609,364.958587 930.390217,364.641304 C929.842391,364.325 929.365217,363.979348 928.951087,363.606522 L930.128261,361.661957 C930.284783,361.427174 930.459783,361.248913 930.669565,361.126087 C930.875,361 931.13587,360.938043 931.455435,360.938043 C931.771739,360.938043 932.072826,361.028261 932.354348,361.207609 C932.636957,361.38587 932.96413,361.579348 933.33587,361.786957 C933.71087,361.993478 934.146739,362.186957 934.651087,362.365217 C935.152174,362.545652 935.792391,362.634783 936.563043,362.634783 C937.170652,362.634783 937.691304,362.56087 938.123913,362.418478 C938.557609,362.271739 938.917391,362.083696 939.201087,361.848913 C939.482609,361.613043 939.688043,361.342391 939.821739,361.030435 C939.953261,360.721739 940.015217,360.401087 940.015217,360.069565 C940.015217,359.571739 939.868478,359.167391 939.571739,358.848913 C939.278261,358.533696 938.884783,358.256522 938.392391,358.021739 C937.903261,357.786957 937.345652,357.578261 936.717391,357.390217 C936.08913,357.205435 935.451087,357.001087 934.793478,356.780435 C934.13913,356.56087 933.497826,356.301087 932.871739,356.006522 C932.243478,355.708696 931.686957,355.334783 931.194565,354.878261 C930.705435,354.422826 930.313043,353.86413 930.015217,353.202174 C929.721739,352.53913 929.571739,351.741304 929.571739,350.801087 C929.571739,349.934783 929.742391,349.107609 930.08913,348.320652 C930.434783,347.534783 930.940217,346.851087 931.609783,346.261957 C932.277174,345.677174 933.11087,345.208696 934.11087,344.855435 C935.113043,344.504348 936.266304,344.329348 937.576087,344.329348 C939.03913,344.329348 940.368478,344.569565 941.568478,345.053261 C942.766304,345.53587 943.768478,346.171739 944.565217,346.956522 L943.409783,348.796739 Z" id="Fill-34" fill="#000000"></path>
            <path d="M954.328261,365.881848 L949.219565,365.881848 L949.219565,344.659783 L954.328261,344.659783 L954.328261,365.881848 Z M955.095652,338.476087 C955.095652,338.917391 955.003261,339.331522 954.826087,339.716304 C954.647826,340.104348 954.408696,340.442391 954.111957,340.730435 C953.813043,341.017391 953.468478,341.248913 953.068478,341.421739 C952.667391,341.595652 952.241304,341.681522 951.78587,341.681522 C951.342391,341.681522 950.926087,341.595652 950.533696,341.421739 C950.140217,341.248913 949.8,341.017391 949.508696,340.730435 C949.219565,340.442391 948.988043,340.104348 948.815217,339.716304 C948.642391,339.331522 948.557609,338.917391 948.557609,338.476087 C948.557609,338.022826 948.642391,337.591304 948.815217,337.193478 C948.988043,336.792391 949.219565,336.45 949.508696,336.158696 C949.8,335.869565 950.140217,335.638043 950.533696,335.465217 C950.926087,335.292391 951.342391,335.207609 951.78587,335.207609 C952.241304,335.207609 952.667391,335.292391 953.068478,335.465217 C953.468478,335.638043 953.813043,335.869565 954.111957,336.158696 C954.408696,336.45 954.647826,336.792391 954.826087,337.193478 C955.003261,337.591304 955.095652,338.022826 955.095652,338.476087 L955.095652,338.476087 Z" id="Fill-35" fill="#000000"></path>
            <path d="M967.442391,354.754348 C968.078261,354.754348 968.629348,354.667391 969.098913,354.494565 C969.565217,354.322826 969.954348,354.08587 970.266304,353.779348 C970.575,353.479348 970.809783,353.111957 970.968478,352.68587 C971.126087,352.258696 971.206522,351.790217 971.206522,351.279348 C971.206522,350.231522 970.894565,349.398913 970.266304,348.78587 C969.63913,348.172826 968.698913,347.866304 967.442391,347.866304 C966.186957,347.866304 965.246739,348.172826 964.618478,348.78587 C963.990217,349.398913 963.678261,350.231522 963.678261,351.279348 C963.678261,351.775 963.758696,352.238043 963.917391,352.665217 C964.075,353.091304 964.309783,353.459783 964.618478,353.772826 C964.930435,354.082609 965.322826,354.322826 965.796739,354.494565 C966.275,354.667391 966.821739,354.754348 967.442391,354.754348 M973.045652,366.833261 C973.045652,366.419565 972.926087,366.081196 972.676087,365.819783 C972.425,365.55837 972.08913,365.355326 971.661957,365.210543 C971.236957,365.063913 970.733696,364.958587 970.163043,364.89087 C969.591304,364.821739 968.984783,364.768478 968.343478,364.734783 C967.7,364.698913 967.038043,364.665217 966.355435,364.629348 C965.672826,364.595652 965.015217,364.536957 964.379348,364.454348 C963.802174,364.772826 963.33587,365.14663 962.983696,365.580978 C962.634783,366.015326 962.459783,366.517391 962.459783,367.08337 C962.459783,367.453804 962.55,367.80163 962.738043,368.125109 C962.921739,368.448478 963.219565,368.728696 963.627174,368.963696 C964.033696,369.198804 964.559783,369.381196 965.208696,369.512826 C965.855435,369.6425 966.648913,369.70837 967.58587,369.70837 C968.540217,369.70837 969.36087,369.635 970.051087,369.492174 C970.736957,369.345435 971.306522,369.146087 971.754348,368.892283 C972.202174,368.636522 972.532609,368.333804 972.738043,367.982174 C972.944565,367.630543 973.045652,367.248804 973.045652,366.833261 M967.442391,344.288043 C968.352174,344.288043 969.208696,344.380435 970.005435,344.566304 C970.806522,344.754348 971.538043,345.025 972.197826,345.38587 L978.301087,345.38587 L978.301087,347.286957 C978.301087,347.603261 978.217391,347.853261 978.053261,348.031522 C977.888043,348.211957 977.604348,348.334783 977.203261,348.404348 L975.302174,348.757609 C975.441304,349.115217 975.548913,349.492391 975.621739,349.893478 C975.698913,350.293478 975.734783,350.715217 975.734783,351.154348 C975.734783,352.204348 975.526087,353.15 975.106522,354 C974.68587,354.845652 974.104348,355.568478 973.369565,356.16087 C972.632609,356.752174 971.754348,357.211957 970.740217,357.534783 C969.727174,357.859783 968.629348,358.021739 967.442391,358.021739 C966.641304,358.021739 965.863043,357.944565 965.107609,357.794565 C964.441304,358.194565 964.111957,358.642391 964.111957,359.13913 C964.111957,359.567391 964.309783,359.881522 964.703261,360.079348 C965.095652,360.280435 965.613043,360.421739 966.252174,360.505435 C966.895652,360.586957 967.622826,360.638043 968.433696,360.659783 C969.25,360.679348 970.082609,360.726087 970.938043,360.793478 C971.793478,360.86087 972.628261,360.983696 973.43913,361.154348 C974.255435,361.327174 974.982609,361.6 975.621739,361.972826 C976.263043,362.344565 976.782609,362.852174 977.175,363.492391 C977.568478,364.132609 977.761957,364.958587 977.761957,365.964565 C977.761957,366.902826 977.530435,367.811087 977.071739,368.694891 C976.609783,369.576739 975.941304,370.362717 975.06413,371.052826 C974.18913,371.742935 973.117391,372.297609 971.85,372.718804 C970.579348,373.138152 969.131522,373.348696 967.504348,373.348696 C965.893478,373.348696 964.494565,373.194565 963.307609,372.884239 C962.120652,372.574022 961.13587,372.158478 960.357609,371.641413 C959.579348,371.126196 958.995652,370.528152 958.61087,369.851304 C958.225,369.176196 958.029348,368.474891 958.029348,367.74337 C958.029348,366.750543 958.333696,365.915652 958.941304,365.240652 C959.546739,364.565217 960.391304,364.028261 961.463043,363.627174 C960.942391,363.33587 960.519565,362.95 960.203261,362.470652 C959.883696,361.98587 959.725,361.359783 959.725,360.586957 C959.725,360.270652 959.781522,359.943478 959.891304,359.605435 C960.002174,359.266304 960.170652,358.933696 960.398913,358.601087 C960.626087,358.270652 960.911957,357.956522 961.257609,357.658696 C961.604348,357.36413 962.009783,357.096739 962.476087,356.86413 C961.401087,356.284783 960.556522,355.511957 959.943478,354.548913 C959.330435,353.582609 959.023913,352.45 959.023913,351.154348 C959.023913,350.107609 959.234783,349.157609 959.655435,348.309783 C960.075,347.46413 960.66413,346.738043 961.411957,346.138043 C962.16413,345.540217 963.053261,345.079348 964.082609,344.763043 C965.107609,344.447826 966.229348,344.288043 967.442391,344.288043" id="Fill-36" fill="#000000"></path>
            <path d="M981.508696,365.881848 L981.508696,344.659783 L984.630435,344.659783 C985.291304,344.659783 985.728261,344.970652 985.934783,345.591304 L986.286957,347.266304 C986.713043,346.823913 987.16413,346.423913 987.642391,346.066304 C988.116304,345.707609 988.618478,345.396739 989.15,345.13587 C989.680435,344.875 990.248913,344.672826 990.855435,344.53587 C991.465217,344.396739 992.125,344.329348 992.841304,344.329348 C994,344.329348 995.026087,344.526087 995.923913,344.919565 C996.820652,345.313043 997.568478,345.863043 998.166304,346.572826 C998.770652,347.283696 999.221739,348.132609 999.533696,349.116304 C999.842391,350.103261 1000,351.190217 1000,352.372826 L1000,365.881848 L994.891304,365.881848 L994.891304,352.372826 C994.891304,351.079348 994.590217,350.075 993.992391,349.366304 C993.38913,348.655435 992.490217,348.3 991.292391,348.3 C990.406522,348.3 989.580435,348.5 988.809783,348.9 C988.034783,349.301087 987.304348,349.844565 986.617391,350.534783 L986.617391,365.881848 L981.508696,365.881848 Z" id="Fill-37" fill="#000000"></path>
        </g>
    </g>
</svg>