<?xml version="1.0" encoding="UTF-8" standalone="no"?>
<svg width="30px" height="30px" viewBox="0 0 30 30" version="1.1" xmlns="http://www.w3.org/2000/svg" xmlns:xlink="http://www.w3.org/1999/xlink">
    <!-- Generator: Sketch 3.6.1 (26313) - http://www.bohemiancoding.com/sketch -->
    <title>calendar</title>
    <desc>Created with Sketch.</desc>
    <defs></defs>
    <g id="Page-1" stroke="none" stroke-width="1" fill="none" fill-rule="evenodd">
        <g id="calendar" fill="#434343">
            <path d="M27,30 L3,30 C1.346,30 0,28.654 0,27 L0,5 C0,3.346 1.122,2 2.5,2 L4,2 L4,4 L2.5,4 C2.328,4 2,4.39 2,5 L2,27 C2,27.551 2.449,28 3,28 L27,28 C27.551,28 28,27.551 28,27 L28,5 C28,4.39 27.672,4 27.5,4 L26,4 L26,2 L27.5,2 C28.878,2 30,3.346 30,5 L30,27 C30,28.654 28.654,30 27,30" id="Fill-133"></path>
            <path d="M7,6 C6.448,6 6,5.552 6,5 L6,1 C6,0.448 6.448,0 7,0 C7.552,0 8,0.448 8,1 L8,5 C8,5.552 7.552,6 7,6" id="Fill-134"></path>
            <path d="M23,6 C22.448,6 22,5.552 22,5 L22,1 C22,0.448 22.448,0 23,0 C23.552,0 24,0.448 24,1 L24,5 C24,5.552 23.552,6 23,6" id="Fill-135"></path>
            <path d="M10,2 L20,2 L20,4 L10,4 L10,2 Z" id="Fill-136"></path>
            <path d="M2,8 L28,8 L28,10 L2,10 L2,8 Z" id="Fill-137"></path>
            <path d="M24,12 L26,12 L26,14 L24,14 L24,12 Z" id="Fill-138"></path>
            <path d="M20,12 L22,12 L22,14 L20,14 L20,12 Z" id="Fill-139"></path>
            <path d="M16,12 L18,12 L18,14 L16,14 L16,12 Z" id="Fill-140"></path>
            <path d="M12,12 L14,12 L14,14 L12,14 L12,12 Z" id="Fill-141"></path>
            <path d="M8,12 L10,12 L10,14 L8,14 L8,12 Z" id="Fill-142"></path>
            <path d="M24,16 L26,16 L26,18 L24,18 L24,16 Z" id="Fill-143"></path>
            <path d="M20,16 L22,16 L22,18 L20,18 L20,16 Z" id="Fill-144"></path>
            <path d="M16,16 L18,16 L18,18 L16,18 L16,16 Z" id="Fill-145"></path>
            <path d="M12,16 L14,16 L14,18 L12,18 L12,16 Z" id="Fill-146"></path>
            <path d="M8,16 L10,16 L10,18 L8,18 L8,16 Z" id="Fill-147"></path>
            <path d="M4,16 L6,16 L6,18 L4,18 L4,16 Z" id="Fill-148"></path>
            <path d="M24,20 L26,20 L26,22 L24,22 L24,20 Z" id="Fill-149"></path>
            <path d="M20,20 L22,20 L22,22 L20,22 L20,20 Z" id="Fill-150"></path>
            <path d="M16,20 L18,20 L18,22 L16,22 L16,20 Z" id="Fill-151"></path>
            <path d="M12,20 L14,20 L14,22 L12,22 L12,20 Z" id="Fill-152"></path>
            <path d="M8,20 L10,20 L10,22 L8,22 L8,20 Z" id="Fill-153"></path>
            <path d="M4,20 L6,20 L6,22 L4,22 L4,20 Z" id="Fill-154"></path>
            <path d="M20,24 L22,24 L22,26 L20,26 L20,24 Z" id="Fill-155"></path>
            <path d="M16,24 L18,24 L18,26 L16,26 L16,24 Z" id="Fill-156"></path>
            <path d="M12,24 L14,24 L14,26 L12,26 L12,24 Z" id="Fill-157"></path>
            <path d="M8,24 L10,24 L10,26 L8,26 L8,24 Z" id="Fill-158"></path>
            <path d="M4,24 L6,24 L6,26 L4,26 L4,24 Z" id="Fill-159"></path>
        </g>
    </g>
</svg>