<?xml version="1.0" encoding="UTF-8" standalone="no"?><!DOCTYPE svg PUBLIC "-//W3C//DTD SVG 1.1//EN" "http://www.w3.org/Graphics/SVG/1.1/DTD/svg11.dtd"><svg width="100%" height="100%" viewBox="0 0 250 50" version="1.1" xmlns="http://www.w3.org/2000/svg" xmlns:xlink="http://www.w3.org/1999/xlink" xml:space="preserve" style="fill-rule:evenodd;clip-rule:evenodd;stroke-linejoin:round;stroke-miterlimit:1.41421;"><g id="Layer1"><g><path d="M52.425,4.537l0,2.797l-12.179,0l0,8.869l10.409,0l0,2.796l-10.409,0l0,10.904l-3.451,0l0,-25.366l15.63,0Z" style="fill:#1a1a1a;fill-rule:nonzero;"/><path d="M57.771,19.318l0,10.585l-3.417,0l0,-25.366l7.169,0c1.605,0 2.992,0.163 4.16,0.487c1.168,0.325 2.133,0.794 2.894,1.407c0.761,0.614 1.325,1.355 1.691,2.222c0.366,0.867 0.548,1.838 0.548,2.912c0,0.897 -0.141,1.735 -0.424,2.513c-0.284,0.779 -0.694,1.478 -1.231,2.098c-0.537,0.62 -1.192,1.148 -1.964,1.584c-0.773,0.437 -1.65,0.767 -2.629,0.992c0.425,0.247 0.802,0.607 1.133,1.079l7.399,10.072l-3.045,0c-0.625,0 -1.085,-0.242 -1.38,-0.725l-6.585,-9.063c-0.201,-0.284 -0.419,-0.487 -0.655,-0.611c-0.236,-0.124 -0.59,-0.186 -1.062,-0.186l-2.602,0Zm0,-2.496l3.593,0c1.003,0 1.885,-0.121 2.646,-0.363c0.761,-0.242 1.399,-0.584 1.912,-1.026c0.513,-0.443 0.9,-0.971 1.159,-1.585c0.26,-0.613 0.39,-1.292 0.39,-2.035c0,-1.511 -0.499,-2.65 -1.496,-3.417c-0.997,-0.767 -2.481,-1.15 -4.452,-1.15l-3.752,0l0,9.576Z" style="fill:#1a1a1a;fill-rule:nonzero;"/><path d="M95.545,29.903l-2.655,0c-0.307,0 -0.555,-0.076 -0.744,-0.23c-0.188,-0.153 -0.33,-0.348 -0.424,-0.584l-2.372,-6.125l-11.382,0l-2.372,6.125c-0.083,0.212 -0.224,0.401 -0.425,0.566c-0.201,0.166 -0.448,0.248 -0.744,0.248l-2.655,0l10.143,-25.366l3.487,0l10.143,25.366Zm-16.621,-9.417l9.47,0l-3.983,-10.32c-0.26,-0.637 -0.513,-1.433 -0.761,-2.389c-0.13,0.484 -0.257,0.929 -0.381,1.336c-0.124,0.407 -0.245,0.764 -0.363,1.071l-3.982,10.302Z" style="fill:#1a1a1a;fill-rule:nonzero;"/><path d="M98.041,4.537c0.307,0 0.534,0.039 0.681,0.116c0.148,0.076 0.316,0.233 0.505,0.469l14.692,19.117c-0.036,-0.307 -0.059,-0.605 -0.071,-0.894c-0.012,-0.289 -0.018,-0.569 -0.018,-0.841l0,-17.967l3.01,0l0,25.366l-1.735,0c-0.272,0 -0.499,-0.047 -0.682,-0.141c-0.183,-0.095 -0.363,-0.254 -0.54,-0.478l-14.674,-19.1c0.024,0.295 0.041,0.584 0.053,0.868c0.012,0.283 0.018,0.542 0.018,0.778l0,18.073l-3.009,0l0,-25.366l1.77,0Z" style="fill:#1a1a1a;fill-rule:nonzero;"/><path d="M122.557,15.654l1.292,0c0.449,0 0.806,-0.056 1.071,-0.168c0.266,-0.112 0.516,-0.304 0.752,-0.576l8.444,-9.558c0.26,-0.295 0.51,-0.505 0.752,-0.629c0.242,-0.124 0.552,-0.186 0.93,-0.186l2.92,0l-9.665,10.922c-0.247,0.272 -0.48,0.502 -0.699,0.69c-0.218,0.189 -0.451,0.343 -0.699,0.461c0.33,0.106 0.62,0.265 0.867,0.478c0.248,0.212 0.508,0.478 0.779,0.796l10.09,12.019l-2.974,0c-0.224,0 -0.413,-0.017 -0.566,-0.053c-0.154,-0.035 -0.287,-0.082 -0.399,-0.141c-0.112,-0.059 -0.215,-0.136 -0.309,-0.231c-0.095,-0.094 -0.189,-0.194 -0.284,-0.3l-8.762,-10.072c-0.13,-0.142 -0.25,-0.263 -0.363,-0.363c-0.112,-0.101 -0.241,-0.186 -0.389,-0.257c-0.148,-0.071 -0.319,-0.121 -0.513,-0.15c-0.195,-0.03 -0.434,-0.045 -0.717,-0.045l-1.558,0l0,11.612l-3.416,0l0,-25.366l3.416,0l0,11.117Z" style="fill:#1a1a1a;fill-rule:nonzero;"/></g><g><path d="M160.704,4.158l0,4.602l-10.585,0l0,6.532l8.815,0l0,4.62l-8.815,0l0,10.037l-6.019,0l0,-25.791l16.604,0Z" style="fill:#1a1a1a;fill-rule:nonzero;"/><path d="M172.776,25.223c0.803,0 1.52,-0.133 2.151,-0.399c0.631,-0.265 1.165,-0.646 1.602,-1.141c0.437,-0.496 0.77,-1.101 1,-1.815c0.23,-0.714 0.345,-1.525 0.345,-2.434l0,-15.276l5.983,0l0,15.276c0,1.582 -0.256,3.033 -0.77,4.355c-0.513,1.321 -1.248,2.46 -2.203,3.416c-0.956,0.956 -2.119,1.699 -3.488,2.23c-1.368,0.532 -2.909,0.797 -4.62,0.797c-1.723,0 -3.268,-0.265 -4.637,-0.797c-1.369,-0.531 -2.532,-1.274 -3.487,-2.23c-0.956,-0.956 -1.688,-2.095 -2.195,-3.416c-0.508,-1.322 -0.762,-2.773 -0.762,-4.355l0,-15.276l5.983,0l0,15.259c0,0.908 0.115,1.72 0.346,2.434c0.23,0.713 0.563,1.321 1,1.823c0.436,0.501 0.97,0.885 1.602,1.15c0.631,0.266 1.348,0.399 2.15,0.399l0,0Z" style="fill:#1a1a1a;fill-rule:nonzero;"/><path d="M203.311,23.275c0.142,0 0.283,0.027 0.425,0.08c0.141,0.053 0.277,0.145 0.407,0.274l2.372,2.496c-1.039,1.357 -2.34,2.381 -3.903,3.072c-1.564,0.69 -3.414,1.035 -5.55,1.035c-1.959,0 -3.714,-0.333 -5.266,-1c-1.551,-0.667 -2.867,-1.587 -3.947,-2.761c-1.08,-1.175 -1.909,-2.567 -2.487,-4.178c-0.578,-1.611 -0.867,-3.36 -0.867,-5.248c0,-1.924 0.33,-3.691 0.991,-5.302c0.661,-1.611 1.584,-3 2.77,-4.169c1.186,-1.168 2.605,-2.076 4.257,-2.725c1.652,-0.65 3.476,-0.974 5.47,-0.974c0.968,0 1.879,0.085 2.735,0.257c0.855,0.171 1.655,0.407 2.398,0.708c0.744,0.301 1.428,0.66 2.054,1.079c0.625,0.419 1.18,0.883 1.663,1.39l-2.017,2.708c-0.13,0.165 -0.284,0.316 -0.461,0.452c-0.177,0.135 -0.425,0.203 -0.743,0.203c-0.213,0 -0.413,-0.047 -0.602,-0.141c-0.189,-0.095 -0.389,-0.21 -0.602,-0.346c-0.212,-0.135 -0.445,-0.283 -0.699,-0.442c-0.254,-0.159 -0.555,-0.307 -0.903,-0.443c-0.348,-0.135 -0.755,-0.25 -1.221,-0.345c-0.466,-0.094 -1.012,-0.141 -1.638,-0.141c-1.085,0 -2.076,0.191 -2.973,0.575c-0.897,0.383 -1.667,0.932 -2.31,1.646c-0.643,0.714 -1.145,1.578 -1.505,2.593c-0.36,1.015 -0.54,2.154 -0.54,3.417c0,1.321 0.18,2.495 0.54,3.522c0.36,1.027 0.85,1.891 1.469,2.593c0.62,0.703 1.343,1.237 2.169,1.602c0.826,0.366 1.711,0.549 2.655,0.549c0.543,0 1.038,-0.026 1.487,-0.08c0.448,-0.053 0.864,-0.144 1.248,-0.274c0.383,-0.13 0.749,-0.298 1.097,-0.504c0.348,-0.207 0.699,-0.464 1.053,-0.77c0.142,-0.118 0.295,-0.216 0.461,-0.292c0.165,-0.077 0.336,-0.116 0.513,-0.116l0,0Z" style="fill:#1a1a1a;fill-rule:nonzero;"/><path d="M229.987,29.949l-6.019,0l0,-10.904l-10.479,0l0,10.904l-6.018,0l0,-25.791l6.018,0l0,10.78l10.479,0l0,-10.78l6.019,0l0,25.791Z" style="fill:#1a1a1a;fill-rule:nonzero;"/><path d="M246.838,9.398c-0.177,0.283 -0.363,0.495 -0.557,0.637c-0.195,0.142 -0.446,0.212 -0.753,0.212c-0.271,0 -0.563,-0.085 -0.876,-0.256c-0.313,-0.171 -0.667,-0.363 -1.062,-0.576c-0.395,-0.212 -0.847,-0.404 -1.354,-0.575c-0.508,-0.171 -1.086,-0.257 -1.735,-0.257c-1.121,0 -1.956,0.239 -2.505,0.717c-0.548,0.478 -0.823,1.124 -0.823,1.939c0,0.519 0.166,0.95 0.496,1.292c0.33,0.342 0.764,0.637 1.301,0.885c0.537,0.248 1.151,0.475 1.841,0.681c0.69,0.207 1.395,0.437 2.115,0.691c0.72,0.253 1.425,0.551 2.116,0.894c0.69,0.342 1.304,0.778 1.84,1.31c0.537,0.531 0.971,1.177 1.301,1.938c0.331,0.761 0.496,1.678 0.496,2.752c0,1.192 -0.206,2.307 -0.619,3.346c-0.413,1.038 -1.012,1.944 -1.797,2.717c-0.785,0.773 -1.753,1.381 -2.903,1.823c-1.151,0.443 -2.458,0.664 -3.921,0.664c-0.802,0 -1.62,-0.083 -2.452,-0.248c-0.831,-0.165 -1.637,-0.398 -2.416,-0.699c-0.779,-0.301 -1.51,-0.658 -2.195,-1.071c-0.684,-0.413 -1.28,-0.873 -1.787,-1.381l1.77,-2.796c0.129,-0.213 0.312,-0.384 0.548,-0.514c0.236,-0.13 0.49,-0.194 0.762,-0.194c0.354,0 0.711,0.112 1.07,0.336c0.36,0.224 0.767,0.472 1.222,0.743c0.454,0.272 0.976,0.52 1.566,0.744c0.59,0.224 1.287,0.336 2.089,0.336c1.086,0 1.93,-0.239 2.531,-0.717c0.602,-0.478 0.903,-1.236 0.903,-2.274c0,-0.602 -0.165,-1.092 -0.495,-1.47c-0.331,-0.377 -0.765,-0.69 -1.302,-0.938c-0.536,-0.248 -1.147,-0.466 -1.832,-0.655c-0.684,-0.189 -1.386,-0.398 -2.106,-0.628c-0.72,-0.23 -1.422,-0.513 -2.106,-0.85c-0.685,-0.336 -1.296,-0.779 -1.833,-1.327c-0.536,-0.549 -0.97,-1.234 -1.301,-2.054c-0.33,-0.82 -0.495,-1.832 -0.495,-3.035c0,-0.968 0.194,-1.912 0.584,-2.833c0.389,-0.92 0.962,-1.74 1.717,-2.46c0.755,-0.72 1.682,-1.295 2.779,-1.726c1.097,-0.431 2.354,-0.646 3.77,-0.646c0.791,0 1.561,0.062 2.31,0.186c0.75,0.124 1.461,0.307 2.133,0.549c0.673,0.241 1.301,0.531 1.886,0.867c0.584,0.336 1.106,0.717 1.566,1.142l-1.487,2.779l0,0Z" style="fill:#1a1a1a;fill-rule:nonzero;"/></g><g><path d="M46.058,41.42l-0.395,0c-0.086,0 -0.156,-0.014 -0.21,-0.04c-0.053,-0.027 -0.088,-0.084 -0.105,-0.17l-0.1,-0.47c-0.133,0.12 -0.263,0.227 -0.39,0.322c-0.126,0.095 -0.26,0.175 -0.4,0.24c-0.14,0.065 -0.289,0.114 -0.447,0.148c-0.159,0.033 -0.334,0.05 -0.528,0.05c-0.196,0 -0.381,-0.028 -0.552,-0.083c-0.172,-0.055 -0.321,-0.137 -0.448,-0.247c-0.126,-0.11 -0.227,-0.249 -0.302,-0.418c-0.075,-0.168 -0.113,-0.367 -0.113,-0.597c0,-0.2 0.055,-0.393 0.165,-0.578c0.11,-0.185 0.288,-0.349 0.533,-0.492c0.245,-0.144 0.566,-0.261 0.962,-0.353c0.397,-0.091 0.882,-0.144 1.455,-0.157l0,-0.395c0,-0.394 -0.084,-0.691 -0.252,-0.893c-0.169,-0.201 -0.418,-0.302 -0.748,-0.302c-0.216,0 -0.399,0.027 -0.547,0.082c-0.149,0.055 -0.277,0.117 -0.385,0.185c-0.109,0.069 -0.202,0.13 -0.28,0.185c-0.079,0.055 -0.156,0.083 -0.233,0.083c-0.06,0 -0.112,-0.016 -0.157,-0.048c-0.045,-0.031 -0.081,-0.071 -0.108,-0.117l-0.16,-0.285c0.28,-0.27 0.582,-0.472 0.905,-0.605c0.324,-0.133 0.682,-0.2 1.075,-0.2c0.284,0 0.535,0.047 0.755,0.14c0.22,0.093 0.405,0.223 0.555,0.39c0.15,0.166 0.264,0.368 0.34,0.605c0.077,0.236 0.115,0.496 0.115,0.78l0,3.24Zm-2.31,-0.545c0.157,0 0.3,-0.016 0.43,-0.048c0.13,-0.031 0.253,-0.076 0.368,-0.135c0.115,-0.058 0.225,-0.129 0.33,-0.212c0.105,-0.084 0.207,-0.179 0.307,-0.285l0,-1.055c-0.41,0.013 -0.758,0.046 -1.045,0.097c-0.286,0.052 -0.52,0.119 -0.7,0.203c-0.18,0.083 -0.311,0.181 -0.392,0.295c-0.082,0.113 -0.123,0.24 -0.123,0.38c0,0.133 0.022,0.248 0.065,0.345c0.044,0.096 0.102,0.176 0.175,0.237c0.074,0.062 0.16,0.107 0.26,0.135c0.1,0.029 0.209,0.043 0.325,0.043Z" style="fill:#4d4d4d;fill-rule:nonzero;"/><path d="M53.879,41.42c-0.16,0 -0.265,-0.075 -0.315,-0.225l-0.1,-0.495c-0.107,0.12 -0.219,0.228 -0.335,0.325c-0.117,0.096 -0.243,0.18 -0.378,0.25c-0.135,0.07 -0.28,0.124 -0.435,0.162c-0.155,0.039 -0.322,0.058 -0.502,0.058c-0.28,0 -0.537,-0.059 -0.77,-0.175c-0.234,-0.117 -0.435,-0.286 -0.603,-0.508c-0.168,-0.221 -0.298,-0.496 -0.39,-0.822c-0.092,-0.327 -0.137,-0.7 -0.137,-1.12c0,-0.38 0.051,-0.734 0.155,-1.06c0.103,-0.327 0.251,-0.61 0.445,-0.85c0.193,-0.24 0.425,-0.428 0.695,-0.563c0.27,-0.135 0.573,-0.202 0.91,-0.202c0.286,0 0.531,0.046 0.735,0.137c0.203,0.092 0.385,0.215 0.545,0.368l0,-2.71l1.235,0l0,7.43l-0.755,0Zm-1.645,-0.905c0.256,0 0.475,-0.054 0.655,-0.16c0.18,-0.107 0.35,-0.259 0.51,-0.455l0,-2.3c-0.14,-0.17 -0.293,-0.29 -0.458,-0.36c-0.165,-0.07 -0.342,-0.105 -0.532,-0.105c-0.187,0 -0.356,0.035 -0.508,0.105c-0.152,0.07 -0.28,0.176 -0.385,0.317c-0.105,0.142 -0.186,0.322 -0.242,0.54c-0.057,0.219 -0.085,0.476 -0.085,0.773c0,0.3 0.024,0.554 0.072,0.762c0.048,0.209 0.118,0.379 0.208,0.51c0.09,0.132 0.2,0.227 0.33,0.285c0.13,0.059 0.275,0.088 0.435,0.088Z" style="fill:#4d4d4d;fill-rule:nonzero;"/><path d="M58.588,36.21c0.324,0 0.621,0.052 0.893,0.155c0.272,0.103 0.506,0.254 0.702,0.452c0.197,0.199 0.35,0.442 0.46,0.73c0.11,0.289 0.165,0.618 0.165,0.988c0,0.093 -0.004,0.171 -0.012,0.232c-0.008,0.062 -0.023,0.11 -0.045,0.145c-0.022,0.035 -0.051,0.06 -0.088,0.075c-0.036,0.015 -0.083,0.023 -0.14,0.023l-3.17,0c0.037,0.526 0.179,0.913 0.425,1.16c0.247,0.246 0.574,0.37 0.98,0.37c0.2,0 0.373,-0.024 0.518,-0.07c0.145,-0.047 0.272,-0.099 0.38,-0.155c0.108,-0.057 0.203,-0.109 0.285,-0.155c0.082,-0.047 0.161,-0.07 0.237,-0.07c0.05,0 0.094,0.01 0.13,0.03c0.037,0.02 0.069,0.048 0.095,0.085l0.36,0.45c-0.136,0.16 -0.29,0.294 -0.46,0.402c-0.17,0.109 -0.347,0.195 -0.532,0.26c-0.185,0.065 -0.373,0.111 -0.565,0.138c-0.192,0.026 -0.378,0.04 -0.558,0.04c-0.356,0 -0.688,-0.059 -0.995,-0.178c-0.306,-0.118 -0.573,-0.293 -0.8,-0.525c-0.226,-0.231 -0.405,-0.518 -0.535,-0.86c-0.13,-0.341 -0.195,-0.737 -0.195,-1.187c0,-0.35 0.057,-0.679 0.17,-0.988c0.114,-0.308 0.276,-0.576 0.488,-0.805c0.212,-0.228 0.47,-0.409 0.775,-0.542c0.305,-0.133 0.649,-0.2 1.032,-0.2Zm0.025,0.885c-0.36,0 -0.641,0.101 -0.845,0.305c-0.203,0.203 -0.333,0.491 -0.39,0.865l2.32,0c0,-0.16 -0.021,-0.311 -0.065,-0.453c-0.043,-0.141 -0.11,-0.266 -0.2,-0.372c-0.09,-0.107 -0.203,-0.191 -0.34,-0.253c-0.136,-0.061 -0.296,-0.092 -0.48,-0.092Z" style="fill:#4d4d4d;fill-rule:nonzero;"/><path d="M64.858,37.29c-0.033,0.053 -0.068,0.091 -0.105,0.112c-0.036,0.022 -0.083,0.033 -0.14,0.033c-0.06,0 -0.124,-0.017 -0.192,-0.05c-0.068,-0.034 -0.148,-0.071 -0.238,-0.113c-0.09,-0.041 -0.192,-0.079 -0.307,-0.112c-0.115,-0.034 -0.251,-0.05 -0.408,-0.05c-0.243,0 -0.435,0.051 -0.575,0.155c-0.14,0.103 -0.21,0.238 -0.21,0.405c0,0.11 0.036,0.202 0.108,0.277c0.072,0.075 0.167,0.141 0.285,0.198c0.118,0.056 0.252,0.107 0.402,0.152c0.15,0.045 0.304,0.094 0.46,0.148c0.157,0.053 0.31,0.114 0.46,0.182c0.15,0.069 0.285,0.155 0.403,0.26c0.118,0.105 0.213,0.231 0.285,0.378c0.072,0.146 0.107,0.323 0.107,0.53c0,0.246 -0.045,0.474 -0.135,0.682c-0.09,0.209 -0.221,0.389 -0.395,0.54c-0.173,0.152 -0.387,0.27 -0.642,0.355c-0.255,0.085 -0.548,0.128 -0.878,0.128c-0.176,0 -0.349,-0.016 -0.517,-0.048c-0.168,-0.031 -0.33,-0.076 -0.485,-0.132c-0.155,-0.057 -0.298,-0.124 -0.43,-0.2c-0.132,-0.077 -0.248,-0.16 -0.348,-0.25l0.285,-0.47c0.037,-0.057 0.08,-0.1 0.13,-0.13c0.05,-0.03 0.114,-0.045 0.19,-0.045c0.077,0 0.15,0.021 0.218,0.065c0.068,0.043 0.147,0.09 0.237,0.14c0.09,0.05 0.196,0.096 0.318,0.14c0.122,0.043 0.276,0.065 0.462,0.065c0.147,0 0.273,-0.018 0.378,-0.053c0.105,-0.035 0.192,-0.081 0.26,-0.137c0.068,-0.057 0.118,-0.123 0.15,-0.198c0.032,-0.075 0.047,-0.152 0.047,-0.232c0,-0.12 -0.035,-0.219 -0.107,-0.295c-0.072,-0.077 -0.167,-0.144 -0.285,-0.2c-0.118,-0.057 -0.253,-0.108 -0.405,-0.153c-0.152,-0.045 -0.307,-0.094 -0.465,-0.147c-0.158,-0.054 -0.313,-0.116 -0.465,-0.188c-0.152,-0.071 -0.287,-0.162 -0.405,-0.272c-0.118,-0.11 -0.213,-0.245 -0.285,-0.405c-0.072,-0.16 -0.108,-0.354 -0.108,-0.58c0,-0.21 0.042,-0.41 0.125,-0.6c0.084,-0.19 0.206,-0.356 0.368,-0.498c0.162,-0.141 0.363,-0.255 0.605,-0.34c0.242,-0.085 0.521,-0.127 0.837,-0.127c0.354,0 0.675,0.058 0.965,0.175c0.29,0.117 0.532,0.27 0.725,0.46l-0.28,0.445Z" style="fill:#4d4d4d;fill-rule:nonzero;"/><path d="M67.498,36.29l0,5.13l-1.235,0l0,-5.13l1.235,0Zm0.185,-1.495c0,0.107 -0.021,0.207 -0.065,0.3c-0.043,0.093 -0.1,0.175 -0.172,0.245c-0.072,0.07 -0.156,0.126 -0.253,0.167c-0.096,0.042 -0.2,0.063 -0.31,0.063c-0.106,0 -0.207,-0.021 -0.302,-0.063c-0.095,-0.041 -0.178,-0.097 -0.248,-0.167c-0.07,-0.07 -0.125,-0.152 -0.167,-0.245c-0.042,-0.093 -0.063,-0.193 -0.063,-0.3c0,-0.11 0.021,-0.213 0.063,-0.31c0.042,-0.097 0.097,-0.18 0.167,-0.25c0.07,-0.07 0.153,-0.126 0.248,-0.168c0.095,-0.041 0.196,-0.062 0.302,-0.062c0.11,0 0.214,0.021 0.31,0.062c0.097,0.042 0.181,0.098 0.253,0.168c0.072,0.07 0.129,0.153 0.172,0.25c0.044,0.097 0.065,0.2 0.065,0.31Z" style="fill:#4d4d4d;fill-rule:nonzero;"/><path d="M70.668,36.2c0.22,0 0.427,0.022 0.62,0.067c0.194,0.045 0.37,0.111 0.53,0.198l1.475,0l0,0.46c0,0.076 -0.02,0.136 -0.06,0.18c-0.04,0.043 -0.108,0.073 -0.205,0.09l-0.46,0.085c0.034,0.086 0.06,0.178 0.078,0.275c0.018,0.096 0.027,0.198 0.027,0.305c0,0.253 -0.05,0.482 -0.152,0.687c-0.102,0.205 -0.242,0.379 -0.42,0.523c-0.178,0.143 -0.39,0.254 -0.635,0.332c-0.245,0.079 -0.511,0.118 -0.798,0.118c-0.193,0 -0.381,-0.019 -0.565,-0.055c-0.16,0.096 -0.24,0.205 -0.24,0.325c0,0.103 0.048,0.179 0.143,0.227c0.095,0.049 0.22,0.083 0.375,0.103c0.155,0.02 0.331,0.032 0.527,0.037c0.197,0.005 0.399,0.016 0.605,0.033c0.207,0.016 0.409,0.046 0.605,0.087c0.197,0.042 0.373,0.108 0.528,0.198c0.155,0.09 0.28,0.212 0.375,0.367c0.095,0.155 0.142,0.354 0.142,0.598c0,0.226 -0.055,0.446 -0.167,0.66c-0.112,0.213 -0.273,0.403 -0.485,0.57c-0.212,0.166 -0.471,0.301 -0.778,0.402c-0.306,0.102 -0.656,0.153 -1.05,0.153c-0.39,0 -0.728,-0.038 -1.015,-0.113c-0.286,-0.075 -0.524,-0.175 -0.712,-0.3c-0.188,-0.125 -0.329,-0.269 -0.423,-0.432c-0.093,-0.164 -0.14,-0.334 -0.14,-0.51c0,-0.24 0.074,-0.442 0.22,-0.605c0.147,-0.164 0.35,-0.294 0.61,-0.39c-0.126,-0.07 -0.228,-0.164 -0.305,-0.28c-0.076,-0.117 -0.115,-0.269 -0.115,-0.455c0,-0.077 0.014,-0.156 0.04,-0.238c0.027,-0.081 0.068,-0.162 0.123,-0.242c0.055,-0.08 0.124,-0.156 0.207,-0.228c0.084,-0.071 0.182,-0.136 0.295,-0.192c-0.26,-0.14 -0.464,-0.327 -0.612,-0.56c-0.148,-0.234 -0.223,-0.507 -0.223,-0.82c0,-0.254 0.051,-0.483 0.153,-0.688c0.102,-0.205 0.243,-0.38 0.425,-0.525c0.182,-0.145 0.397,-0.255 0.645,-0.332c0.248,-0.077 0.519,-0.115 0.812,-0.115Zm1.355,5.45c0,-0.1 -0.03,-0.182 -0.09,-0.245c-0.06,-0.064 -0.141,-0.113 -0.245,-0.148c-0.103,-0.035 -0.224,-0.061 -0.362,-0.077c-0.138,-0.017 -0.285,-0.029 -0.44,-0.038c-0.155,-0.008 -0.315,-0.016 -0.48,-0.025c-0.165,-0.008 -0.324,-0.022 -0.478,-0.042c-0.14,0.076 -0.252,0.167 -0.337,0.272c-0.085,0.105 -0.128,0.226 -0.128,0.363c0,0.09 0.023,0.174 0.068,0.252c0.045,0.079 0.117,0.146 0.215,0.203c0.098,0.056 0.226,0.101 0.382,0.132c0.157,0.032 0.349,0.048 0.575,0.048c0.23,0 0.429,-0.018 0.595,-0.053c0.167,-0.035 0.305,-0.083 0.413,-0.145c0.108,-0.061 0.187,-0.135 0.237,-0.22c0.05,-0.085 0.075,-0.177 0.075,-0.277Zm-1.355,-2.92c0.154,0 0.287,-0.021 0.4,-0.063c0.114,-0.041 0.208,-0.099 0.283,-0.172c0.075,-0.074 0.132,-0.162 0.17,-0.265c0.038,-0.104 0.057,-0.217 0.057,-0.34c0,-0.254 -0.075,-0.454 -0.227,-0.603c-0.152,-0.148 -0.379,-0.222 -0.683,-0.222c-0.303,0 -0.53,0.074 -0.682,0.222c-0.152,0.149 -0.228,0.349 -0.228,0.603c0,0.12 0.02,0.231 0.058,0.335c0.038,0.103 0.095,0.192 0.17,0.267c0.075,0.075 0.17,0.134 0.285,0.175c0.115,0.042 0.247,0.063 0.397,0.063Z" style="fill:#4d4d4d;fill-rule:nonzero;"/><path d="M74.068,41.42l0,-5.13l0.755,0c0.16,0 0.265,0.075 0.315,0.225l0.085,0.405c0.104,-0.107 0.213,-0.203 0.328,-0.29c0.115,-0.087 0.237,-0.162 0.365,-0.225c0.128,-0.063 0.266,-0.112 0.412,-0.145c0.147,-0.033 0.307,-0.05 0.48,-0.05c0.28,0 0.529,0.047 0.745,0.142c0.217,0.095 0.398,0.229 0.543,0.4c0.145,0.172 0.255,0.377 0.33,0.615c0.075,0.239 0.112,0.501 0.112,0.788l0,3.265l-1.235,0l0,-3.265c0,-0.314 -0.072,-0.556 -0.217,-0.728c-0.145,-0.171 -0.363,-0.257 -0.653,-0.257c-0.213,0 -0.413,0.048 -0.6,0.145c-0.186,0.096 -0.363,0.228 -0.53,0.395l0,3.71l-1.235,0Z" style="fill:#4d4d4d;fill-rule:nonzero;"/><path d="M81.873,36.21c0.324,0 0.621,0.052 0.893,0.155c0.272,0.103 0.506,0.254 0.702,0.452c0.197,0.199 0.35,0.442 0.46,0.73c0.11,0.289 0.165,0.618 0.165,0.988c0,0.093 -0.004,0.171 -0.012,0.232c-0.008,0.062 -0.023,0.11 -0.045,0.145c-0.022,0.035 -0.051,0.06 -0.088,0.075c-0.036,0.015 -0.083,0.023 -0.14,0.023l-3.17,0c0.037,0.526 0.179,0.913 0.425,1.16c0.247,0.246 0.574,0.37 0.98,0.37c0.2,0 0.373,-0.024 0.518,-0.07c0.145,-0.047 0.272,-0.099 0.38,-0.155c0.108,-0.057 0.203,-0.109 0.285,-0.155c0.082,-0.047 0.161,-0.07 0.237,-0.07c0.05,0 0.094,0.01 0.13,0.03c0.037,0.02 0.069,0.048 0.095,0.085l0.36,0.45c-0.136,0.16 -0.29,0.294 -0.46,0.402c-0.17,0.109 -0.347,0.195 -0.532,0.26c-0.185,0.065 -0.373,0.111 -0.565,0.138c-0.192,0.026 -0.378,0.04 -0.558,0.04c-0.356,0 -0.688,-0.059 -0.995,-0.178c-0.306,-0.118 -0.573,-0.293 -0.8,-0.525c-0.226,-0.231 -0.405,-0.518 -0.535,-0.86c-0.13,-0.341 -0.195,-0.737 -0.195,-1.187c0,-0.35 0.057,-0.679 0.17,-0.988c0.114,-0.308 0.276,-0.576 0.488,-0.805c0.212,-0.228 0.47,-0.409 0.775,-0.542c0.305,-0.133 0.649,-0.2 1.032,-0.2Zm0.025,0.885c-0.36,0 -0.641,0.101 -0.845,0.305c-0.203,0.203 -0.333,0.491 -0.39,0.865l2.32,0c0,-0.16 -0.021,-0.311 -0.065,-0.453c-0.043,-0.141 -0.11,-0.266 -0.2,-0.372c-0.09,-0.107 -0.203,-0.191 -0.34,-0.253c-0.136,-0.061 -0.296,-0.092 -0.48,-0.092Z" style="fill:#4d4d4d;fill-rule:nonzero;"/><path d="M85.098,41.42l0,-5.13l0.725,0c0.127,0 0.215,0.023 0.265,0.07c0.05,0.047 0.084,0.127 0.1,0.24l0.075,0.62c0.184,-0.317 0.399,-0.567 0.645,-0.75c0.247,-0.183 0.524,-0.275 0.83,-0.275c0.254,0 0.464,0.058 0.63,0.175l-0.16,0.925c-0.01,0.06 -0.031,0.102 -0.065,0.127c-0.033,0.025 -0.078,0.038 -0.135,0.038c-0.05,0 -0.118,-0.012 -0.205,-0.035c-0.086,-0.024 -0.201,-0.035 -0.345,-0.035c-0.256,0 -0.476,0.071 -0.66,0.212c-0.183,0.142 -0.338,0.349 -0.465,0.623l0,3.195l-1.235,0Z" style="fill:#4d4d4d;fill-rule:nonzero;"/><path d="M94.523,36.355l0.7,0c0.074,0 0.134,0.018 0.18,0.055c0.047,0.037 0.079,0.08 0.095,0.13l0.97,3.26c0.027,0.12 0.052,0.236 0.075,0.347c0.024,0.112 0.044,0.224 0.06,0.338c0.027,-0.114 0.057,-0.226 0.09,-0.338c0.034,-0.111 0.069,-0.227 0.105,-0.347l1.07,-3.28c0.017,-0.05 0.046,-0.092 0.088,-0.125c0.042,-0.033 0.094,-0.05 0.157,-0.05l0.385,0c0.067,0 0.122,0.017 0.165,0.05c0.044,0.033 0.074,0.075 0.09,0.125l1.045,3.28c0.037,0.116 0.07,0.231 0.098,0.345c0.028,0.113 0.056,0.225 0.082,0.335c0.017,-0.11 0.039,-0.225 0.065,-0.345c0.027,-0.12 0.055,-0.232 0.085,-0.335l0.99,-3.26c0.017,-0.053 0.049,-0.098 0.095,-0.133c0.047,-0.035 0.102,-0.052 0.165,-0.052l0.67,0l-1.64,5.065l-0.705,0c-0.086,0 -0.146,-0.057 -0.18,-0.17l-1.12,-3.435c-0.026,-0.077 -0.048,-0.154 -0.065,-0.233c-0.016,-0.078 -0.033,-0.156 -0.05,-0.232c-0.016,0.076 -0.033,0.155 -0.05,0.235c-0.016,0.08 -0.038,0.158 -0.065,0.235l-1.135,3.43c-0.036,0.113 -0.105,0.17 -0.205,0.17l-0.67,0l-1.64,-5.065Z" style="fill:#4d4d4d;fill-rule:nonzero;"/><path d="M102.843,41.42l0,-7.365l0.89,0l0,2.98c0.217,-0.23 0.457,-0.414 0.72,-0.553c0.264,-0.138 0.567,-0.207 0.91,-0.207c0.277,0 0.521,0.046 0.733,0.137c0.212,0.092 0.388,0.222 0.53,0.39c0.142,0.169 0.249,0.371 0.322,0.608c0.074,0.236 0.11,0.498 0.11,0.785l0,3.225l-0.89,0l0,-3.225c0,-0.384 -0.087,-0.681 -0.262,-0.893c-0.175,-0.211 -0.443,-0.317 -0.803,-0.317c-0.263,0 -0.509,0.063 -0.737,0.19c-0.228,0.126 -0.439,0.298 -0.633,0.515l0,3.73l-0.89,0Z" style="fill:#4d4d4d;fill-rule:nonzero;"/><path d="M110.453,36.275c0.37,0 0.705,0.062 1.003,0.185c0.298,0.123 0.551,0.298 0.76,0.525c0.208,0.226 0.368,0.501 0.48,0.822c0.111,0.322 0.167,0.681 0.167,1.078c0,0.4 -0.056,0.76 -0.167,1.08c-0.112,0.32 -0.272,0.593 -0.48,0.82c-0.209,0.226 -0.462,0.401 -0.76,0.522c-0.298,0.122 -0.633,0.183 -1.003,0.183c-0.37,0 -0.704,-0.061 -1.002,-0.183c-0.298,-0.121 -0.553,-0.296 -0.763,-0.522c-0.21,-0.227 -0.371,-0.5 -0.485,-0.82c-0.113,-0.32 -0.17,-0.68 -0.17,-1.08c0,-0.397 0.057,-0.756 0.17,-1.078c0.114,-0.321 0.275,-0.596 0.485,-0.822c0.21,-0.227 0.465,-0.402 0.763,-0.525c0.298,-0.123 0.632,-0.185 1.002,-0.185Zm0,4.52c0.5,0 0.874,-0.168 1.12,-0.503c0.247,-0.335 0.37,-0.802 0.37,-1.402c0,-0.604 -0.123,-1.074 -0.37,-1.41c-0.246,-0.337 -0.62,-0.505 -1.12,-0.505c-0.253,0 -0.473,0.043 -0.66,0.13c-0.186,0.086 -0.342,0.211 -0.467,0.375c-0.125,0.163 -0.218,0.364 -0.28,0.602c-0.062,0.239 -0.093,0.508 -0.093,0.808c0,0.3 0.031,0.568 0.093,0.805c0.062,0.236 0.155,0.436 0.28,0.597c0.125,0.162 0.281,0.286 0.467,0.373c0.187,0.086 0.407,0.13 0.66,0.13Z" style="fill:#4d4d4d;fill-rule:nonzero;"/><rect x="117.904" y="33.99" width="1.235" height="7.43" style="fill:#4d4d4d;fill-rule:nonzero;"/><path d="M123.223,36.21c0.384,0 0.731,0.062 1.043,0.185c0.312,0.123 0.577,0.298 0.797,0.525c0.22,0.226 0.39,0.503 0.51,0.83c0.12,0.326 0.18,0.691 0.18,1.095c0,0.406 -0.06,0.773 -0.18,1.1c-0.12,0.326 -0.29,0.605 -0.51,0.835c-0.22,0.23 -0.485,0.406 -0.797,0.53c-0.312,0.123 -0.659,0.185 -1.043,0.185c-0.383,0 -0.731,-0.062 -1.045,-0.185c-0.313,-0.124 -0.58,-0.3 -0.802,-0.53c-0.222,-0.23 -0.393,-0.509 -0.515,-0.835c-0.122,-0.327 -0.183,-0.694 -0.183,-1.1c0,-0.404 0.061,-0.769 0.183,-1.095c0.122,-0.327 0.293,-0.604 0.515,-0.83c0.222,-0.227 0.489,-0.402 0.802,-0.525c0.314,-0.123 0.662,-0.185 1.045,-0.185Zm0,4.335c0.427,0 0.743,-0.144 0.948,-0.43c0.205,-0.287 0.307,-0.707 0.307,-1.26c0,-0.554 -0.102,-0.975 -0.307,-1.265c-0.205,-0.29 -0.521,-0.435 -0.948,-0.435c-0.433,0 -0.753,0.146 -0.96,0.437c-0.206,0.292 -0.31,0.713 -0.31,1.263c0,0.55 0.104,0.969 0.31,1.257c0.207,0.289 0.527,0.433 0.96,0.433Z" style="fill:#4d4d4d;fill-rule:nonzero;"/><path d="M129.123,41.42l-1.12,0l-2.04,-5.13l1.025,0c0.09,0 0.166,0.022 0.228,0.065c0.062,0.043 0.104,0.098 0.127,0.165l0.99,2.74c0.057,0.16 0.105,0.316 0.143,0.47c0.038,0.153 0.072,0.306 0.102,0.46c0.03,-0.154 0.065,-0.307 0.103,-0.46c0.038,-0.154 0.087,-0.31 0.147,-0.47l1.015,-2.74c0.024,-0.067 0.065,-0.122 0.125,-0.165c0.06,-0.043 0.132,-0.065 0.215,-0.065l0.975,0l-2.035,5.13Z" style="fill:#4d4d4d;fill-rule:nonzero;"/><path d="M133.843,36.21c0.324,0 0.621,0.052 0.893,0.155c0.272,0.103 0.506,0.254 0.702,0.452c0.197,0.199 0.35,0.442 0.46,0.73c0.11,0.289 0.165,0.618 0.165,0.988c0,0.093 -0.004,0.171 -0.012,0.232c-0.008,0.062 -0.023,0.11 -0.045,0.145c-0.022,0.035 -0.051,0.06 -0.088,0.075c-0.036,0.015 -0.083,0.023 -0.14,0.023l-3.17,0c0.037,0.526 0.179,0.913 0.425,1.16c0.247,0.246 0.574,0.37 0.98,0.37c0.2,0 0.373,-0.024 0.518,-0.07c0.145,-0.047 0.272,-0.099 0.38,-0.155c0.108,-0.057 0.203,-0.109 0.285,-0.155c0.082,-0.047 0.161,-0.07 0.237,-0.07c0.05,0 0.094,0.01 0.13,0.03c0.037,0.02 0.069,0.048 0.095,0.085l0.36,0.45c-0.136,0.16 -0.29,0.294 -0.46,0.402c-0.17,0.109 -0.347,0.195 -0.532,0.26c-0.185,0.065 -0.373,0.111 -0.565,0.138c-0.192,0.026 -0.378,0.04 -0.558,0.04c-0.356,0 -0.688,-0.059 -0.995,-0.178c-0.306,-0.118 -0.573,-0.293 -0.8,-0.525c-0.226,-0.231 -0.405,-0.518 -0.535,-0.86c-0.13,-0.341 -0.195,-0.737 -0.195,-1.187c0,-0.35 0.057,-0.679 0.17,-0.988c0.114,-0.308 0.276,-0.576 0.488,-0.805c0.212,-0.228 0.47,-0.409 0.775,-0.542c0.305,-0.133 0.649,-0.2 1.032,-0.2Zm0.025,0.885c-0.36,0 -0.641,0.101 -0.845,0.305c-0.203,0.203 -0.333,0.491 -0.39,0.865l2.32,0c0,-0.16 -0.021,-0.311 -0.065,-0.453c-0.043,-0.141 -0.11,-0.266 -0.2,-0.372c-0.09,-0.107 -0.203,-0.191 -0.34,-0.253c-0.136,-0.061 -0.296,-0.092 -0.48,-0.092Z" style="fill:#4d4d4d;fill-rule:nonzero;"/><path d="M140.113,37.29c-0.033,0.053 -0.068,0.091 -0.105,0.112c-0.036,0.022 -0.083,0.033 -0.14,0.033c-0.06,0 -0.124,-0.017 -0.192,-0.05c-0.068,-0.034 -0.148,-0.071 -0.238,-0.113c-0.09,-0.041 -0.192,-0.079 -0.307,-0.112c-0.115,-0.034 -0.251,-0.05 -0.408,-0.05c-0.243,0 -0.435,0.051 -0.575,0.155c-0.14,0.103 -0.21,0.238 -0.21,0.405c0,0.11 0.036,0.202 0.108,0.277c0.072,0.075 0.167,0.141 0.285,0.198c0.118,0.056 0.252,0.107 0.402,0.152c0.15,0.045 0.304,0.094 0.46,0.148c0.157,0.053 0.31,0.114 0.46,0.182c0.15,0.069 0.285,0.155 0.403,0.26c0.118,0.105 0.213,0.231 0.285,0.378c0.072,0.146 0.107,0.323 0.107,0.53c0,0.246 -0.045,0.474 -0.135,0.682c-0.09,0.209 -0.221,0.389 -0.395,0.54c-0.173,0.152 -0.387,0.27 -0.642,0.355c-0.255,0.085 -0.548,0.128 -0.878,0.128c-0.176,0 -0.349,-0.016 -0.517,-0.048c-0.168,-0.031 -0.33,-0.076 -0.485,-0.132c-0.155,-0.057 -0.298,-0.124 -0.43,-0.2c-0.132,-0.077 -0.248,-0.16 -0.348,-0.25l0.285,-0.47c0.037,-0.057 0.08,-0.1 0.13,-0.13c0.05,-0.03 0.114,-0.045 0.19,-0.045c0.077,0 0.15,0.021 0.218,0.065c0.068,0.043 0.147,0.09 0.237,0.14c0.09,0.05 0.196,0.096 0.318,0.14c0.122,0.043 0.276,0.065 0.462,0.065c0.147,0 0.273,-0.018 0.378,-0.053c0.105,-0.035 0.192,-0.081 0.26,-0.137c0.068,-0.057 0.118,-0.123 0.15,-0.198c0.032,-0.075 0.047,-0.152 0.047,-0.232c0,-0.12 -0.035,-0.219 -0.107,-0.295c-0.072,-0.077 -0.167,-0.144 -0.285,-0.2c-0.118,-0.057 -0.253,-0.108 -0.405,-0.153c-0.152,-0.045 -0.307,-0.094 -0.465,-0.147c-0.158,-0.054 -0.313,-0.116 -0.465,-0.188c-0.152,-0.071 -0.287,-0.162 -0.405,-0.272c-0.118,-0.11 -0.213,-0.245 -0.285,-0.405c-0.072,-0.16 -0.108,-0.354 -0.108,-0.58c0,-0.21 0.042,-0.41 0.125,-0.6c0.084,-0.19 0.206,-0.356 0.368,-0.498c0.162,-0.141 0.363,-0.255 0.605,-0.34c0.242,-0.085 0.521,-0.127 0.837,-0.127c0.354,0 0.675,0.058 0.965,0.175c0.29,0.117 0.532,0.27 0.725,0.46l-0.28,0.445Z" style="fill:#4d4d4d;fill-rule:nonzero;"/><path d="M147.472,41.5c-0.4,0 -0.707,-0.112 -0.922,-0.335c-0.215,-0.224 -0.323,-0.545 -0.323,-0.965l0,-3.1l-0.61,0c-0.053,0 -0.098,-0.016 -0.135,-0.048c-0.036,-0.031 -0.055,-0.081 -0.055,-0.147l0,-0.355l0.83,-0.105l0.205,-1.565c0.007,-0.05 0.029,-0.091 0.065,-0.123c0.037,-0.031 0.084,-0.047 0.14,-0.047l0.45,0l0,1.745l1.45,0l0,0.645l-1.45,0l0,3.04c0,0.213 0.052,0.371 0.155,0.475c0.104,0.103 0.237,0.155 0.4,0.155c0.094,0 0.174,-0.013 0.243,-0.038c0.068,-0.025 0.127,-0.052 0.177,-0.082c0.05,-0.03 0.093,-0.058 0.128,-0.083c0.035,-0.025 0.066,-0.037 0.092,-0.037c0.047,0 0.089,0.028 0.125,0.085l0.26,0.425c-0.153,0.143 -0.338,0.256 -0.555,0.337c-0.216,0.082 -0.44,0.123 -0.67,0.123Z" style="fill:#4d4d4d;fill-rule:nonzero;"/><path d="M151.717,36.275c0.37,0 0.704,0.062 1.003,0.185c0.298,0.123 0.551,0.298 0.76,0.525c0.208,0.226 0.368,0.501 0.48,0.822c0.111,0.322 0.167,0.681 0.167,1.078c0,0.4 -0.056,0.76 -0.167,1.08c-0.112,0.32 -0.272,0.593 -0.48,0.82c-0.209,0.226 -0.462,0.401 -0.76,0.522c-0.299,0.122 -0.633,0.183 -1.003,0.183c-0.37,0 -0.704,-0.061 -1.002,-0.183c-0.299,-0.121 -0.553,-0.296 -0.763,-0.522c-0.21,-0.227 -0.371,-0.5 -0.485,-0.82c-0.113,-0.32 -0.17,-0.68 -0.17,-1.08c0,-0.397 0.057,-0.756 0.17,-1.078c0.114,-0.321 0.275,-0.596 0.485,-0.822c0.21,-0.227 0.464,-0.402 0.763,-0.525c0.298,-0.123 0.632,-0.185 1.002,-0.185Zm0,4.52c0.5,0 0.873,-0.168 1.12,-0.503c0.247,-0.335 0.37,-0.802 0.37,-1.402c0,-0.604 -0.123,-1.074 -0.37,-1.41c-0.247,-0.337 -0.62,-0.505 -1.12,-0.505c-0.253,0 -0.473,0.043 -0.66,0.13c-0.186,0.086 -0.342,0.211 -0.467,0.375c-0.125,0.163 -0.219,0.364 -0.28,0.602c-0.062,0.239 -0.093,0.508 -0.093,0.808c0,0.3 0.031,0.568 0.093,0.805c0.061,0.236 0.155,0.436 0.28,0.597c0.125,0.162 0.281,0.286 0.467,0.373c0.187,0.086 0.407,0.13 0.66,0.13Z" style="fill:#4d4d4d;fill-rule:nonzero;"/><path d="M162.195,37.375c-0.036,0.046 -0.072,0.083 -0.107,0.11c-0.035,0.026 -0.086,0.04 -0.153,0.04c-0.063,0 -0.125,-0.019 -0.185,-0.058c-0.06,-0.038 -0.131,-0.081 -0.215,-0.13c-0.083,-0.048 -0.182,-0.091 -0.297,-0.13c-0.115,-0.038 -0.258,-0.057 -0.428,-0.057c-0.216,0 -0.406,0.039 -0.57,0.117c-0.163,0.079 -0.299,0.191 -0.407,0.338c-0.109,0.146 -0.189,0.324 -0.243,0.532c-0.053,0.209 -0.08,0.444 -0.08,0.708c0,0.273 0.029,0.516 0.088,0.73c0.058,0.213 0.142,0.392 0.252,0.537c0.11,0.145 0.244,0.255 0.4,0.33c0.157,0.075 0.334,0.113 0.53,0.113c0.197,0 0.356,-0.024 0.478,-0.073c0.121,-0.048 0.224,-0.101 0.307,-0.16c0.084,-0.058 0.156,-0.111 0.218,-0.16c0.061,-0.048 0.131,-0.072 0.207,-0.072c0.1,0 0.175,0.038 0.225,0.115l0.355,0.45c-0.136,0.16 -0.285,0.294 -0.445,0.402c-0.16,0.109 -0.326,0.195 -0.497,0.26c-0.172,0.065 -0.349,0.111 -0.533,0.138c-0.183,0.026 -0.365,0.04 -0.545,0.04c-0.316,0 -0.615,-0.059 -0.895,-0.178c-0.28,-0.118 -0.524,-0.291 -0.732,-0.517c-0.209,-0.227 -0.374,-0.504 -0.495,-0.833c-0.122,-0.328 -0.183,-0.702 -0.183,-1.122c0,-0.377 0.054,-0.726 0.163,-1.048c0.108,-0.321 0.267,-0.6 0.477,-0.835c0.21,-0.235 0.47,-0.419 0.78,-0.552c0.31,-0.133 0.667,-0.2 1.07,-0.2c0.384,0 0.719,0.062 1.008,0.185c0.288,0.123 0.547,0.3 0.777,0.53l-0.325,0.45Z" style="fill:#4d4d4d;fill-rule:nonzero;"/><path d="M166.05,36.21c0.383,0 0.731,0.062 1.042,0.185c0.312,0.123 0.578,0.298 0.798,0.525c0.22,0.226 0.39,0.503 0.51,0.83c0.12,0.326 0.18,0.691 0.18,1.095c0,0.406 -0.06,0.773 -0.18,1.1c-0.12,0.326 -0.29,0.605 -0.51,0.835c-0.22,0.23 -0.486,0.406 -0.798,0.53c-0.311,0.123 -0.659,0.185 -1.042,0.185c-0.383,0 -0.732,-0.062 -1.045,-0.185c-0.313,-0.124 -0.581,-0.3 -0.803,-0.53c-0.221,-0.23 -0.393,-0.509 -0.515,-0.835c-0.121,-0.327 -0.182,-0.694 -0.182,-1.1c0,-0.404 0.061,-0.769 0.182,-1.095c0.122,-0.327 0.294,-0.604 0.515,-0.83c0.222,-0.227 0.49,-0.402 0.803,-0.525c0.313,-0.123 0.662,-0.185 1.045,-0.185Zm0,4.335c0.427,0 0.742,-0.144 0.947,-0.43c0.205,-0.287 0.308,-0.707 0.308,-1.26c0,-0.554 -0.103,-0.975 -0.308,-1.265c-0.205,-0.29 -0.52,-0.435 -0.947,-0.435c-0.433,0 -0.753,0.146 -0.96,0.437c-0.207,0.292 -0.31,0.713 -0.31,1.263c0,0.55 0.103,0.969 0.31,1.257c0.207,0.289 0.527,0.433 0.96,0.433Z" style="fill:#4d4d4d;fill-rule:nonzero;"/><path d="M173.155,41.42c-0.16,0 -0.265,-0.075 -0.315,-0.225l-0.1,-0.495c-0.107,0.12 -0.218,0.228 -0.335,0.325c-0.117,0.096 -0.243,0.18 -0.378,0.25c-0.135,0.07 -0.28,0.124 -0.435,0.162c-0.155,0.039 -0.322,0.058 -0.502,0.058c-0.28,0 -0.537,-0.059 -0.77,-0.175c-0.233,-0.117 -0.434,-0.286 -0.603,-0.508c-0.168,-0.221 -0.298,-0.496 -0.39,-0.822c-0.091,-0.327 -0.137,-0.7 -0.137,-1.12c0,-0.38 0.052,-0.734 0.155,-1.06c0.103,-0.327 0.252,-0.61 0.445,-0.85c0.193,-0.24 0.425,-0.428 0.695,-0.563c0.27,-0.135 0.573,-0.202 0.91,-0.202c0.287,0 0.532,0.046 0.735,0.137c0.203,0.092 0.385,0.215 0.545,0.368l0,-2.71l1.235,0l0,7.43l-0.755,0Zm-1.645,-0.905c0.257,0 0.475,-0.054 0.655,-0.16c0.18,-0.107 0.35,-0.259 0.51,-0.455l0,-2.3c-0.14,-0.17 -0.293,-0.29 -0.458,-0.36c-0.165,-0.07 -0.342,-0.105 -0.532,-0.105c-0.187,0 -0.356,0.035 -0.508,0.105c-0.151,0.07 -0.28,0.176 -0.385,0.317c-0.105,0.142 -0.185,0.322 -0.242,0.54c-0.057,0.219 -0.085,0.476 -0.085,0.773c0,0.3 0.024,0.554 0.072,0.762c0.049,0.209 0.118,0.379 0.208,0.51c0.09,0.132 0.2,0.227 0.33,0.285c0.13,0.059 0.275,0.088 0.435,0.088Z" style="fill:#4d4d4d;fill-rule:nonzero;"/><path d="M177.365,36.21c0.323,0 0.621,0.052 0.892,0.155c0.272,0.103 0.506,0.254 0.703,0.452c0.196,0.199 0.35,0.442 0.46,0.73c0.11,0.289 0.165,0.618 0.165,0.988c0,0.093 -0.004,0.171 -0.013,0.232c-0.008,0.062 -0.023,0.11 -0.045,0.145c-0.021,0.035 -0.051,0.06 -0.087,0.075c-0.037,0.015 -0.084,0.023 -0.14,0.023l-3.17,0c0.036,0.526 0.178,0.913 0.425,1.16c0.246,0.246 0.573,0.37 0.98,0.37c0.2,0 0.372,-0.024 0.517,-0.07c0.145,-0.047 0.272,-0.099 0.38,-0.155c0.109,-0.057 0.204,-0.109 0.285,-0.155c0.082,-0.047 0.161,-0.07 0.238,-0.07c0.05,0 0.093,0.01 0.13,0.03c0.036,0.02 0.068,0.048 0.095,0.085l0.36,0.45c-0.137,0.16 -0.29,0.294 -0.46,0.402c-0.17,0.109 -0.348,0.195 -0.533,0.26c-0.185,0.065 -0.373,0.111 -0.565,0.138c-0.191,0.026 -0.377,0.04 -0.557,0.04c-0.357,0 -0.689,-0.059 -0.995,-0.178c-0.307,-0.118 -0.574,-0.293 -0.8,-0.525c-0.227,-0.231 -0.405,-0.518 -0.535,-0.86c-0.13,-0.341 -0.195,-0.737 -0.195,-1.187c0,-0.35 0.056,-0.679 0.17,-0.988c0.113,-0.308 0.276,-0.576 0.487,-0.805c0.212,-0.228 0.47,-0.409 0.775,-0.542c0.305,-0.133 0.649,-0.2 1.033,-0.2Zm0.025,0.885c-0.36,0 -0.642,0.101 -0.845,0.305c-0.204,0.203 -0.334,0.491 -0.39,0.865l2.32,0c0,-0.16 -0.022,-0.311 -0.065,-0.453c-0.044,-0.141 -0.11,-0.266 -0.2,-0.372c-0.09,-0.107 -0.204,-0.191 -0.34,-0.253c-0.137,-0.061 -0.297,-0.092 -0.48,-0.092Z" style="fill:#4d4d4d;fill-rule:nonzero;"/></g><g><path d="M14.358,6.858c1.625,-0.843 5.744,-1.14 6.542,-1.643c0.799,-0.502 1.43,-1.916 2.575,-2.866c1.144,-0.949 1.792,-1.201 1.978,-0.88c0.186,0.32 -0.301,3.532 0.072,3.932c0.373,0.4 4.801,5.629 3.394,9.135c-0.905,2.257 -1.284,8.456 -1.108,13.543c0.136,3.955 0.608,7.238 1.428,7.468l6.098,1.27c0,0 -5.449,11.907 -17.951,12.54c-12.501,0.633 -16.217,-5.864 -16.376,-9.56c-0.16,-3.696 1.628,-10.309 7.043,-13.475c5.415,-3.165 6.55,-5.65 6.471,-7.656c-0.079,-2.007 -7.015,-2.214 -7.897,-3.14c-0.882,-0.925 -2.181,-2.738 -1.2,-3.64c0.981,-0.902 5.514,-1.614 5.701,-1.772c0.186,-0.158 1.605,-2.414 3.23,-3.256l0,0Z" style="fill:#f15a0f;"/><path d="M29.096,35.474c-2.92,-0.4 -8.416,-0.575 -11.843,0.097c-3.454,0.677 -9.469,2.431 -10.754,0.183c-1.285,-2.247 -1.456,-5.611 1.337,-8.409c1.985,-1.989 3.626,-3.013 4.823,-4.472c0.3,-0.231 0.546,-0.535 0.742,-0.884c0.908,-1.239 1.162,-2.339 1.123,-3.323c-0.023,-0.591 -0.641,-1.026 -1.524,-1.369c-0.026,-0.015 -0.051,-0.03 -0.078,-0.044c2.584,0.363 3.505,0.821 4.374,1.594c1.343,1.194 0.489,3.241 -0.968,6.69c-0.886,2.099 -3.603,4.421 -1.347,6.001c4.522,3.166 7.865,2.42 14.102,3.925l0.013,0.011Z" style="fill:#431f0c;"/><path d="M5.736,14.418c-0.591,-0.889 -0.975,-1.92 -0.309,-2.532c0.356,-0.328 1.181,-0.63 2.096,-0.89c-0.036,0.202 -0.101,0.408 -0.2,0.617c-0.872,1.825 -0.745,2.204 -1.587,2.805Z" style="fill:#431f0c;"/><path d="M17.795,5.935c0.77,-1.143 2.245,-3.006 2.48,-3.237c0.319,-0.312 1.508,-1.355 1.675,-1.217c0.073,0.061 0.328,1.053 0.387,2.1l-0.009,0.011l-0.013,0.017l-0.002,0.003l-0.005,0.007c-0.069,0.089 -0.136,0.178 -0.201,0.265l-0.008,0.01l-0.014,0.02l-0.027,0.036l-0.074,0.098l-0.002,0.003l-0.031,0.042l-0.014,0.018l-0.026,0.034l-0.022,0.03l-0.016,0.021l-0.014,0.018l-0.026,0.034l-0.032,0.042l-0.002,0.002l-0.034,0.045l-0.001,0.001l-0.033,0.043l-0.008,0.009l-0.01,0.014l-0.011,0.013l-0.009,0.012l-0.019,0.023l-0.008,0.011l-0.012,0.015l-0.009,0.011l-0.011,0.014l-0.009,0.011l-0.012,0.014l-0.008,0.011l-0.016,0.019l-0.004,0.004l-0.003,0.004l-0.016,0.02l-0.008,0.009l-0.013,0.015l-0.008,0.01l-0.012,0.015l-0.008,0.009l-0.014,0.017l-0.006,0.006l-0.019,0.023l-0.006,0.007l-0.014,0.016l-0.008,0.008l-0.013,0.015l-0.007,0.008l-0.014,0.016l-0.007,0.007l-0.019,0.022l-0.003,0.003l-0.017,0.018l-0.007,0.007l-0.014,0.015l-0.007,0.008l-0.013,0.014l-0.007,0.007l-0.017,0.017l-0.004,0.004l-0.001,0.001l-0.015,0.015l-0.003,0.003l-0.016,0.016l-0.003,0.003l-0.016,0.016l-0.016,0.015l-0.003,0.003l-0.016,0.015l-0.002,0.002l-0.015,0.014l-0.002,0.002l-0.016,0.014l-0.003,0.003l-0.016,0.015l-0.002,0.002l-0.015,0.013l-0.003,0.002l-0.015,0.013l-0.004,0.003l-0.016,0.014l-0.001,0.001l-0.015,0.013l-0.003,0.002l-0.016,0.013l-0.003,0.002l-0.016,0.013l-0.001,0.001l-0.016,0.012l-0.003,0.003l-0.016,0.012l-0.009,0.006l-0.001,0.001l-0.011,0.008l-0.003,0.002l-0.007,0.005l-0.004,0.003l-0.007,0.005l-0.004,0.002l-0.007,0.006l-0.003,0.002l-0.01,0.007l-0.003,0.001l-0.008,0.006l-0.004,0.002l-0.007,0.005l-0.003,0.002l-0.008,0.005l-0.003,0.002l-0.011,0.007c-0.413,0.26 -1.718,0.466 -3.105,0.72l0,0Z" style="fill:#431f0c;"/><path d="M16.405,9.525c0.555,0 1.087,0.469 1.087,0.707c0,0.253 -0.532,0.707 -1.087,0.707c-0.555,0 -1.006,-0.316 -1.006,-0.707c0,-0.391 0.451,-0.707 1.006,-0.707Z" style="fill:#431f0c;"/></g></g></svg>