<?xml version="1.0" encoding="UTF-8" standalone="no"?><!DOCTYPE svg PUBLIC "-//W3C//DTD SVG 1.1//EN" "http://www.w3.org/Graphics/SVG/1.1/DTD/svg11.dtd"><svg width="100%" height="100%" viewBox="0 0 258 142" version="1.1" xmlns="http://www.w3.org/2000/svg" xmlns:xlink="http://www.w3.org/1999/xlink" xml:space="preserve" style="fill-rule:evenodd;clip-rule:evenodd;stroke-linejoin:round;stroke-miterlimit:1.41421;"><g id="Layer1"><g><path d="M40.324,16.972c4.701,-2.438 16.617,-3.298 18.928,-4.752c2.31,-1.454 4.137,-5.544 7.447,-8.291c3.31,-2.747 5.184,-3.474 5.723,-2.547c0.54,0.927 -0.872,10.22 0.208,11.377c1.08,1.156 13.891,16.285 9.821,26.427c-2.62,6.529 -3.716,24.464 -3.208,39.178c0.395,11.445 1.76,20.941 4.133,21.606l17.641,3.674c0,0 -15.763,34.447 -51.931,36.279c-36.168,1.832 -46.918,-16.965 -47.379,-27.658c-0.46,-10.693 4.712,-29.823 20.377,-38.981c15.664,-9.159 18.95,-16.348 18.721,-22.152c-0.229,-5.804 -20.296,-6.403 -22.848,-9.081c-2.551,-2.678 -6.309,-7.923 -3.47,-10.532c2.839,-2.609 15.953,-4.669 16.493,-5.126c0.539,-0.458 4.643,-6.983 9.344,-9.421l0,0Z" style="fill:#f15a0f;"/><path d="M82.963,99.758c-8.451,-1.154 -24.349,-1.663 -34.264,0.281c-9.991,1.959 -27.393,7.034 -31.111,0.531c-3.718,-6.502 -4.212,-16.232 3.869,-24.329c5.743,-5.754 10.488,-8.716 13.953,-12.937c0.867,-0.666 1.579,-1.548 2.145,-2.557c2.629,-3.585 3.363,-6.766 3.25,-9.615c-0.067,-1.709 -1.855,-2.967 -4.409,-3.959c-0.074,-0.044 -0.149,-0.086 -0.225,-0.128c7.473,1.052 10.139,2.375 12.653,4.611c3.884,3.455 1.414,9.377 -2.8,19.356c-2.565,6.072 -10.425,12.791 -3.899,17.36c13.083,9.161 22.754,7.003 40.798,11.356l0.04,0.03Z" style="fill:#431f0c;"/><path d="M15.381,38.844c-1.71,-2.572 -2.82,-5.555 -0.894,-7.325c1.031,-0.947 3.416,-1.822 6.063,-2.574c-0.103,0.583 -0.29,1.179 -0.579,1.783c-2.523,5.281 -2.155,6.379 -4.59,8.116Z" style="fill:#431f0c;"/><path d="M50.268,14.303c2.228,-3.308 6.493,-8.697 7.176,-9.365c0.921,-0.902 4.36,-3.919 4.843,-3.52c0.212,0.176 0.95,3.044 1.121,6.074l-0.026,0.034l-0.038,0.049l-0.007,0.009l-0.015,0.019c-0.197,0.258 -0.39,0.514 -0.58,0.767l-0.022,0.03l-0.041,0.055l-0.079,0.104l-0.212,0.284l-0.007,0.01l-0.091,0.12l-0.039,0.052l-0.075,0.099l-0.066,0.087l-0.045,0.06l-0.04,0.053l-0.076,0.1l-0.093,0.121l-0.003,0.005l-0.1,0.129l-0.003,0.004l-0.097,0.124l-0.021,0.027l-0.03,0.039l-0.03,0.038l-0.028,0.035l-0.054,0.068l-0.024,0.03l-0.034,0.043l-0.026,0.032l-0.033,0.041l-0.025,0.032l-0.035,0.042l-0.023,0.029l-0.047,0.057l-0.01,0.012l-0.009,0.011l-0.048,0.058l-0.022,0.026l-0.036,0.044l-0.024,0.028l-0.036,0.042l-0.022,0.027l-0.042,0.048l-0.016,0.019l-0.057,0.066l-0.017,0.02l-0.041,0.047l-0.021,0.024l-0.038,0.042l-0.022,0.025l-0.039,0.043l-0.019,0.021l-0.057,0.063l-0.008,0.009l-0.05,0.054l-0.02,0.021l-0.039,0.041l-0.021,0.023l-0.039,0.04l-0.02,0.021l-0.047,0.049l-0.012,0.012l-0.004,0.004l-0.044,0.044l-0.007,0.008l-0.046,0.045l-0.009,0.009l-0.046,0.045l-0.047,0.045l-0.009,0.009l-0.045,0.043l-0.008,0.007l-0.043,0.041l-0.005,0.004l-0.046,0.042l-0.01,0.009l-0.045,0.041l-0.007,0.005l-0.042,0.038l-0.008,0.007l-0.045,0.039l-0.01,0.008l-0.047,0.04l-0.002,0.002l-0.045,0.037l-0.009,0.008l-0.046,0.037l-0.009,0.007l-0.045,0.036l-0.003,0.002l-0.047,0.036l-0.01,0.008l-0.046,0.035l-0.025,0.019l-0.004,0.002l-0.03,0.022l-0.009,0.006l-0.021,0.016l-0.011,0.007l-0.02,0.015l-0.01,0.007l-0.023,0.016l-0.008,0.005l-0.03,0.021l-0.007,0.004l-0.023,0.016l-0.011,0.007l-0.02,0.014l-0.011,0.007l-0.021,0.013l-0.01,0.007l-0.03,0.019c-1.197,0.753 -4.971,1.347 -8.984,2.083l0,0Z" style="fill:#431f0c;"/><path d="M46.246,24.689c1.606,0 3.146,1.357 3.146,2.045c0,0.731 -1.54,2.046 -3.146,2.046c-1.607,0 -2.909,-0.916 -2.909,-2.046c0,-1.13 1.302,-2.045 2.909,-2.045Z" style="fill:#431f0c;"/></g><g><g><path d="M123.027,9.793l0,4.222l-18.381,0l0,13.385l15.71,0l0,4.221l-15.71,0l0,16.458l-5.21,0l0,-38.286l23.591,0Z" style="fill:#1a1a1a;fill-rule:nonzero;"/><path d="M131.096,32.102l0,15.977l-5.156,0l0,-38.286l10.82,0c2.423,0 4.515,0.245 6.279,0.735c1.763,0.49 3.219,1.198 4.368,2.124c1.149,0.926 1.999,2.044 2.552,3.353c0.552,1.309 0.828,2.774 0.828,4.395c0,1.354 -0.214,2.618 -0.641,3.794c-0.428,1.175 -1.047,2.231 -1.857,3.166c-0.811,0.935 -1.799,1.732 -2.966,2.391c-1.167,0.659 -2.489,1.158 -3.967,1.496c0.641,0.374 1.211,0.918 1.709,1.63l11.168,15.202l-4.595,0c-0.944,0 -1.639,-0.365 -2.084,-1.095l-9.939,-13.679c-0.303,-0.428 -0.632,-0.735 -0.988,-0.922c-0.357,-0.187 -0.891,-0.281 -1.603,-0.281l-3.928,0l0,0Zm0,-3.767l5.424,0c1.514,0 2.845,-0.182 3.994,-0.548c1.149,-0.365 2.111,-0.881 2.885,-1.549c0.775,-0.668 1.359,-1.465 1.75,-2.391c0.392,-0.927 0.588,-1.951 0.588,-3.073c0,-2.28 -0.752,-3.999 -2.257,-5.156c-1.505,-1.158 -3.745,-1.737 -6.72,-1.737l-5.664,0l0,14.454Z" style="fill:#1a1a1a;fill-rule:nonzero;"/><path d="M188.111,48.079l-4.007,0c-0.464,0 -0.838,-0.115 -1.123,-0.347c-0.285,-0.232 -0.498,-0.525 -0.641,-0.882l-3.58,-9.244l-17.179,0l-3.58,9.244c-0.125,0.321 -0.339,0.606 -0.642,0.855c-0.302,0.25 -0.677,0.374 -1.122,0.374l-4.007,0l15.309,-38.286l5.263,0l15.309,38.286Zm-25.088,-14.213l14.294,0l-6.011,-15.577c-0.392,-0.961 -0.775,-2.164 -1.149,-3.607c-0.196,0.731 -0.387,1.403 -0.574,2.018c-0.187,0.614 -0.37,1.153 -0.548,1.616l-6.012,15.55Z" style="fill:#1a1a1a;fill-rule:nonzero;"/><path d="M191.878,9.793c0.463,0 0.806,0.058 1.029,0.174c0.223,0.116 0.476,0.352 0.761,0.708l22.176,28.855c-0.053,-0.463 -0.089,-0.913 -0.107,-1.349c-0.018,-0.437 -0.027,-0.86 -0.027,-1.27l0,-27.118l4.542,0l0,38.286l-2.618,0c-0.41,0 -0.753,-0.071 -1.029,-0.213c-0.276,-0.143 -0.547,-0.383 -0.814,-0.722l-22.149,-28.828c0.035,0.445 0.062,0.882 0.08,1.309c0.018,0.428 0.027,0.82 0.027,1.176l0,27.278l-4.542,0l0,-38.286l2.671,0Z" style="fill:#1a1a1a;fill-rule:nonzero;"/><path d="M228.882,26.572l1.95,0c0.677,0 1.216,-0.085 1.617,-0.254c0.401,-0.169 0.779,-0.459 1.135,-0.868l12.745,-14.428c0.391,-0.445 0.77,-0.761 1.135,-0.948c0.365,-0.187 0.833,-0.281 1.403,-0.281l4.408,0l-14.588,16.485c-0.374,0.41 -0.725,0.757 -1.055,1.042c-0.329,0.285 -0.681,0.516 -1.055,0.695c0.498,0.16 0.935,0.4 1.309,0.721c0.374,0.32 0.766,0.721 1.175,1.202l15.229,18.141l-4.488,0c-0.339,0 -0.624,-0.026 -0.855,-0.08c-0.232,-0.053 -0.432,-0.124 -0.601,-0.214c-0.169,-0.089 -0.325,-0.204 -0.468,-0.347c-0.142,-0.142 -0.285,-0.294 -0.427,-0.454l-13.225,-15.202c-0.196,-0.214 -0.379,-0.397 -0.548,-0.548c-0.169,-0.151 -0.365,-0.281 -0.588,-0.387c-0.223,-0.107 -0.481,-0.183 -0.775,-0.228c-0.294,-0.044 -0.654,-0.066 -1.082,-0.066l-2.351,0l0,17.526l-5.156,0l0,-38.286l5.156,0l0,16.779Z" style="fill:#1a1a1a;fill-rule:nonzero;"/></g><g><path d="M124.497,52.425l0,6.946l-15.977,0l0,9.859l13.305,0l0,6.973l-13.305,0l0,15.149l-9.084,0l0,-38.927l25.061,0Z" style="fill:#1a1a1a;fill-rule:nonzero;"/><path d="M142.718,84.219c1.211,0 2.293,-0.201 3.246,-0.602c0.953,-0.4 1.759,-0.975 2.418,-1.723c0.659,-0.748 1.162,-1.661 1.51,-2.738c0.347,-1.078 0.521,-2.303 0.521,-3.674l0,-23.057l9.03,0l0,23.057c0,2.387 -0.387,4.578 -1.162,6.572c-0.775,1.995 -1.883,3.714 -3.326,5.157c-1.443,1.443 -3.197,2.565 -5.264,3.366c-2.066,0.802 -4.39,1.203 -6.973,1.203c-2.6,0 -4.934,-0.401 -7,-1.203c-2.066,-0.801 -3.82,-1.923 -5.263,-3.366c-1.443,-1.443 -2.547,-3.162 -3.313,-5.157c-0.766,-1.994 -1.149,-4.185 -1.149,-6.572l0,-23.057l9.031,0l0,23.03c0,1.372 0.173,2.596 0.52,3.674c0.348,1.077 0.851,1.995 1.51,2.752c0.659,0.757 1.465,1.336 2.418,1.736c0.953,0.401 2.035,0.602 3.246,0.602l0,0Z" style="fill:#1a1a1a;fill-rule:nonzero;"/><path d="M188.806,81.28c0.214,0 0.427,0.04 0.641,0.12c0.214,0.08 0.419,0.218 0.615,0.414l3.58,3.767c-1.568,2.048 -3.531,3.594 -5.892,4.636c-2.36,1.042 -5.152,1.563 -8.375,1.563c-2.957,0 -5.607,-0.504 -7.949,-1.51c-2.342,-1.006 -4.328,-2.396 -5.958,-4.168c-1.63,-1.772 -2.881,-3.874 -3.754,-6.305c-0.872,-2.432 -1.309,-5.072 -1.309,-7.922c0,-2.903 0.499,-5.571 1.496,-8.002c0.998,-2.431 2.392,-4.528 4.182,-6.292c1.79,-1.763 3.932,-3.135 6.425,-4.114c2.494,-0.98 5.246,-1.47 8.256,-1.47c1.46,0 2.836,0.129 4.128,0.388c1.291,0.258 2.498,0.614 3.62,1.068c1.122,0.455 2.155,0.998 3.099,1.63c0.944,0.632 1.781,1.332 2.512,2.097l-3.046,4.088c-0.196,0.25 -0.428,0.477 -0.695,0.682c-0.267,0.204 -0.641,0.307 -1.122,0.307c-0.321,0 -0.623,-0.071 -0.908,-0.214c-0.285,-0.142 -0.588,-0.316 -0.909,-0.521c-0.32,-0.205 -0.672,-0.427 -1.055,-0.668c-0.383,-0.24 -0.837,-0.463 -1.363,-0.668c-0.525,-0.205 -1.14,-0.378 -1.843,-0.521c-0.704,-0.142 -1.528,-0.214 -2.472,-0.214c-1.638,0 -3.134,0.29 -4.488,0.869c-1.354,0.579 -2.516,1.407 -3.487,2.484c-0.97,1.078 -1.727,2.383 -2.271,3.915c-0.543,1.531 -0.815,3.25 -0.815,5.156c0,1.995 0.272,3.767 0.815,5.317c0.544,1.549 1.283,2.854 2.218,3.914c0.935,1.06 2.026,1.866 3.273,2.418c1.247,0.552 2.582,0.828 4.007,0.828c0.82,0 1.568,-0.04 2.245,-0.12c0.676,-0.08 1.304,-0.218 1.883,-0.414c0.579,-0.196 1.131,-0.45 1.657,-0.762c0.525,-0.311 1.055,-0.699 1.589,-1.162c0.214,-0.178 0.446,-0.325 0.695,-0.441c0.249,-0.115 0.508,-0.173 0.775,-0.173l0,0Z" style="fill:#1a1a1a;fill-rule:nonzero;"/><path d="M229.069,91.352l-9.084,0l0,-16.458l-15.817,0l0,16.458l-9.084,0l0,-38.927l9.084,0l0,16.271l15.817,0l0,-16.271l9.084,0l0,38.927Z" style="fill:#1a1a1a;fill-rule:nonzero;"/><path d="M254.504,60.333c-0.267,0.428 -0.548,0.748 -0.841,0.962c-0.294,0.214 -0.673,0.321 -1.136,0.321c-0.41,0 -0.85,-0.13 -1.322,-0.388c-0.472,-0.258 -1.007,-0.548 -1.603,-0.868c-0.597,-0.321 -1.278,-0.61 -2.044,-0.869c-0.766,-0.258 -1.639,-0.387 -2.619,-0.387c-1.692,0 -2.952,0.361 -3.78,1.082c-0.828,0.722 -1.243,1.697 -1.243,2.926c0,0.783 0.25,1.434 0.749,1.95c0.498,0.517 1.153,0.962 1.963,1.336c0.811,0.374 1.737,0.717 2.779,1.029c1.042,0.311 2.106,0.659 3.193,1.042c1.086,0.383 2.15,0.832 3.192,1.349c1.042,0.516 1.969,1.175 2.779,1.977c0.81,0.801 1.465,1.777 1.964,2.925c0.498,1.149 0.748,2.534 0.748,4.155c0,1.799 -0.312,3.482 -0.935,5.05c-0.624,1.567 -1.528,2.934 -2.712,4.101c-1.185,1.166 -2.645,2.084 -4.382,2.752c-1.736,0.668 -3.709,1.002 -5.918,1.002c-1.211,0 -2.444,-0.125 -3.7,-0.374c-1.256,-0.25 -2.471,-0.602 -3.647,-1.056c-1.176,-0.454 -2.28,-0.993 -3.313,-1.616c-1.033,-0.624 -1.933,-1.318 -2.698,-2.084l2.671,-4.222c0.196,-0.32 0.472,-0.578 0.829,-0.774c0.356,-0.196 0.739,-0.294 1.148,-0.294c0.535,0 1.074,0.169 1.617,0.507c0.543,0.339 1.158,0.713 1.843,1.123c0.686,0.409 1.474,0.783 2.365,1.122c0.89,0.338 1.941,0.507 3.152,0.507c1.639,0 2.913,-0.36 3.821,-1.082c0.908,-0.721 1.363,-1.866 1.363,-3.433c0,-0.908 -0.25,-1.648 -0.748,-2.218c-0.499,-0.569 -1.154,-1.041 -1.964,-1.416c-0.811,-0.374 -1.732,-0.703 -2.765,-0.988c-1.034,-0.285 -2.093,-0.601 -3.18,-0.949c-1.086,-0.347 -2.146,-0.774 -3.179,-1.282c-1.033,-0.508 -1.955,-1.176 -2.765,-2.004c-0.811,-0.828 -1.465,-1.861 -1.964,-3.099c-0.499,-1.238 -0.748,-2.765 -0.748,-4.582c0,-1.461 0.294,-2.886 0.881,-4.275c0.588,-1.389 1.452,-2.627 2.592,-3.714c1.14,-1.086 2.538,-1.954 4.195,-2.605c1.656,-0.65 3.553,-0.975 5.69,-0.975c1.194,0 2.356,0.094 3.487,0.281c1.131,0.187 2.204,0.463 3.22,0.828c1.015,0.365 1.963,0.802 2.845,1.309c0.882,0.508 1.67,1.082 2.364,1.723l-2.244,4.195l0,0Z" style="fill:#1a1a1a;fill-rule:nonzero;"/></g><g><path d="M123.988,111.811l-0.681,0c-0.15,0 -0.27,-0.023 -0.362,-0.069c-0.092,-0.046 -0.153,-0.144 -0.181,-0.293l-0.173,-0.811c-0.23,0.207 -0.454,0.393 -0.672,0.556c-0.219,0.164 -0.449,0.302 -0.69,0.414c-0.241,0.112 -0.499,0.197 -0.772,0.255c-0.273,0.057 -0.576,0.086 -0.909,0.086c-0.339,0 -0.657,-0.048 -0.953,-0.142c-0.296,-0.095 -0.553,-0.238 -0.771,-0.427c-0.219,-0.19 -0.392,-0.43 -0.522,-0.72c-0.129,-0.29 -0.194,-0.634 -0.194,-1.03c0,-0.345 0.095,-0.677 0.285,-0.996c0.189,-0.319 0.495,-0.602 0.918,-0.849c0.422,-0.247 0.975,-0.45 1.659,-0.608c0.684,-0.158 1.521,-0.249 2.509,-0.272l0,-0.681c0,-0.678 -0.145,-1.191 -0.435,-1.538c-0.291,-0.348 -0.72,-0.522 -1.289,-0.522c-0.374,0 -0.688,0.047 -0.944,0.142c-0.256,0.095 -0.477,0.201 -0.664,0.319c-0.187,0.118 -0.348,0.224 -0.483,0.319c-0.135,0.095 -0.268,0.142 -0.401,0.142c-0.103,0 -0.194,-0.027 -0.271,-0.081c-0.078,-0.055 -0.14,-0.123 -0.185,-0.203l-0.276,-0.491c0.482,-0.466 1.003,-0.814 1.56,-1.044c0.558,-0.229 1.175,-0.344 1.854,-0.344c0.488,0 0.922,0.08 1.301,0.241c0.38,0.161 0.699,0.385 0.957,0.672c0.259,0.288 0.454,0.635 0.586,1.044c0.133,0.408 0.199,0.856 0.199,1.344l0,5.587Zm-3.983,-0.94c0.27,0 0.517,-0.027 0.741,-0.082c0.224,-0.054 0.436,-0.132 0.634,-0.233c0.198,-0.1 0.388,-0.222 0.569,-0.366c0.181,-0.144 0.358,-0.307 0.53,-0.491l0,-1.819c-0.707,0.023 -1.307,0.079 -1.802,0.168c-0.494,0.089 -0.896,0.205 -1.207,0.349c-0.31,0.144 -0.536,0.313 -0.676,0.509c-0.141,0.195 -0.212,0.413 -0.212,0.655c0,0.23 0.038,0.428 0.112,0.595c0.075,0.166 0.176,0.303 0.302,0.409c0.127,0.106 0.276,0.184 0.449,0.233c0.172,0.049 0.359,0.073 0.56,0.073Z" style="fill:#4d4d4d;fill-rule:nonzero;"/><path d="M137.471,111.811c-0.276,0 -0.457,-0.129 -0.543,-0.388l-0.173,-0.854c-0.184,0.207 -0.376,0.394 -0.577,0.561c-0.201,0.166 -0.418,0.31 -0.651,0.431c-0.233,0.121 -0.483,0.214 -0.75,0.28c-0.267,0.066 -0.556,0.099 -0.867,0.099c-0.482,0 -0.925,-0.1 -1.327,-0.302c-0.402,-0.201 -0.749,-0.492 -1.039,-0.875c-0.29,-0.382 -0.514,-0.855 -0.672,-1.418c-0.158,-0.563 -0.237,-1.207 -0.237,-1.931c0,-0.655 0.089,-1.264 0.267,-1.828c0.178,-0.563 0.434,-1.051 0.767,-1.465c0.333,-0.414 0.733,-0.737 1.198,-0.97c0.466,-0.233 0.989,-0.349 1.569,-0.349c0.495,0 0.917,0.079 1.268,0.237c0.35,0.158 0.663,0.369 0.939,0.634l0,-4.673l2.13,0l0,12.811l-1.302,0Zm-2.836,-1.561c0.442,0 0.819,-0.092 1.129,-0.275c0.31,-0.184 0.603,-0.446 0.879,-0.785l0,-3.966c-0.241,-0.293 -0.504,-0.5 -0.788,-0.62c-0.285,-0.121 -0.591,-0.181 -0.919,-0.181c-0.321,0 -0.613,0.06 -0.875,0.181c-0.261,0.12 -0.482,0.303 -0.663,0.547c-0.182,0.244 -0.321,0.555 -0.419,0.931c-0.097,0.377 -0.146,0.821 -0.146,1.332c0,0.517 0.042,0.956 0.125,1.315c0.083,0.359 0.202,0.652 0.358,0.879c0.155,0.227 0.344,0.391 0.569,0.492c0.224,0.1 0.474,0.15 0.75,0.15Z" style="fill:#4d4d4d;fill-rule:nonzero;"/><path d="M145.592,102.828c0.557,0 1.07,0.089 1.539,0.267c0.468,0.178 0.872,0.438 1.211,0.78c0.339,0.342 0.603,0.762 0.793,1.259c0.19,0.497 0.285,1.065 0.285,1.703c0,0.16 -0.008,0.294 -0.022,0.4c-0.014,0.107 -0.04,0.19 -0.078,0.25c-0.037,0.061 -0.087,0.104 -0.15,0.13c-0.064,0.026 -0.144,0.039 -0.242,0.039l-5.465,0c0.063,0.908 0.307,1.574 0.732,2c0.426,0.425 0.989,0.638 1.69,0.638c0.345,0 0.642,-0.041 0.892,-0.121c0.25,-0.081 0.469,-0.17 0.655,-0.267c0.187,-0.098 0.351,-0.187 0.492,-0.268c0.141,-0.08 0.277,-0.12 0.409,-0.12c0.087,0 0.161,0.017 0.225,0.051c0.063,0.035 0.117,0.084 0.163,0.147l0.621,0.776c-0.236,0.276 -0.5,0.507 -0.793,0.694c-0.293,0.187 -0.599,0.336 -0.918,0.448c-0.319,0.112 -0.644,0.191 -0.974,0.237c-0.331,0.046 -0.651,0.069 -0.962,0.069c-0.615,0 -1.186,-0.102 -1.715,-0.306c-0.529,-0.204 -0.989,-0.506 -1.38,-0.905c-0.39,-0.4 -0.698,-0.894 -0.922,-1.483c-0.224,-0.589 -0.336,-1.272 -0.336,-2.047c0,-0.604 0.097,-1.171 0.293,-1.703c0.195,-0.532 0.475,-0.994 0.84,-1.388c0.365,-0.394 0.811,-0.706 1.337,-0.935c0.526,-0.23 1.119,-0.345 1.78,-0.345Zm0.043,1.526c-0.621,0 -1.106,0.175 -1.457,0.526c-0.351,0.35 -0.575,0.847 -0.672,1.491l4,0c0,-0.276 -0.038,-0.536 -0.112,-0.78c-0.075,-0.244 -0.19,-0.459 -0.345,-0.642c-0.155,-0.184 -0.351,-0.33 -0.586,-0.436c-0.236,-0.106 -0.512,-0.159 -0.828,-0.159Z" style="fill:#4d4d4d;fill-rule:nonzero;"/><path d="M156.403,104.69c-0.058,0.092 -0.118,0.157 -0.181,0.194c-0.064,0.037 -0.144,0.056 -0.242,0.056c-0.103,0 -0.214,-0.029 -0.332,-0.086c-0.118,-0.058 -0.254,-0.122 -0.409,-0.194c-0.155,-0.072 -0.332,-0.137 -0.53,-0.194c-0.199,-0.058 -0.433,-0.086 -0.703,-0.086c-0.42,0 -0.75,0.089 -0.991,0.267c-0.242,0.178 -0.363,0.411 -0.363,0.698c0,0.19 0.062,0.349 0.186,0.479c0.123,0.129 0.287,0.242 0.491,0.34c0.204,0.098 0.436,0.185 0.694,0.263c0.259,0.078 0.523,0.162 0.793,0.254c0.27,0.092 0.535,0.197 0.793,0.315c0.259,0.118 0.49,0.267 0.694,0.448c0.204,0.181 0.368,0.398 0.492,0.651c0.123,0.253 0.185,0.558 0.185,0.914c0,0.425 -0.077,0.818 -0.233,1.177c-0.155,0.359 -0.382,0.669 -0.681,0.931c-0.298,0.261 -0.668,0.465 -1.107,0.612c-0.44,0.146 -0.944,0.22 -1.513,0.22c-0.305,0 -0.602,-0.028 -0.893,-0.082c-0.29,-0.055 -0.569,-0.131 -0.836,-0.229c-0.267,-0.097 -0.514,-0.212 -0.741,-0.344c-0.227,-0.133 -0.427,-0.276 -0.599,-0.431l0.491,-0.811c0.063,-0.098 0.138,-0.172 0.224,-0.224c0.086,-0.052 0.195,-0.078 0.328,-0.078c0.132,0 0.257,0.038 0.375,0.112c0.118,0.075 0.254,0.156 0.409,0.242c0.155,0.086 0.338,0.167 0.548,0.241c0.209,0.075 0.475,0.112 0.797,0.112c0.253,0 0.47,-0.03 0.651,-0.09c0.181,-0.061 0.33,-0.14 0.448,-0.237c0.118,-0.098 0.204,-0.211 0.259,-0.341c0.054,-0.129 0.082,-0.263 0.082,-0.401c0,-0.207 -0.062,-0.376 -0.186,-0.508c-0.123,-0.133 -0.287,-0.247 -0.491,-0.345c-0.204,-0.098 -0.437,-0.186 -0.698,-0.263c-0.262,-0.078 -0.529,-0.162 -0.802,-0.254c-0.273,-0.092 -0.54,-0.2 -0.802,-0.324c-0.261,-0.123 -0.494,-0.28 -0.698,-0.47c-0.204,-0.189 -0.368,-0.422 -0.491,-0.698c-0.124,-0.276 -0.186,-0.609 -0.186,-1c0,-0.362 0.072,-0.707 0.216,-1.034c0.143,-0.328 0.355,-0.614 0.633,-0.858c0.279,-0.244 0.627,-0.44 1.043,-0.586c0.417,-0.147 0.898,-0.22 1.444,-0.22c0.61,0 1.164,0.1 1.664,0.302c0.5,0.201 0.917,0.465 1.25,0.793l-0.482,0.767Z" style="fill:#4d4d4d;fill-rule:nonzero;"/><path d="M160.954,102.966l0,8.845l-2.129,0l0,-8.845l2.129,0Zm0.319,-2.578c0,0.184 -0.037,0.356 -0.112,0.517c-0.074,0.161 -0.173,0.302 -0.297,0.423c-0.124,0.12 -0.269,0.217 -0.435,0.289c-0.167,0.071 -0.345,0.107 -0.535,0.107c-0.184,0 -0.358,-0.036 -0.521,-0.107c-0.164,-0.072 -0.307,-0.169 -0.427,-0.289c-0.121,-0.121 -0.217,-0.262 -0.289,-0.423c-0.072,-0.161 -0.108,-0.333 -0.108,-0.517c0,-0.19 0.036,-0.368 0.108,-0.534c0.072,-0.167 0.168,-0.311 0.289,-0.432c0.12,-0.12 0.263,-0.216 0.427,-0.288c0.163,-0.072 0.337,-0.108 0.521,-0.108c0.19,0 0.368,0.036 0.535,0.108c0.166,0.072 0.311,0.168 0.435,0.288c0.124,0.121 0.223,0.265 0.297,0.432c0.075,0.166 0.112,0.344 0.112,0.534Z" style="fill:#4d4d4d;fill-rule:nonzero;"/><path d="M166.42,102.811c0.379,0 0.736,0.038 1.069,0.116c0.333,0.077 0.638,0.191 0.914,0.34l2.543,0l0,0.794c0,0.132 -0.034,0.235 -0.103,0.31c-0.069,0.075 -0.187,0.126 -0.354,0.155l-0.793,0.147c0.058,0.149 0.102,0.307 0.134,0.474c0.031,0.166 0.047,0.342 0.047,0.526c0,0.436 -0.087,0.832 -0.263,1.185c-0.175,0.354 -0.416,0.654 -0.724,0.901c-0.307,0.247 -0.672,0.438 -1.095,0.573c-0.422,0.135 -0.881,0.203 -1.375,0.203c-0.333,0 -0.658,-0.032 -0.974,-0.095c-0.276,0.167 -0.414,0.353 -0.414,0.56c0,0.179 0.082,0.309 0.246,0.393c0.164,0.083 0.379,0.142 0.646,0.176c0.268,0.035 0.571,0.056 0.91,0.065c0.339,0.009 0.687,0.027 1.043,0.056c0.356,0.029 0.704,0.079 1.043,0.151c0.339,0.072 0.642,0.185 0.91,0.34c0.267,0.156 0.483,0.367 0.646,0.634c0.164,0.267 0.246,0.611 0.246,1.03c0,0.391 -0.096,0.77 -0.289,1.138c-0.192,0.368 -0.471,0.696 -0.836,0.983c-0.365,0.287 -0.812,0.519 -1.341,0.694c-0.528,0.175 -1.132,0.263 -1.81,0.263c-0.672,0 -1.256,-0.065 -1.75,-0.194c-0.494,-0.129 -0.904,-0.302 -1.229,-0.517c-0.324,-0.216 -0.567,-0.464 -0.728,-0.746c-0.161,-0.282 -0.241,-0.575 -0.241,-0.879c0,-0.414 0.126,-0.762 0.379,-1.043c0.253,-0.282 0.603,-0.506 1.052,-0.673c-0.219,-0.121 -0.394,-0.281 -0.526,-0.483c-0.132,-0.201 -0.198,-0.462 -0.198,-0.784c0,-0.132 0.023,-0.269 0.069,-0.41c0.045,-0.14 0.116,-0.28 0.211,-0.418c0.095,-0.138 0.214,-0.268 0.357,-0.392c0.144,-0.124 0.314,-0.234 0.509,-0.332c-0.448,-0.241 -0.8,-0.563 -1.056,-0.965c-0.256,-0.403 -0.384,-0.874 -0.384,-1.414c0,-0.437 0.088,-0.832 0.263,-1.186c0.176,-0.353 0.42,-0.655 0.733,-0.905c0.313,-0.25 0.684,-0.441 1.112,-0.573c0.428,-0.132 0.895,-0.198 1.401,-0.198Zm2.336,9.396c0,-0.172 -0.051,-0.313 -0.155,-0.422c-0.103,-0.109 -0.244,-0.194 -0.422,-0.254c-0.178,-0.061 -0.387,-0.105 -0.625,-0.134c-0.239,-0.029 -0.492,-0.05 -0.759,-0.065c-0.267,-0.014 -0.543,-0.028 -0.827,-0.043c-0.285,-0.014 -0.559,-0.039 -0.824,-0.073c-0.241,0.132 -0.435,0.289 -0.582,0.47c-0.146,0.181 -0.219,0.389 -0.219,0.625c0,0.155 0.038,0.3 0.116,0.435c0.077,0.135 0.201,0.252 0.371,0.349c0.169,0.098 0.389,0.174 0.659,0.229c0.27,0.054 0.601,0.082 0.992,0.082c0.396,0 0.738,-0.03 1.025,-0.091c0.288,-0.06 0.525,-0.144 0.712,-0.25c0.186,-0.106 0.323,-0.233 0.409,-0.379c0.086,-0.147 0.129,-0.306 0.129,-0.479Zm-2.336,-5.034c0.265,0 0.494,-0.036 0.69,-0.108c0.195,-0.072 0.358,-0.171 0.487,-0.297c0.129,-0.127 0.227,-0.279 0.293,-0.457c0.066,-0.179 0.099,-0.374 0.099,-0.587c0,-0.436 -0.131,-0.783 -0.392,-1.038c-0.262,-0.256 -0.654,-0.384 -1.177,-0.384c-0.523,0 -0.915,0.128 -1.177,0.384c-0.261,0.255 -0.392,0.602 -0.392,1.038c0,0.207 0.033,0.4 0.099,0.578c0.066,0.178 0.164,0.332 0.293,0.461c0.13,0.13 0.294,0.23 0.492,0.302c0.198,0.072 0.427,0.108 0.685,0.108Z" style="fill:#4d4d4d;fill-rule:nonzero;"/><path d="M172.282,111.811l0,-8.845l1.302,0c0.276,0 0.457,0.129 0.543,0.388l0.147,0.698c0.178,-0.184 0.366,-0.351 0.565,-0.5c0.198,-0.15 0.408,-0.279 0.629,-0.388c0.221,-0.109 0.458,-0.193 0.711,-0.25c0.253,-0.057 0.529,-0.086 0.828,-0.086c0.482,0 0.911,0.082 1.284,0.245c0.374,0.164 0.686,0.394 0.936,0.69c0.25,0.296 0.439,0.65 0.569,1.061c0.129,0.41 0.194,0.863 0.194,1.357l0,5.63l-2.13,0l0,-5.63c0,-0.54 -0.125,-0.958 -0.375,-1.254c-0.25,-0.296 -0.625,-0.444 -1.125,-0.444c-0.368,0 -0.713,0.083 -1.034,0.25c-0.322,0.167 -0.627,0.394 -0.914,0.681l0,6.397l-2.13,0Z" style="fill:#4d4d4d;fill-rule:nonzero;"/><path d="M185.74,102.828c0.557,0 1.07,0.089 1.539,0.267c0.468,0.178 0.872,0.438 1.211,0.78c0.339,0.342 0.603,0.762 0.793,1.259c0.19,0.497 0.284,1.065 0.284,1.703c0,0.16 -0.007,0.294 -0.021,0.4c-0.014,0.107 -0.04,0.19 -0.078,0.25c-0.037,0.061 -0.087,0.104 -0.151,0.13c-0.063,0.026 -0.143,0.039 -0.241,0.039l-5.466,0c0.064,0.908 0.308,1.574 0.733,2c0.425,0.425 0.989,0.638 1.69,0.638c0.345,0 0.642,-0.041 0.892,-0.121c0.25,-0.081 0.469,-0.17 0.655,-0.267c0.187,-0.098 0.351,-0.187 0.492,-0.268c0.141,-0.08 0.277,-0.12 0.409,-0.12c0.086,0 0.161,0.017 0.224,0.051c0.064,0.035 0.118,0.084 0.164,0.147l0.621,0.776c-0.236,0.276 -0.5,0.507 -0.793,0.694c-0.293,0.187 -0.599,0.336 -0.918,0.448c-0.319,0.112 -0.644,0.191 -0.975,0.237c-0.33,0.046 -0.65,0.069 -0.961,0.069c-0.615,0 -1.187,-0.102 -1.715,-0.306c-0.529,-0.204 -0.989,-0.506 -1.38,-0.905c-0.391,-0.4 -0.698,-0.894 -0.922,-1.483c-0.224,-0.589 -0.336,-1.272 -0.336,-2.047c0,-0.604 0.097,-1.171 0.293,-1.703c0.195,-0.532 0.475,-0.994 0.84,-1.388c0.365,-0.394 0.811,-0.706 1.337,-0.935c0.525,-0.23 1.119,-0.345 1.78,-0.345Zm0.043,1.526c-0.621,0 -1.107,0.175 -1.457,0.526c-0.351,0.35 -0.575,0.847 -0.673,1.491l4.001,0c0,-0.276 -0.038,-0.536 -0.112,-0.78c-0.075,-0.244 -0.19,-0.459 -0.345,-0.642c-0.155,-0.184 -0.351,-0.33 -0.587,-0.436c-0.235,-0.106 -0.511,-0.159 -0.827,-0.159Z" style="fill:#4d4d4d;fill-rule:nonzero;"/><path d="M191.3,111.811l0,-8.845l1.25,0c0.219,0 0.371,0.04 0.457,0.12c0.086,0.081 0.144,0.219 0.173,0.414l0.129,1.069c0.316,-0.546 0.687,-0.977 1.112,-1.293c0.425,-0.316 0.902,-0.474 1.431,-0.474c0.437,0 0.799,0.1 1.086,0.302l-0.275,1.595c-0.018,0.103 -0.055,0.176 -0.113,0.219c-0.057,0.043 -0.135,0.065 -0.232,0.065c-0.087,0 -0.204,-0.02 -0.354,-0.06c-0.149,-0.041 -0.348,-0.061 -0.595,-0.061c-0.442,0 -0.822,0.122 -1.138,0.367c-0.316,0.244 -0.583,0.602 -0.801,1.073l0,5.509l-2.13,0Z" style="fill:#4d4d4d;fill-rule:nonzero;"/><path d="M207.551,103.078l1.207,0c0.126,0 0.23,0.031 0.31,0.095c0.081,0.063 0.135,0.138 0.164,0.224l1.672,5.621c0.046,0.207 0.089,0.406 0.13,0.599c0.04,0.192 0.074,0.386 0.103,0.582c0.046,-0.196 0.098,-0.39 0.155,-0.582c0.058,-0.193 0.118,-0.392 0.181,-0.599l1.845,-5.656c0.029,-0.086 0.079,-0.158 0.151,-0.215c0.072,-0.058 0.162,-0.086 0.272,-0.086l0.663,0c0.115,0 0.21,0.028 0.285,0.086c0.075,0.057 0.126,0.129 0.155,0.215l1.802,5.656c0.063,0.201 0.119,0.399 0.168,0.594c0.049,0.196 0.096,0.388 0.142,0.578c0.029,-0.19 0.066,-0.388 0.112,-0.595c0.046,-0.207 0.095,-0.399 0.147,-0.577l1.707,-5.621c0.029,-0.092 0.083,-0.168 0.164,-0.229c0.08,-0.06 0.175,-0.09 0.284,-0.09l1.155,0l-2.827,8.733l-1.216,0c-0.149,0 -0.253,-0.098 -0.31,-0.293l-1.931,-5.923c-0.046,-0.132 -0.084,-0.266 -0.112,-0.401c-0.029,-0.135 -0.058,-0.268 -0.087,-0.401c-0.028,0.133 -0.057,0.268 -0.086,0.406c-0.029,0.137 -0.066,0.273 -0.112,0.405l-1.957,5.914c-0.063,0.195 -0.181,0.293 -0.353,0.293l-1.156,0l-2.827,-8.733Z" style="fill:#4d4d4d;fill-rule:nonzero;"/><path d="M221.896,111.811l0,-12.699l1.535,0l0,5.138c0.373,-0.396 0.787,-0.714 1.241,-0.952c0.454,-0.239 0.977,-0.358 1.569,-0.358c0.477,0 0.898,0.079 1.263,0.237c0.365,0.158 0.67,0.382 0.914,0.672c0.244,0.291 0.429,0.64 0.556,1.048c0.126,0.408 0.19,0.859 0.19,1.353l0,5.561l-1.535,0l0,-5.561c0,-0.661 -0.151,-1.174 -0.453,-1.539c-0.301,-0.365 -0.763,-0.547 -1.383,-0.547c-0.454,0 -0.878,0.109 -1.272,0.328c-0.394,0.218 -0.757,0.514 -1.09,0.888l0,6.431l-1.535,0Z" style="fill:#4d4d4d;fill-rule:nonzero;"/><path d="M235.017,102.94c0.638,0 1.214,0.106 1.729,0.319c0.514,0.212 0.951,0.514 1.31,0.905c0.359,0.391 0.635,0.864 0.828,1.418c0.192,0.555 0.289,1.174 0.289,1.858c0,0.69 -0.097,1.31 -0.289,1.862c-0.193,0.552 -0.469,1.023 -0.828,1.414c-0.359,0.391 -0.796,0.691 -1.31,0.901c-0.515,0.21 -1.091,0.315 -1.729,0.315c-0.638,0 -1.214,-0.105 -1.728,-0.315c-0.515,-0.21 -0.953,-0.51 -1.315,-0.901c-0.362,-0.391 -0.641,-0.862 -0.836,-1.414c-0.196,-0.552 -0.293,-1.172 -0.293,-1.862c0,-0.684 0.097,-1.303 0.293,-1.858c0.195,-0.554 0.474,-1.027 0.836,-1.418c0.362,-0.391 0.8,-0.693 1.315,-0.905c0.514,-0.213 1.09,-0.319 1.728,-0.319Zm0,7.793c0.862,0 1.506,-0.289 1.931,-0.866c0.426,-0.578 0.638,-1.384 0.638,-2.418c0,-1.041 -0.212,-1.851 -0.638,-2.432c-0.425,-0.58 -1.069,-0.87 -1.931,-0.87c-0.437,0 -0.816,0.074 -1.138,0.224c-0.322,0.149 -0.59,0.365 -0.806,0.646c-0.215,0.282 -0.376,0.628 -0.483,1.039c-0.106,0.411 -0.159,0.875 -0.159,1.393c0,0.517 0.053,0.98 0.159,1.388c0.107,0.408 0.268,0.751 0.483,1.03c0.216,0.279 0.484,0.493 0.806,0.642c0.322,0.149 0.701,0.224 1.138,0.224Z" style="fill:#4d4d4d;fill-rule:nonzero;"/><rect x="113.401" y="115.213" width="2.129" height="12.811" style="fill:#4d4d4d;fill-rule:nonzero;"/><path d="M122.574,119.041c0.661,0 1.26,0.106 1.797,0.319c0.538,0.212 0.996,0.514 1.375,0.905c0.38,0.391 0.673,0.868 0.88,1.431c0.207,0.563 0.31,1.192 0.31,1.888c0,0.701 -0.103,1.333 -0.31,1.896c-0.207,0.564 -0.5,1.044 -0.88,1.44c-0.379,0.397 -0.837,0.701 -1.375,0.914c-0.537,0.213 -1.136,0.319 -1.797,0.319c-0.661,0 -1.262,-0.106 -1.802,-0.319c-0.54,-0.213 -1.001,-0.517 -1.384,-0.914c-0.382,-0.396 -0.678,-0.876 -0.887,-1.44c-0.21,-0.563 -0.315,-1.195 -0.315,-1.896c0,-0.696 0.105,-1.325 0.315,-1.888c0.209,-0.563 0.505,-1.04 0.887,-1.431c0.383,-0.391 0.844,-0.693 1.384,-0.905c0.54,-0.213 1.141,-0.319 1.802,-0.319Zm0,7.474c0.736,0 1.28,-0.247 1.634,-0.741c0.353,-0.495 0.53,-1.219 0.53,-2.173c0,-0.954 -0.177,-1.681 -0.53,-2.181c-0.354,-0.5 -0.898,-0.75 -1.634,-0.75c-0.747,0 -1.299,0.251 -1.655,0.754c-0.357,0.503 -0.535,1.229 -0.535,2.177c0,0.948 0.178,1.671 0.535,2.168c0.356,0.497 0.908,0.746 1.655,0.746Z" style="fill:#4d4d4d;fill-rule:nonzero;"/><path d="M132.747,128.024l-1.931,0l-3.518,-8.845l1.768,0c0.155,0 0.285,0.037 0.392,0.112c0.106,0.074 0.179,0.169 0.22,0.284l1.707,4.724c0.097,0.276 0.179,0.546 0.245,0.811c0.066,0.264 0.125,0.528 0.177,0.793c0.052,-0.265 0.111,-0.529 0.177,-0.793c0.066,-0.265 0.151,-0.535 0.254,-0.811l1.75,-4.724c0.04,-0.115 0.112,-0.21 0.216,-0.284c0.103,-0.075 0.227,-0.112 0.37,-0.112l1.681,0l-3.508,8.845Z" style="fill:#4d4d4d;fill-rule:nonzero;"/><path d="M140.885,119.041c0.557,0 1.07,0.089 1.539,0.267c0.468,0.178 0.872,0.438 1.211,0.78c0.339,0.342 0.603,0.762 0.793,1.259c0.19,0.497 0.285,1.064 0.285,1.702c0,0.161 -0.008,0.295 -0.022,0.401c-0.014,0.107 -0.04,0.19 -0.078,0.25c-0.037,0.061 -0.087,0.104 -0.15,0.13c-0.064,0.025 -0.144,0.038 -0.242,0.038l-5.466,0c0.064,0.908 0.308,1.575 0.733,2c0.426,0.426 0.989,0.638 1.69,0.638c0.345,0 0.642,-0.04 0.892,-0.12c0.25,-0.081 0.469,-0.17 0.655,-0.268c0.187,-0.097 0.351,-0.186 0.492,-0.267c0.141,-0.08 0.277,-0.121 0.409,-0.121c0.087,0 0.161,0.018 0.224,0.052c0.064,0.035 0.118,0.084 0.164,0.147l0.621,0.776c-0.236,0.275 -0.5,0.507 -0.793,0.694c-0.293,0.186 -0.599,0.336 -0.918,0.448c-0.319,0.112 -0.644,0.191 -0.974,0.237c-0.331,0.046 -0.651,0.069 -0.962,0.069c-0.615,0 -1.187,-0.102 -1.715,-0.306c-0.529,-0.204 -0.989,-0.506 -1.38,-0.905c-0.39,-0.4 -0.698,-0.894 -0.922,-1.483c-0.224,-0.589 -0.336,-1.272 -0.336,-2.048c0,-0.603 0.097,-1.171 0.293,-1.702c0.195,-0.532 0.475,-0.995 0.84,-1.388c0.365,-0.394 0.811,-0.706 1.337,-0.936c0.525,-0.229 1.119,-0.344 1.78,-0.344Zm0.043,1.525c-0.621,0 -1.106,0.176 -1.457,0.526c-0.351,0.351 -0.575,0.848 -0.672,1.492l4,0c0,-0.276 -0.038,-0.536 -0.112,-0.78c-0.075,-0.245 -0.19,-0.459 -0.345,-0.643c-0.155,-0.184 -0.351,-0.329 -0.586,-0.435c-0.236,-0.106 -0.512,-0.16 -0.828,-0.16Z" style="fill:#4d4d4d;fill-rule:nonzero;"/><path d="M151.696,120.903c-0.058,0.092 -0.118,0.156 -0.181,0.194c-0.064,0.037 -0.144,0.056 -0.242,0.056c-0.103,0 -0.214,-0.029 -0.332,-0.086c-0.118,-0.058 -0.254,-0.123 -0.409,-0.194c-0.155,-0.072 -0.332,-0.137 -0.53,-0.194c-0.199,-0.058 -0.433,-0.087 -0.703,-0.087c-0.42,0 -0.75,0.089 -0.991,0.268c-0.242,0.178 -0.363,0.411 -0.363,0.698c0,0.19 0.062,0.349 0.186,0.478c0.123,0.13 0.287,0.243 0.491,0.341c0.204,0.098 0.436,0.185 0.694,0.263c0.259,0.077 0.523,0.162 0.793,0.254c0.27,0.092 0.535,0.197 0.793,0.315c0.259,0.118 0.49,0.267 0.694,0.448c0.204,0.181 0.368,0.398 0.492,0.651c0.123,0.253 0.185,0.557 0.185,0.914c0,0.425 -0.077,0.817 -0.233,1.177c-0.155,0.359 -0.382,0.669 -0.681,0.931c-0.299,0.261 -0.668,0.465 -1.107,0.612c-0.44,0.146 -0.944,0.22 -1.513,0.22c-0.305,0 -0.602,-0.028 -0.893,-0.082c-0.29,-0.055 -0.569,-0.131 -0.836,-0.229c-0.267,-0.097 -0.514,-0.212 -0.741,-0.345c-0.227,-0.132 -0.427,-0.276 -0.6,-0.431l0.492,-0.81c0.063,-0.098 0.138,-0.172 0.224,-0.224c0.086,-0.052 0.195,-0.078 0.328,-0.078c0.132,0 0.257,0.038 0.375,0.112c0.117,0.075 0.254,0.155 0.409,0.242c0.155,0.086 0.338,0.166 0.548,0.241c0.209,0.075 0.475,0.112 0.797,0.112c0.253,0 0.47,-0.03 0.651,-0.09c0.181,-0.061 0.33,-0.14 0.448,-0.237c0.118,-0.098 0.204,-0.212 0.259,-0.341c0.054,-0.129 0.082,-0.263 0.082,-0.401c0,-0.207 -0.062,-0.376 -0.186,-0.509c-0.123,-0.132 -0.287,-0.247 -0.491,-0.344c-0.204,-0.098 -0.437,-0.186 -0.698,-0.263c-0.262,-0.078 -0.529,-0.163 -0.802,-0.255c-0.273,-0.092 -0.54,-0.199 -0.802,-0.323c-0.261,-0.123 -0.494,-0.28 -0.698,-0.47c-0.204,-0.189 -0.368,-0.422 -0.492,-0.698c-0.123,-0.276 -0.185,-0.609 -0.185,-1c0,-0.362 0.072,-0.707 0.216,-1.035c0.143,-0.327 0.355,-0.613 0.633,-0.857c0.279,-0.245 0.627,-0.44 1.043,-0.587c0.417,-0.146 0.898,-0.219 1.444,-0.219c0.61,0 1.164,0.1 1.664,0.301c0.5,0.201 0.917,0.466 1.25,0.793l-0.482,0.768Z" style="fill:#4d4d4d;fill-rule:nonzero;"/><path d="M164.386,128.162c-0.69,0 -1.22,-0.193 -1.591,-0.578c-0.371,-0.385 -0.556,-0.94 -0.556,-1.664l0,-5.345l-1.052,0c-0.092,0 -0.169,-0.027 -0.233,-0.082c-0.063,-0.054 -0.094,-0.139 -0.094,-0.254l0,-0.612l1.431,-0.181l0.353,-2.699c0.012,-0.086 0.049,-0.156 0.112,-0.211c0.063,-0.054 0.144,-0.082 0.242,-0.082l0.776,0l0,3.009l2.5,0l0,1.112l-2.5,0l0,5.242c0,0.367 0.089,0.64 0.267,0.819c0.178,0.178 0.408,0.267 0.689,0.267c0.161,0 0.301,-0.022 0.419,-0.065c0.117,-0.043 0.219,-0.09 0.306,-0.142c0.086,-0.052 0.159,-0.099 0.219,-0.142c0.061,-0.043 0.114,-0.065 0.16,-0.065c0.08,0 0.152,0.049 0.215,0.147l0.449,0.732c-0.265,0.248 -0.584,0.442 -0.957,0.582c-0.374,0.141 -0.759,0.212 -1.155,0.212Z" style="fill:#4d4d4d;fill-rule:nonzero;"/><path d="M171.705,119.153c0.638,0 1.214,0.106 1.728,0.319c0.515,0.212 0.951,0.514 1.311,0.905c0.359,0.391 0.635,0.863 0.827,1.418c0.193,0.555 0.289,1.174 0.289,1.858c0,0.689 -0.096,1.31 -0.289,1.862c-0.192,0.552 -0.468,1.023 -0.827,1.414c-0.36,0.391 -0.796,0.691 -1.311,0.901c-0.514,0.209 -1.09,0.314 -1.728,0.314c-0.638,0 -1.214,-0.105 -1.729,-0.314c-0.514,-0.21 -0.952,-0.51 -1.314,-0.901c-0.362,-0.391 -0.641,-0.862 -0.837,-1.414c-0.195,-0.552 -0.293,-1.173 -0.293,-1.862c0,-0.684 0.098,-1.303 0.293,-1.858c0.196,-0.555 0.475,-1.027 0.837,-1.418c0.362,-0.391 0.8,-0.693 1.314,-0.905c0.515,-0.213 1.091,-0.319 1.729,-0.319Zm0,7.793c0.862,0 1.506,-0.289 1.931,-0.866c0.425,-0.578 0.638,-1.384 0.638,-2.419c0,-1.04 -0.213,-1.85 -0.638,-2.431c-0.425,-0.58 -1.069,-0.87 -1.931,-0.87c-0.437,0 -0.816,0.074 -1.138,0.224c-0.322,0.149 -0.591,0.365 -0.806,0.646c-0.216,0.282 -0.377,0.628 -0.483,1.039c-0.106,0.411 -0.159,0.875 -0.159,1.392c0,0.518 0.053,0.98 0.159,1.388c0.106,0.408 0.267,0.752 0.483,1.031c0.215,0.278 0.484,0.492 0.806,0.642c0.322,0.149 0.701,0.224 1.138,0.224Z" style="fill:#4d4d4d;fill-rule:nonzero;"/><path d="M189.766,121.049c-0.063,0.081 -0.125,0.144 -0.186,0.19c-0.06,0.046 -0.148,0.069 -0.263,0.069c-0.109,0 -0.215,-0.033 -0.319,-0.099c-0.103,-0.066 -0.227,-0.141 -0.37,-0.224c-0.144,-0.084 -0.315,-0.158 -0.513,-0.225c-0.198,-0.066 -0.444,-0.099 -0.737,-0.099c-0.374,0 -0.701,0.068 -0.983,0.203c-0.282,0.135 -0.516,0.329 -0.703,0.582c-0.186,0.253 -0.326,0.559 -0.418,0.918c-0.092,0.359 -0.138,0.766 -0.138,1.22c0,0.471 0.051,0.891 0.151,1.258c0.101,0.368 0.246,0.677 0.436,0.927c0.189,0.25 0.419,0.44 0.689,0.569c0.27,0.13 0.575,0.194 0.914,0.194c0.339,0 0.614,-0.041 0.823,-0.125c0.21,-0.083 0.387,-0.175 0.53,-0.276c0.144,-0.1 0.269,-0.192 0.376,-0.276c0.106,-0.083 0.225,-0.125 0.357,-0.125c0.173,0 0.302,0.067 0.388,0.199l0.612,0.776c-0.235,0.275 -0.491,0.507 -0.767,0.694c-0.276,0.186 -0.562,0.336 -0.858,0.448c-0.296,0.112 -0.602,0.191 -0.918,0.237c-0.316,0.046 -0.629,0.069 -0.94,0.069c-0.546,0 -1.06,-0.102 -1.543,-0.306c-0.482,-0.204 -0.903,-0.502 -1.263,-0.892c-0.359,-0.391 -0.643,-0.87 -0.853,-1.436c-0.21,-0.566 -0.315,-1.211 -0.315,-1.935c0,-0.65 0.094,-1.252 0.28,-1.806c0.187,-0.555 0.462,-1.035 0.824,-1.44c0.362,-0.405 0.81,-0.723 1.345,-0.953c0.534,-0.229 1.149,-0.344 1.844,-0.344c0.661,0 1.24,0.106 1.738,0.319c0.497,0.212 0.944,0.517 1.34,0.913l-0.56,0.776Z" style="fill:#4d4d4d;fill-rule:nonzero;"/><path d="M196.413,119.041c0.66,0 1.26,0.106 1.797,0.319c0.537,0.212 0.996,0.514 1.375,0.905c0.379,0.391 0.672,0.868 0.879,1.431c0.207,0.563 0.311,1.192 0.311,1.888c0,0.701 -0.104,1.333 -0.311,1.896c-0.207,0.564 -0.5,1.044 -0.879,1.44c-0.379,0.397 -0.838,0.701 -1.375,0.914c-0.537,0.213 -1.137,0.319 -1.797,0.319c-0.661,0 -1.262,-0.106 -1.802,-0.319c-0.541,-0.213 -1.002,-0.517 -1.384,-0.914c-0.382,-0.396 -0.678,-0.876 -0.888,-1.44c-0.21,-0.563 -0.315,-1.195 -0.315,-1.896c0,-0.696 0.105,-1.325 0.315,-1.888c0.21,-0.563 0.506,-1.04 0.888,-1.431c0.382,-0.391 0.843,-0.693 1.384,-0.905c0.54,-0.213 1.141,-0.319 1.802,-0.319Zm0,7.474c0.735,0 1.28,-0.247 1.633,-0.741c0.354,-0.495 0.53,-1.219 0.53,-2.173c0,-0.954 -0.176,-1.681 -0.53,-2.181c-0.353,-0.5 -0.898,-0.75 -1.633,-0.75c-0.748,0 -1.299,0.251 -1.656,0.754c-0.356,0.503 -0.534,1.229 -0.534,2.177c0,0.948 0.178,1.671 0.534,2.168c0.357,0.497 0.908,0.746 1.656,0.746Z" style="fill:#4d4d4d;fill-rule:nonzero;"/><path d="M208.663,128.024c-0.276,0 -0.457,-0.13 -0.543,-0.388l-0.173,-0.854c-0.184,0.207 -0.376,0.394 -0.577,0.561c-0.201,0.166 -0.418,0.31 -0.651,0.431c-0.233,0.12 -0.483,0.214 -0.75,0.28c-0.267,0.066 -0.556,0.099 -0.867,0.099c-0.482,0 -0.925,-0.101 -1.327,-0.302c-0.403,-0.201 -0.749,-0.493 -1.039,-0.875c-0.29,-0.382 -0.514,-0.855 -0.672,-1.418c-0.159,-0.563 -0.238,-1.207 -0.238,-1.931c0,-0.655 0.09,-1.264 0.268,-1.828c0.178,-0.563 0.434,-1.051 0.767,-1.465c0.333,-0.414 0.733,-0.737 1.198,-0.97c0.466,-0.233 0.989,-0.349 1.569,-0.349c0.495,0 0.917,0.079 1.268,0.237c0.35,0.158 0.663,0.369 0.939,0.633l0,-4.672l2.13,0l0,12.811l-1.302,0Zm-2.836,-1.561c0.442,0 0.819,-0.092 1.129,-0.276c0.31,-0.184 0.603,-0.445 0.879,-0.784l0,-3.966c-0.241,-0.293 -0.504,-0.5 -0.789,-0.621c-0.284,-0.12 -0.59,-0.181 -0.918,-0.181c-0.322,0 -0.613,0.061 -0.875,0.181c-0.261,0.121 -0.482,0.304 -0.664,0.548c-0.181,0.244 -0.32,0.555 -0.418,0.931c-0.097,0.376 -0.146,0.82 -0.146,1.332c0,0.517 0.041,0.955 0.125,1.315c0.083,0.359 0.202,0.652 0.358,0.879c0.155,0.227 0.344,0.391 0.569,0.491c0.224,0.101 0.474,0.151 0.75,0.151Z" style="fill:#4d4d4d;fill-rule:nonzero;"/><path d="M215.922,119.041c0.557,0 1.07,0.089 1.539,0.267c0.468,0.178 0.872,0.438 1.211,0.78c0.339,0.342 0.603,0.762 0.793,1.259c0.19,0.497 0.284,1.064 0.284,1.702c0,0.161 -0.007,0.295 -0.021,0.401c-0.014,0.107 -0.04,0.19 -0.078,0.25c-0.037,0.061 -0.087,0.104 -0.151,0.13c-0.063,0.025 -0.143,0.038 -0.241,0.038l-5.466,0c0.064,0.908 0.308,1.575 0.733,2c0.425,0.426 0.989,0.638 1.69,0.638c0.345,0 0.642,-0.04 0.892,-0.12c0.25,-0.081 0.469,-0.17 0.655,-0.268c0.187,-0.097 0.351,-0.186 0.492,-0.267c0.141,-0.08 0.277,-0.121 0.409,-0.121c0.086,0 0.161,0.018 0.224,0.052c0.064,0.035 0.118,0.084 0.164,0.147l0.621,0.776c-0.236,0.275 -0.5,0.507 -0.793,0.694c-0.293,0.186 -0.599,0.336 -0.918,0.448c-0.319,0.112 -0.644,0.191 -0.975,0.237c-0.33,0.046 -0.65,0.069 -0.961,0.069c-0.615,0 -1.187,-0.102 -1.715,-0.306c-0.529,-0.204 -0.989,-0.506 -1.38,-0.905c-0.391,-0.4 -0.698,-0.894 -0.922,-1.483c-0.224,-0.589 -0.336,-1.272 -0.336,-2.048c0,-0.603 0.097,-1.171 0.293,-1.702c0.195,-0.532 0.475,-0.995 0.84,-1.388c0.365,-0.394 0.811,-0.706 1.337,-0.936c0.525,-0.229 1.119,-0.344 1.78,-0.344Zm0.043,1.525c-0.621,0 -1.106,0.176 -1.457,0.526c-0.351,0.351 -0.575,0.848 -0.673,1.492l4.001,0c0,-0.276 -0.038,-0.536 -0.112,-0.78c-0.075,-0.245 -0.19,-0.459 -0.345,-0.643c-0.155,-0.184 -0.351,-0.329 -0.587,-0.435c-0.235,-0.106 -0.511,-0.16 -0.827,-0.16Z" style="fill:#4d4d4d;fill-rule:nonzero;"/></g></g></g></svg>