<?xml version="1.0" standalone="no"?><!DOCTYPE svg PUBLIC "-//W3C//DTD SVG 1.1//EN" "http://www.w3.org/Graphics/SVG/1.1/DTD/svg11.dtd"><svg width="100%" height="100%" viewBox="0 0 158 100" version="1.1" xmlns="http://www.w3.org/2000/svg" xmlns:xlink="http://www.w3.org/1999/xlink" xml:space="preserve" style="fill-rule:evenodd;clip-rule:evenodd;stroke-linejoin:round;stroke-miterlimit:1.41421;"><g><g><path d="M58.485,53.901c0.081,-0.082 0.159,-0.122 0.263,-0.119c0.104,0.002 0.185,0.052 0.307,0.174c0.089,0.09 0.142,0.156 0.164,0.246c-0.001,-0.021 0.006,-0.043 0.001,-0.062c-0.021,-0.092 -0.075,-0.159 -0.165,-0.249c-0.122,-0.122 -0.203,-0.174 -0.307,-0.177c-0.104,-0.002 -0.183,0.039 -0.263,0.119l-0.221,0.225l0.033,0.031l0.188,-0.188ZM60.462,51.92l0.105,0.104l0.033,-0.032l-0.139,-0.141l-0.488,0.489l0.034,0.032l0.455,-0.452ZM59.897,52.486l0.104,0.105l0.034,-0.033l-0.139,-0.14l-0.488,0.49l0.033,0.032l0.456,-0.454ZM58.113,54.273l0.105,0.104l0.033,-0.031l-0.139,-0.14l-0.488,0.49l0.033,0.032l0.456,-0.455ZM61.053,51.327l0.106,0.104l0.033,-0.032l-0.139,-0.14l-0.439,0.439l0.033,0.033l0.406,-0.404ZM57.149,55.239l0.416,0.195l-0.04,-0.088l-0.375,-0.176l-0.156,0.156l0.046,0.021l0.109,-0.108ZM61.925,51.375c0.055,-0.056 0.067,-0.103 0.052,-0.148c-0.007,0.024 -0.023,0.051 -0.052,0.081l-0.083,0.085l-0.287,-0.288l-0.034,0.034l0.321,0.319l0.083,-0.083ZM62.073,50.307l0.843,0.397l0.003,-0.003l-0.121,-0.121l-0.725,-0.341l-0.142,0.142l0.033,0.032l0.109,-0.106ZM61.202,51.995l-0.268,-0.271l-0.034,0.034l0.301,0.305l0.255,-0.257l0.106,0.105l0.033,-0.033l-0.139,-0.14l-0.254,0.257ZM59.812,53.844l-0.107,0.107l-0.222,-0.33l-0.076,-0.051l-0.002,0.004l0.3,0.445l0.147,-0.147l-0.04,-0.028ZM60.431,52.23l0.856,0.856l0.034,-0.031l-0.857,-0.859l-0.033,0.034ZM61.643,52.438l-0.269,-0.271l-0.033,0.033l0.302,0.303l0.292,-0.291l0.114,0.112l0.033,-0.032l-0.147,-0.146l-0.292,0.292ZM59.049,53.269l0.027,0.041l0.096,-0.097l1.218,0.775l0.041,-0.042l-1.259,-0.801l-0.123,0.124ZM59.818,54.186l0.152,0.225l0.027,-0.026l-0.152,-0.227l-0.027,0.028ZM59.864,52.798l0.857,0.857l0.034,-0.034l-0.856,-0.856l-0.035,0.033ZM61.973,51.588l0.404,0.407l0.034,-0.034l-0.405,-0.406l-0.033,0.033ZM62.493,50.708l-0.003,0.003l0.584,0.586l0.033,-0.031l-0.502,-0.505l-0.112,-0.053ZM62.298,50.014l0.034,0.031l0.113,-0.112l0.996,0.997l0.034,-0.032l-1.03,-1.032l-0.147,0.148ZM62.035,50.882c-0.199,-0.198 -0.388,-0.217 -0.563,-0.041l-0.237,0.236l0.034,0.034l0.203,-0.204c0.175,-0.176 0.364,-0.157 0.563,0.043c0.119,0.12 0.171,0.239 0.129,0.384l0.584,0.29l0.044,-0.046l-0.629,-0.311c0.043,-0.146 -0.011,-0.266 -0.128,-0.385ZM56.748,55.919l-0.033,0.034l0.302,0.303l0.254,-0.256l0.105,0.106l0.033,-0.033l-0.139,-0.14l-0.253,0.256l-0.269,-0.27ZM56.382,56.219l0.033,-0.031l-0.139,-0.142l-0.488,0.49l0.033,0.032l0.455,-0.454l0.106,0.105ZM56.245,56.424l0.857,0.857l0.034,-0.032l-0.857,-0.858l-0.034,0.033ZM57.457,56.631l-0.268,-0.271l-0.034,0.034l0.302,0.303l0.292,-0.291l0.114,0.112l0.034,-0.032l-0.147,-0.148l-0.293,0.293ZM56.867,55.522l0.106,0.104l0.033,-0.032l-0.139,-0.139l-0.438,0.439l0.033,0.032l0.405,-0.404ZM58.081,54.585l0.856,0.857l0.034,-0.034l-0.856,-0.857l-0.034,0.034ZM57.942,55.812l0.198,0.428l0.022,-0.021l-0.181,-0.389l-0.039,-0.018ZM58.971,54.326l-0.07,0.069l-0.316,-0.315l-0.034,0.034l0.35,0.35l0.07,-0.07c0.061,-0.062 0.072,-0.109 0.057,-0.155c-0.008,0.026 -0.024,0.054 -0.057,0.087ZM57.528,54.791l-0.156,0.156l0.021,0.049l0.134,-0.136l0.294,0.687l0.705,0.307l0.047,-0.046l-0.752,-0.327l-0.293,-0.69ZM59.04,54.604l0.368,0.369l0.034,-0.034l-0.369,-0.369l-0.033,0.034ZM101.182,66.214c-0.092,-0.091 -0.055,-0.052 0,0ZM89.51,42.604c0,0 1.258,1.434 1.93,2.104c0.672,0.675 2.135,2.072 2.135,2.072c0,0 -0.861,-1.043 -1.895,-2.078c-1.034,-1.035 -2.17,-2.098 -2.17,-2.098ZM95.707,45.062c-3.554,-3.562 -7.124,-7.459 -10.379,-10.998l9.258,-9.278c2.354,-2.356 7.536,-4.825 7.536,-4.825l6.498,-6.51l1.147,-1.697l-8.404,-8.425l-1.691,1.148l-6.502,6.517c0,0 -2.459,5.194 -4.812,7.552l-9.07,9.086c-0.203,-0.208 -0.407,-0.418 -0.605,-0.614c-3.405,-3.413 -9.053,-8.542 -11.583,-10.821l6.08,-6.093l0,-1.555c0,0 -1.236,-1.743 -4.014,-4.527c-2.777,-2.787 -4.521,-4.022 -4.521,-4.022l-1.55,0l-19.851,19.894l0,1.552c0,0 1.233,1.747 4.013,4.532c2.203,2.206 4.521,4.021 4.521,4.021l1.55,0l6.069,-6.083c2.276,2.536 7.394,8.195 10.802,11.608c0.197,0.196 0.407,0.4 0.615,0.607l-19.428,19.468c-1.139,1.141 -3.016,1.656 -3.016,1.656l-1.79,1.795c0,0 1.438,2.29 3.275,4.131c1.836,1.842 4.305,3.485 4.305,3.485l1.799,-1.806c0,0 0.515,-1.882 1.655,-3.022l19.619,-19.657c3.53,3.261 7.421,6.839 10.975,10.401c6.869,6.884 12.91,13.565 13.08,13.734c0.947,0.949 3.356,-0.145 5.672,-2.464c2.439,-2.445 3.319,-4.819 2.511,-5.631c-0.306,-0.301 -6.898,-6.277 -13.764,-13.159ZM68.17,18.287c2.852,2.586 7.149,6.538 9.924,9.32c0.194,0.193 0.4,0.407 0.604,0.615l-1.506,1.51c-0.9,-0.901 -1.889,-1.892 -1.889,-1.892c0,0 0.891,1.14 1.709,2.069l-1.062,1.063c-1.2,-1.219 -2.221,-2.251 -2.631,-2.663c-1.223,-1.227 -2.513,-2.484 -3.031,-3.003c-0.517,-0.519 -1.412,-1.589 -1.963,-2.142c-0.552,-0.552 -1.481,-1.38 -2.136,-2.036c-0.192,-0.192 -0.493,-0.487 -0.838,-0.824c0.319,-0.362 0.689,-0.704 1.066,-1.008c0.897,0.969 1.923,2.057 2.907,3.04c2.532,2.537 5.356,4.987 5.356,4.987c0,0 -2.065,-2.07 -5.184,-5.194c-1.03,-1.031 -2.049,-2.055 -2.938,-2.943c0.578,-0.438 1.161,-0.776 1.612,-0.899c0.002,0 0.002,0 0,0ZM75.023,31.905l-0.477,0.477c-0.386,-0.377 -0.754,-0.74 -1.062,-1.05c-1.827,-1.832 -4.074,-4.182 -6.26,-6.371c-0.831,-0.833 -1.897,-1.909 -2.903,-2.928c0.078,-0.226 0.173,-0.454 0.293,-0.68c1.113,1.066 2.325,2.239 3.264,3.182c1.237,1.24 3.17,2.864 3.17,2.864c-1.428,-1.467 -3.157,-3.396 -3.771,-4.011c-0.643,-0.646 -1.572,-1.497 -2.485,-2.328c0.106,-0.172 0.227,-0.342 0.363,-0.51c0.361,0.298 0.658,0.548 0.898,0.788c0.706,0.708 1.868,1.83 2.282,2.243c0.414,0.414 1.542,1.521 2.369,2.349c0.826,0.826 2.557,2.713 2.988,3.145c0.767,0.767 1.428,1.406 2.104,2.058l-0.588,0.589c-2.398,-2.226 -5.321,-4.885 -5.321,-4.885c0.603,0.606 2.71,2.682 5.136,5.068ZM58.329,16.876l-1.173,-1.174l-0.226,0.225l-0.183,-0.183l0.042,-0.043l0.141,0.142l0.226,-0.225l1.173,1.174l0.153,-0.152l0.042,0.043l-0.195,0.193ZM57.35,15.423l0.185,-0.184l0.042,0.042l-0.184,0.185l-0.043,-0.043ZM58.775,16.428l-0.435,-0.985l-0.899,-0.395l0.059,-0.059l0.84,0.368l0.435,0.985l0.18,-0.18l0.026,0.058l-0.206,0.208ZM57.941,14.547l0.026,-0.025l0.228,0.495l-0.049,-0.023l-0.205,-0.447ZM59.32,15.885l-0.579,-0.267l-0.049,-0.105l0.627,0.287l0.147,-0.146l0.059,0.023l-0.205,0.208ZM59.612,15.591l-1.356,-1.357l0.042,-0.043l1.314,1.315l0.154,-0.151l0.041,0.043l-0.195,0.193ZM58.634,14.137l0.101,-0.101c0.152,-0.152 0.257,-0.047 0.384,0.081c0.098,0.098 0.168,0.174 0.145,0.268c-0.02,-0.06 -0.077,-0.116 -0.145,-0.185c-0.126,-0.128 -0.231,-0.232 -0.384,-0.081l-0.06,0.062l-0.041,-0.044ZM59.277,14.781l0.099,-0.099c0.116,-0.116 0.146,-0.229 0.139,-0.343l0.001,0.003c0.035,0.142 0.002,0.279 -0.141,0.424l-0.057,0.058l-0.041,-0.043ZM54.061,10.841c-3.836,3.847 -9.276,9.649 -9.276,9.649c0,0 1.109,2.127 3.465,4.488c2.356,2.361 4.478,3.471 4.478,3.471l0.252,0.714l-0.94,0c0,0 -1.45,-1.024 -4.198,-3.778c-2.748,-2.754 -3.771,-4.204 -3.771,-4.204l0,-0.942l19.367,-19.407l0.94,0c0,0 1.45,1.024 4.198,3.777c2.748,2.755 3.77,4.206 3.77,4.206l0,0.941l-0.713,-0.253c0,0 -1.189,-2.045 -3.544,-4.405c-2.356,-2.362 -4.399,-3.554 -4.399,-3.554c0,0 -5.791,5.451 -9.629,9.297ZM64.232,22.341c1.385,1.327 2.81,2.696 3.431,3.319c1.39,1.392 3.451,3.646 4.716,4.913c0.39,0.391 1.167,1.119 2.046,1.932l-0.295,0.295c-1.567,-1.529 -3.719,-3.615 -6.716,-6.618c-1.198,-1.2 -2.306,-2.287 -3.265,-3.214c0.003,-0.21 0.031,-0.419 0.083,-0.627ZM64.973,24.849c-0.459,-0.46 -0.697,-0.937 -0.786,-1.415c1.698,1.646 3.623,3.522 4.974,4.877c1.356,1.358 3.14,3.076 4.809,4.65l-0.445,0.447c-2.833,-2.836 -6.648,-6.656 -8.552,-8.559ZM55.886,60.111c-1.362,1.366 -2.043,2.958 -2.043,2.958l-1.135,1.138l1.364,1.365c0,0 -2.374,-1.722 -3.63,-2.981c-1.257,-1.26 -2.784,-3.445 -2.784,-3.445l1.135,-1.139c0,0 1.817,-0.454 3.179,-1.818l35.72,-35.795l0.083,-0.084l1.172,-1.175c2.382,-2.388 4.995,-7.733 4.995,-7.733l6.266,-6.279l1.056,-0.716l7.434,7.45l-0.715,1.059l-6.266,6.278c0,0 -6.47,1.479 -8.853,3.867l-1.256,1.257l-0.001,0l-35.721,35.793ZM108.35,60.823c-0.885,-0.771 -3.988,-3.477 -4.681,-4.172c-0.811,-0.812 -3.102,-3.113 -3.583,-3.597c-0.482,-0.483 -2.213,-1.839 -2.213,-1.839c0,0 1.196,1.312 1.525,1.639c0.326,0.328 2.152,1.848 3.513,3.211c1.169,1.172 4.289,4.349 5.147,5.224c-0.278,0.401 -0.643,0.858 -1.111,1.371c-0.746,-0.652 -3.102,-2.723 -4.139,-3.763c-1.241,-1.243 -2.344,-2.244 -3.653,-3.559c-1.308,-1.31 -2.601,-2.46 -3.754,-3.616c-1.154,-1.157 -4.478,-4.635 -4.478,-4.635c0,0 3.393,3.887 4.649,5.146c1.256,1.259 2.151,1.88 3.651,3.383c1.5,1.502 3.763,3.867 4.658,4.764c0.723,0.726 2.315,1.99 2.902,2.449c-0.133,0.143 -0.268,0.283 -0.417,0.436c-0.226,0.227 -0.438,0.426 -0.646,0.614c0,0 0.002,-0.002 0.004,-0.003c-0.211,-0.026 -0.439,-0.204 -0.721,-0.484c-0.315,-0.315 -6.705,-6.821 -13.574,-13.706c-2.553,-2.56 -7.597,-7.223 -8.303,-7.845c-0.57,-0.5 -0.842,-1.004 -0.916,-1.51c0.75,0.69 1.506,1.407 2.188,2.09c1.967,1.973 4.036,3.802 4.036,3.802c0,0 -3.367,-3.474 -4.85,-4.959c-0.33,-0.331 -0.82,-0.772 -1.396,-1.272c0.008,-0.285 0.073,-0.568 0.188,-0.851c0.937,0.924 1.637,1.613 1.93,1.907c1.464,1.468 3.136,3.279 3.996,4.144c0.859,0.864 3.236,3.313 3.236,3.313c0,0 -3.203,-3.626 -5.062,-5.487c-0.899,-0.902 -2.432,-2.475 -4.008,-4.092c0.058,-0.116 0.119,-0.232 0.188,-0.352c0.062,-0.103 0.142,-0.208 0.22,-0.313c1.682,1.739 3.258,3.37 3.772,3.888c1.69,1.691 4.013,4.131 5.2,5.32c1.188,1.191 3.875,3.773 5.236,5.137c1.361,1.362 3.17,3.112 4.375,4.321c1.207,1.208 4.471,3.983 4.471,3.983c0,0 -5.193,-5.129 -7.053,-6.994c-1.859,-1.863 -4.219,-3.958 -5.375,-5.115c-1.608,-1.611 -4.252,-4.456 -5.615,-5.817c-1.359,-1.365 -1.773,-1.606 -2.065,-1.899c-0.209,-0.21 -1.724,-1.797 -2.845,-2.961c0.771,-0.979 2.103,-1.993 3.042,-2.071c2.893,3.143 6.003,6.502 9.096,9.602c6.871,6.885 13.663,13.062 13.733,13.133c0.054,0.048 0.309,0.67 -0.498,2.035Z" style="fill:#fff;fill-rule:nonzero;"/><path d="M17.71,78.956c0.062,-0.409 0.109,-0.871 0.14,-1.372l0.092,-1.512c0.031,-0.516 0.057,-1.018 0.077,-1.503c0.021,-0.488 0.031,-0.928 0.031,-1.318l0,-0.215l-18.05,-0.036l0,0.43c0,0.391 0.01,0.656 0.03,1.153c0.02,0.495 0.046,1.003 0.077,1.519c0.03,0.516 0.065,1.021 0.106,1.518c0.04,0.496 0.092,0.947 0.153,1.34l0.028,0.181l1.077,0l1.609,-4.16l4.295,0l0.002,17.082c-0.464,0.072 -0.906,0.162 -1.314,0.268c-0.458,0.116 -0.917,0.255 -1.367,0.412l-0.142,0.05l0,1.211l8.945,0l0,-1.203l-0.131,-0.055c-0.434,-0.178 -0.89,-0.318 -1.355,-0.417c-0.407,-0.087 -0.843,-0.173 -1.307,-0.261l-0.002,-17.087l4.264,0l1.596,4.16l1.118,0l0.028,-0.185Z" style="fill:#fff;fill-rule:nonzero;"/><path d="M28.785,79.976c-0.556,-0.438 -1.199,-0.757 -1.911,-0.944c-0.703,-0.187 -1.425,-0.28 -2.146,-0.28c-2.234,0 -3.991,0.67 -5.22,1.993c-1.226,1.32 -1.848,3.255 -1.848,5.755c0,1.171 0.162,2.239 0.482,3.178c0.321,0.943 0.801,1.769 1.425,2.449c0.626,0.683 1.418,1.213 2.354,1.577c0.93,0.363 2.018,0.547 3.231,0.547c0.559,0 1.115,-0.065 1.656,-0.192c0.54,-0.128 1.043,-0.303 1.498,-0.519c0.458,-0.217 0.871,-0.479 1.228,-0.775c0.364,-0.306 0.638,-0.638 0.812,-0.988l0.066,-0.133l-0.659,-0.714l-0.15,0.127c-0.339,0.285 -0.863,0.522 -1.558,0.705c-0.708,0.188 -1.415,0.281 -2.104,0.281c-0.838,0 -1.575,-0.144 -2.191,-0.428c-0.615,-0.281 -1.131,-0.675 -1.534,-1.166c-0.405,-0.493 -0.714,-1.083 -0.917,-1.753c-0.187,-0.614 -0.29,-1.28 -0.307,-1.983l9.427,0l0.035,-0.168c0.083,-0.392 0.14,-0.764 0.171,-1.104c0.03,-0.342 0.046,-0.683 0.046,-1.012c0,-1.062 -0.176,-1.972 -0.521,-2.697c-0.346,-0.726 -0.806,-1.319 -1.365,-1.756ZM24.607,80.441c0.967,0 1.655,0.327 2.104,1c0.459,0.688 0.693,1.638 0.693,2.814c0,0.149 -0.005,0.304 -0.015,0.461c-0.007,0.102 -0.015,0.201 -0.025,0.306l-6.268,0c0.132,-1.687 0.478,-2.88 1.028,-3.55c0.572,-0.695 1.383,-1.031 2.483,-1.031Z" style="fill:#fff;fill-rule:nonzero;"/><path d="M46.126,92.463c-0.256,-0.101 -0.518,-0.196 -0.783,-0.288l-4.657,-6.195l4.013,-5.118c0.734,-0.214 1.303,-0.452 1.691,-0.706l0.096,-0.064l0,-1.09l-5.484,0l0,1.079l0.082,0.064c0.3,0.233 0.728,0.444 1.305,0.644l-2.759,3.896l-2.811,-3.894c0.187,-0.066 0.363,-0.145 0.527,-0.233c0.241,-0.132 0.485,-0.274 0.726,-0.43l0.098,-0.063l0,-1.062l-6.517,0l0,1.091l0.099,0.064c0.251,0.16 0.5,0.298 0.738,0.405c0.221,0.103 0.467,0.2 0.734,0.294l4.411,5.703l-4.374,5.607c-0.561,0.144 -1.127,0.379 -1.685,0.704l-0.105,0.062l0,1.067l5.606,0l0,-1.072l-0.109,-0.06c-0.247,-0.138 -0.493,-0.267 -0.74,-0.385c-0.169,-0.081 -0.351,-0.159 -0.543,-0.232l3.064,-4.31l3.037,4.308c-0.162,0.064 -0.326,0.138 -0.488,0.224c-0.244,0.126 -0.508,0.269 -0.793,0.425l-0.11,0.061l0,1.043l6.639,0l0,-1.062l-0.099,-0.064c-0.253,-0.164 -0.526,-0.303 -0.809,-0.413Z" style="fill:#fff;fill-rule:nonzero;"/><path d="M57.714,91.664c-0.367,0.131 -0.82,0.221 -1.347,0.269c-0.538,0.048 -0.991,0.071 -1.348,0.071c-0.71,0 -1.224,-0.213 -1.57,-0.647c-0.351,-0.444 -0.529,-1.231 -0.529,-2.34l0,-8.017l4.553,0l0,-2l-4.553,0l0,-4l-0.967,0l-0.083,0.019c-0.346,0.156 -0.695,0.317 -1.05,0.483c-0.368,0.173 -0.694,0.374 -0.969,0.599l-0.079,0.062l0,2.424c-0.81,0.21 -1.592,0.552 -2.328,1.015l-0.1,0.062l0,1.336l2.428,0l0,8.837c0,1.53 0.342,2.66 1.017,3.358c0.676,0.7 1.659,1.055 2.925,1.055c0.48,0 0.957,-0.062 1.417,-0.183c0.454,-0.12 0.879,-0.271 1.263,-0.45c0.383,-0.181 0.729,-0.372 1.028,-0.573c0.305,-0.202 0.547,-0.398 0.721,-0.588l0.101,-0.109l-0.359,-0.741l-0.171,0.058Z" style="fill:#fff;fill-rule:nonzero;"/><path d="M68.617,78.75c-1.215,0 -2.219,0.314 -2.982,0.938c-0.553,0.453 -1.02,1.02 -1.394,1.693l0,-2.631l-0.996,0.002c-0.656,0.101 -1.331,0.233 -2.006,0.399c-0.686,0.167 -1.365,0.392 -2.019,0.668l-0.129,0.055l0,1.099l2.003,0.231l0,16.979c-0.608,0.157 -1.24,0.385 -1.879,0.675l-0.125,0.057l0,1.087l7.154,0l0,-1.072l-0.105,-0.062c-0.375,-0.221 -0.735,-0.389 -1.071,-0.501c-0.274,-0.09 -0.551,-0.158 -0.827,-0.203l0,-4.144c0.409,0.157 0.793,0.273 1.147,0.349c0.436,0.089 1.042,0.136 1.802,0.136c1.094,0 2.105,-0.192 3.007,-0.572c0.903,-0.379 1.684,-0.928 2.319,-1.631c0.634,-0.7 1.129,-1.571 1.471,-2.591c0.34,-1.014 0.513,-2.159 0.513,-3.404c0,-2.635 -0.519,-4.57 -1.54,-5.758c-1.028,-1.194 -2.49,-1.799 -4.343,-1.799ZM71.171,86.305c0,0.951 -0.1,1.832 -0.296,2.621c-0.197,0.783 -0.479,1.477 -0.839,2.058c-0.355,0.574 -0.792,1.023 -1.297,1.336c-0.501,0.31 -1.073,0.467 -1.7,0.467c-0.71,0 -1.292,-0.052 -1.729,-0.155c-0.39,-0.092 -0.748,-0.226 -1.068,-0.398l0,-8.035c0.233,-0.997 0.632,-1.79 1.184,-2.358c0.544,-0.56 1.291,-0.844 2.221,-0.844c0.649,0 1.202,0.129 1.645,0.383c0.442,0.255 0.804,0.616 1.077,1.08c0.279,0.472 0.484,1.039 0.61,1.685c0.128,0.65 0.192,1.378 0.192,2.16Z" style="fill:#fff;fill-rule:nonzero;"/><path d="M88.221,91.003c-0.021,-0.299 -0.03,-0.661 -0.03,-1.08c0,-0.976 0.026,-2.003 0.075,-3.053c0.051,-1.068 0.076,-2.19 0.076,-3.333c0,-0.548 -0.052,-1.103 -0.154,-1.652c-0.107,-0.564 -0.334,-1.088 -0.676,-1.555c-0.344,-0.467 -0.846,-0.853 -1.494,-1.145c-0.642,-0.289 -1.502,-0.437 -2.558,-0.437c-1.165,0 -2.239,0.128 -3.194,0.38c-0.955,0.254 -1.833,0.609 -2.613,1.059l-0.114,0.064l0.009,0.133c0.041,0.604 0.14,1.228 0.294,1.851c0.153,0.619 0.333,1.227 0.537,1.804l0.049,0.141l1.074,0l1.445,-3.497c0.298,-0.108 0.603,-0.176 0.907,-0.199c0.349,-0.028 0.664,-0.042 0.938,-0.042c0.562,0 1.019,0.117 1.354,0.352c0.339,0.233 0.6,0.569 0.775,0.999c0.182,0.445 0.291,0.992 0.318,1.625c0.027,0.6 0.007,1.276 -0.059,2.021c-1.344,0.075 -2.545,0.184 -3.571,0.32c-1.085,0.146 -2.015,0.391 -2.758,0.723c-0.762,0.341 -1.348,0.816 -1.743,1.413c-0.396,0.598 -0.597,1.369 -0.597,2.291c0,1.208 0.417,2.199 1.238,2.948c0.813,0.741 1.876,1.118 3.158,1.118c0.669,0 1.275,-0.102 1.803,-0.301c0.523,-0.199 0.987,-0.462 1.379,-0.782c0.391,-0.32 0.713,-0.692 0.957,-1.105c0.104,-0.172 0.191,-0.347 0.266,-0.52c0.018,0.354 0.039,0.688 0.062,1.001c0.042,0.552 0.172,1.065 0.383,1.527l0.057,0.121l0.925,-0.003c0.571,-0.098 1.178,-0.243 1.802,-0.438c0.623,-0.193 1.199,-0.42 1.715,-0.675l0.117,-0.059l0,-0.923l-2.105,-0.287c-0.014,-0.282 -0.032,-0.55 -0.047,-0.805ZM84.283,91.126c-0.245,0.25 -0.555,0.47 -0.915,0.649c-0.354,0.178 -0.772,0.267 -1.245,0.267c-0.719,0 -1.268,-0.201 -1.675,-0.614c-0.401,-0.406 -0.606,-1.001 -0.606,-1.765c0,-0.447 0.076,-0.85 0.226,-1.193c0.143,-0.329 0.409,-0.611 0.793,-0.837c0.401,-0.234 0.969,-0.411 1.688,-0.521c0.689,-0.105 1.578,-0.163 2.645,-0.169l0,2.773c-0.059,0.171 -0.161,0.382 -0.305,0.631c-0.153,0.263 -0.357,0.525 -0.606,0.779Z" style="fill:#fff;fill-rule:nonzero;"/><path d="M101.482,91.664c-0.367,0.132 -0.82,0.22 -1.348,0.27c-0.537,0.047 -0.992,0.07 -1.348,0.07c-0.71,0 -1.225,-0.212 -1.57,-0.648c-0.352,-0.443 -0.529,-1.229 -0.529,-2.339l0,-8.017l4.554,0l0,-2l-4.554,0l0,-4l-0.967,0l-0.082,0.02c-0.347,0.155 -0.695,0.316 -1.051,0.482c-0.367,0.173 -0.693,0.374 -0.969,0.599l-0.079,0.063l0,2.423c-0.81,0.21 -1.592,0.552 -2.327,1.015l-0.101,0.062l0,1.336l2.428,0l0,8.838c0,1.529 0.343,2.659 1.017,3.357c0.676,0.7 1.66,1.055 2.926,1.055c0.48,0 0.957,-0.062 1.417,-0.183c0.454,-0.12 0.879,-0.271 1.264,-0.451c0.382,-0.18 0.728,-0.371 1.028,-0.572c0.304,-0.202 0.546,-0.398 0.72,-0.588l0.103,-0.109l-0.359,-0.742l-0.173,0.059Z" style="fill:#fff;fill-rule:nonzero;"/><path d="M112.713,91.664c-0.367,0.132 -0.82,0.22 -1.348,0.27c-0.538,0.047 -0.991,0.07 -1.348,0.07c-0.711,0 -1.225,-0.212 -1.569,-0.648c-0.351,-0.443 -0.53,-1.229 -0.53,-2.339l0,-8.017l4.553,0l0,-2l-4.553,0l0,-4l-0.966,0l-0.083,0.02c-0.345,0.155 -0.695,0.316 -1.049,0.482c-0.369,0.173 -0.694,0.374 -0.969,0.599l-0.08,0.063l0,2.423c-0.811,0.21 -1.592,0.552 -2.328,1.015l-0.1,0.062l0,1.336l2.428,0l0,8.838c0,1.529 0.343,2.659 1.017,3.357c0.675,0.7 1.66,1.055 2.925,1.055c0.479,0 0.956,-0.062 1.416,-0.183c0.454,-0.12 0.879,-0.271 1.264,-0.451c0.383,-0.18 0.729,-0.371 1.029,-0.572c0.305,-0.202 0.547,-0.398 0.721,-0.588l0.102,-0.109l-0.359,-0.742l-0.173,0.059Z" style="fill:#fff;fill-rule:nonzero;"/><path d="M125.518,79.976c-0.555,-0.438 -1.198,-0.756 -1.912,-0.944c-0.702,-0.187 -1.424,-0.28 -2.146,-0.28c-2.235,0 -3.991,0.67 -5.22,1.993c-1.227,1.321 -1.848,3.256 -1.848,5.756c0,1.171 0.162,2.239 0.48,3.178c0.321,0.943 0.801,1.769 1.426,2.449c0.625,0.683 1.418,1.213 2.354,1.577c0.931,0.363 2.018,0.547 3.23,0.547c0.559,0 1.115,-0.065 1.655,-0.192c0.541,-0.129 1.044,-0.303 1.497,-0.519c0.458,-0.217 0.872,-0.479 1.229,-0.775c0.365,-0.306 0.639,-0.638 0.812,-0.988l0.064,-0.133l-0.657,-0.714l-0.15,0.127c-0.339,0.285 -0.862,0.522 -1.559,0.705c-0.707,0.188 -1.415,0.281 -2.103,0.281c-0.839,0 -1.576,-0.144 -2.191,-0.428c-0.615,-0.281 -1.131,-0.675 -1.534,-1.166c-0.405,-0.493 -0.714,-1.082 -0.917,-1.753c-0.188,-0.614 -0.29,-1.28 -0.307,-1.983l9.428,0l0.035,-0.168c0.082,-0.393 0.14,-0.765 0.17,-1.104c0.031,-0.339 0.047,-0.68 0.047,-1.012c0,-1.062 -0.176,-1.971 -0.521,-2.697c-0.344,-0.727 -0.803,-1.32 -1.362,-1.757ZM121.338,80.441c0.967,0 1.655,0.327 2.104,1c0.459,0.688 0.692,1.638 0.692,2.814c0,0.149 -0.004,0.304 -0.015,0.461c-0.007,0.102 -0.015,0.201 -0.024,0.306l-6.268,0c0.131,-1.687 0.479,-2.88 1.027,-3.55c0.574,-0.695 1.385,-1.031 2.484,-1.031Z" style="fill:#fff;fill-rule:nonzero;"/><path d="M139.801,79.732c-0.115,-0.307 -0.248,-0.594 -0.396,-0.854l-0.052,-0.093l-0.106,-0.012c-0.571,-0.062 -1.134,-0.005 -1.677,0.167c-0.534,0.171 -1.033,0.418 -1.482,0.736c-0.447,0.316 -0.848,0.679 -1.191,1.074c-0.203,0.235 -0.381,0.474 -0.531,0.71l0,-2.689l-0.998,0.003c-0.635,0.098 -1.305,0.229 -1.988,0.394c-0.697,0.165 -1.381,0.389 -2.035,0.66l-0.129,0.054l0,1.085l2.002,0.231l0,11.004c-0.273,0.067 -0.548,0.143 -0.822,0.224c-0.336,0.102 -0.695,0.252 -1.068,0.449l-0.111,0.06l0,1.065l7.579,0l0,-1.065l-0.114,-0.061c-0.418,-0.219 -0.84,-0.384 -1.256,-0.493c-0.353,-0.093 -0.707,-0.16 -1.059,-0.202l0,-8.354c0.248,-0.646 0.529,-1.139 0.838,-1.469c0.294,-0.314 0.542,-0.53 0.736,-0.644l4.193,0l0,-0.964l-0.011,-0.064c-0.103,-0.331 -0.21,-0.649 -0.322,-0.952Z" style="fill:#fff;fill-rule:nonzero;"/><path d="M157.899,92.881c-0.509,-0.316 -1.148,-0.55 -1.903,-0.69l0,-7.146c0,-1.211 -0.115,-2.229 -0.343,-3.025c-0.231,-0.812 -0.573,-1.47 -1.019,-1.954c-0.451,-0.489 -1.019,-0.835 -1.689,-1.029c-0.653,-0.188 -1.402,-0.283 -2.227,-0.283c-1.175,0 -2.192,0.337 -3.025,1c-0.616,0.491 -1.129,1.062 -1.532,1.701l0,-2.701l-1.003,0.004c-0.754,0.136 -1.484,0.292 -2.169,0.465c-0.695,0.178 -1.315,0.375 -1.847,0.589l-0.133,0.053l0,1.089l2.004,0.231l0,11.022c-0.77,0.203 -1.403,0.429 -1.887,0.667l-0.117,0.06l0,1.07l6.971,0l0,-1.061l-0.104,-0.062c-0.552,-0.327 -1.129,-0.557 -1.718,-0.686l0,-8.242c0.134,-0.374 0.315,-0.742 0.542,-1.092c0.23,-0.358 0.51,-0.686 0.828,-0.97c0.314,-0.282 0.682,-0.509 1.093,-0.673c0.409,-0.163 0.858,-0.246 1.335,-0.246c1.102,0 1.835,0.381 2.245,1.161c0.427,0.814 0.644,1.95 0.644,3.373l0,6.703c-0.598,0.187 -1.16,0.408 -1.674,0.661l-0.117,0.058l0,1.072l6.941,0l0,-1.057l-0.096,-0.062Z" style="fill:#fff;fill-rule:nonzero;"/></g></g></svg>